  0
SECTION
  2
HEADER
  9
$ACADVER
  1
AC1014
  9
$HANDSEED
  5
FFFF
  9
$MEASUREMENT
 70
     1
  0
ENDSEC
  0
SECTION
  2
TABLES
  0
TABLE
  2
VPORT
  5
8
330
0
100
AcDbSymbolTable
 70
     4
  0
VPORT
  5
2E
330
8
100
AcDbSymbolTableRecord
100
AcDbViewportTableRecord
  2
*ACTIVE
 70
     0
 10
0.0
 20
0.0
 11
1.0
 21
1.0
 12
210.0
 22
148.5
 13
0.0
 23
0.0
 14
10.0
 24
10.0
 15
10.0
 25
10.0
 16
0.0
 26
0.0
 36
1.0
 17
0.0
 27
0.0
 37
0.0
 40
341.0
 41
1.24
 42
50.0
 43
0.0
 44
0.0
 50
0.0
 51
0.0
 71
     0
 72
   100
 73
     1
 74
     3
 75
     0
 76
     0
 77
     0
 78
     0
  0
ENDTAB
  0
TABLE
  2
LTYPE
  5
5
330
0
100
AcDbSymbolTable
 70
     1
  0
LTYPE
  5
14
330
5
100
AcDbSymbolTableRecord
100
AcDbLinetypeTableRecord
  2
BYBLOCK
 70
     0
  3

 72
    65
 73
     0
 40
0.0
  0
LTYPE
  5
15
330
5
100
AcDbSymbolTableRecord
100
AcDbLinetypeTableRecord
  2
BYLAYER
 70
     0
  3

 72
    65
 73
     0
 40
0.0
  0
LTYPE
  5
16
330
5
100
AcDbSymbolTableRecord
100
AcDbLinetypeTableRecord
  2
CONTINUOUS
 70
     0
  3
Solid line
 72
    65
 73
     0
 40
0.0
  0
ENDTAB
  0
TABLE
  2
LAYER
  5
2
100
AcDbSymbolTable
 70
2
  0
LAYER
  5
50
100
AcDbSymbolTableRecord
100
AcDbLayerTableRecord
  2
0
 70
0
  6
CONTINUOUS
  0
LAYER
  5
51
100
AcDbSymbolTableRecord
100
AcDbLayerTableRecord
  2
Layer_1
 70
0
  6
CONTINUOUS
  0
ENDTAB
  0
TABLE
  2
STYLE
  5
3
330
0
100
AcDbSymbolTable
 70
     1
  0
STYLE
  5
11
330
3
100
AcDbSymbolTableRecord
100
AcDbTextStyleTableRecord
  2
STANDARD
 70
     0
 40
0.0
 41
1.0
 50
0.0
 71
     0
 42
2.5
  3
txt
  4

  0
ENDTAB
  0
TABLE
  2
VIEW
  5
6
330
0
100
AcDbSymbolTable
 70
     0
  0
ENDTAB
  0
TABLE
  2
UCS
  5
7
330
0
100
AcDbSymbolTable
 70
     0
  0
ENDTAB
  0
TABLE
  2
APPID
  5
9
330
0
100
AcDbSymbolTable
 70
     2
  0
APPID
  5
12
330
9
100
AcDbSymbolTableRecord
100
AcDbRegAppTableRecord
  2
ACAD
 70
     0
  0
ENDTAB
  0
TABLE
  2
DIMSTYLE
  5
A
330
0
100
AcDbSymbolTable
 70
     1
  0
DIMSTYLE
105
27
330
A
100
AcDbSymbolTableRecord
100
AcDbDimStyleTableRecord
  2
ISO-25
 70
     0
  3

  4

  5

  6

  7

 40
1.0
 41
2.5
 42
0.625
 43
3.75
 44
1.25
 45
0.0
 46
0.0
 47
0.0
 48
0.0
140
2.5
141
2.5
142
0.0
143
0.03937007874016
144
1.0
145
0.0
146
1.0
147
0.625
 71
     0
 72
     0
 73
     0
 74
     0
 75
     0
 76
     0
 77
     1
 78
     8
170
     0
171
     3
172
     1
173
     0
174
     0
175
     0
176
     0
177
     0
178
     0
270
     2
271
     2
272
     2
273
     2
274
     3
340
11
275
     0
280
     0
281
     0
282
     0
283
     0
284
     8
285
     0
286
     0
287
     3
288
     0
  0
ENDTAB
  0
TABLE
  2
BLOCK_RECORD
  5
1
330
0
100
AcDbSymbolTable
 70
     1
  0
BLOCK_RECORD
  5
1F
330
1
100
AcDbSymbolTableRecord
100
AcDbBlockTableRecord
  2
*MODEL_SPACE
  0
BLOCK_RECORD
  5
1B
330
1
100
AcDbSymbolTableRecord
100
AcDbBlockTableRecord
  2
*PAPER_SPACE
  0
ENDTAB
  0
ENDSEC
  0
SECTION
  2
BLOCKS
  0
BLOCK
  5
20
330
1F
100
AcDbEntity
  8
0
100
AcDbBlockBegin
  2
*MODEL_SPACE
 70
     0
 10
0.0
 20
0.0
 30
0.0
  3
*MODEL_SPACE
  1

  0
ENDBLK
  5
21
330
1F
100
AcDbEntity
  8
0
100
AcDbBlockEnd
  0
BLOCK
  5
1C
330
1B
100
AcDbEntity
 67
     1
  8
0
100
AcDbBlockBegin
  2
*PAPER_SPACE
  1

  0
ENDBLK
  5
1D
330
1B
100
AcDbEntity
 67
     1
  8
0
100
AcDbBlockEnd
  0
ENDSEC
  0
SECTION
  2
ENTITIES
  0
LINE
  5
100
100
AcDbEntity
  8
Layer_1
 62
1
100
AcDbLine
 10
541.920740
 20
326.682101
 30
0.0
 11
244.920742
 21
326.682101
 31
0.0
  0
LINE
  5
101
100
AcDbEntity
  8
Layer_1
 62
1
100
AcDbLine
 10
244.920742
 20
326.682101
 30
0.0
 11
244.920742
 21
125.682108
 31
0.0
  0
LINE
  5
102
100
AcDbEntity
  8
Layer_1
 62
1
100
AcDbLine
 10
244.920742
 20
125.682108
 30
0.0
 11
541.920740
 21
125.682108
 31
0.0
  0
LINE
  5
103
100
AcDbEntity
  8
Layer_1
 62
1
100
AcDbLine
 10
541.920740
 20
125.682108
 30
0.0
 11
541.920740
 21
326.682101
 31
0.0
  0
LINE
  5
104
100
AcDbEntity
  8
Layer_1
 62
1
100
AcDbLine
 10
541.920740
 20
326.682101
 30
0.0
 11
541.920740
 21
326.682101
 31
0.0
  0
LINE
  5
105
100
AcDbEntity
  8
Layer_1
 62
7
100
AcDbLine
 10
247.920742
 20
283.682103
 30
0.0
 11
244.920742
 21
283.682103
 31
0.0
  0
LINE
  5
106
100
AcDbEntity
  8
Layer_1
 62
7
100
AcDbLine
 10
244.920742
 20
283.682103
 30
0.0
 11
244.920742
 21
268.682104
 31
0.0
  0
LINE
  5
107
100
AcDbEntity
  8
Layer_1
 62
7
100
AcDbLine
 10
244.920742
 20
268.682104
 30
0.0
 11
247.920742
 21
268.682104
 31
0.0
  0
LINE
  5
108
100
AcDbEntity
  8
Layer_1
 62
7
100
AcDbLine
 10
247.920742
 20
268.682104
 30
0.0
 11
247.920742
 21
283.682103
 31
0.0
  0
LINE
  5
109
100
AcDbEntity
  8
Layer_1
 62
7
100
AcDbLine
 10
247.920742
 20
283.682103
 30
0.0
 11
247.920742
 21
283.682103
 31
0.0
  0
LINE
  5
10a
100
AcDbEntity
  8
Layer_1
 62
7
100
AcDbLine
 10
247.920742
 20
168.682107
 30
0.0
 11
244.920742
 21
168.682107
 31
0.0
  0
LINE
  5
10b
100
AcDbEntity
  8
Layer_1
 62
7
100
AcDbLine
 10
244.920742
 20
168.682107
 30
0.0
 11
244.920742
 21
183.682105
 31
0.0
  0
LINE
  5
10c
100
AcDbEntity
  8
Layer_1
 62
7
100
AcDbLine
 10
244.920742
 20
183.682105
 30
0.0
 11
247.920742
 21
183.682105
 31
0.0
  0
LINE
  5
10d
100
AcDbEntity
  8
Layer_1
 62
7
100
AcDbLine
 10
247.920742
 20
183.682105
 30
0.0
 11
247.920742
 21
168.682107
 31
0.0
  0
LINE
  5
10e
100
AcDbEntity
  8
Layer_1
 62
7
100
AcDbLine
 10
247.920742
 20
168.682107
 30
0.0
 11
247.920742
 21
168.682107
 31
0.0
  0
LINE
  5
10f
100
AcDbEntity
  8
Layer_1
 62
7
100
AcDbLine
 10
342.920741
 20
168.682107
 30
0.0
 11
345.920743
 21
168.682107
 31
0.0
  0
LINE
  5
110
100
AcDbEntity
  8
Layer_1
 62
7
100
AcDbLine
 10
345.920743
 20
168.682107
 30
0.0
 11
345.920743
 21
183.682105
 31
0.0
  0
LINE
  5
111
100
AcDbEntity
  8
Layer_1
 62
7
100
AcDbLine
 10
345.920743
 20
183.682105
 30
0.0
 11
342.920741
 21
183.682105
 31
0.0
  0
LINE
  5
112
100
AcDbEntity
  8
Layer_1
 62
7
100
AcDbLine
 10
342.920741
 20
183.682105
 30
0.0
 11
342.920741
 21
168.682107
 31
0.0
  0
LINE
  5
113
100
AcDbEntity
  8
Layer_1
 62
7
100
AcDbLine
 10
342.920741
 20
168.682107
 30
0.0
 11
342.920741
 21
168.682107
 31
0.0
  0
LINE
  5
114
100
AcDbEntity
  8
Layer_1
 62
7
100
AcDbLine
 10
345.920743
 20
268.682104
 30
0.0
 11
342.920741
 21
268.682104
 31
0.0
  0
LINE
  5
115
100
AcDbEntity
  8
Layer_1
 62
7
100
AcDbLine
 10
342.920741
 20
268.682104
 30
0.0
 11
342.920741
 21
283.682103
 31
0.0
  0
LINE
  5
116
100
AcDbEntity
  8
Layer_1
 62
7
100
AcDbLine
 10
342.920741
 20
283.682103
 30
0.0
 11
345.920743
 21
283.682103
 31
0.0
  0
LINE
  5
117
100
AcDbEntity
  8
Layer_1
 62
7
100
AcDbLine
 10
345.920743
 20
283.682103
 30
0.0
 11
345.920743
 21
268.682104
 31
0.0
  0
LINE
  5
118
100
AcDbEntity
  8
Layer_1
 62
7
100
AcDbLine
 10
345.920743
 20
268.682104
 30
0.0
 11
345.920743
 21
268.682104
 31
0.0
  0
LINE
  5
119
100
AcDbEntity
  8
Layer_1
 62
7
100
AcDbLine
 10
541.920740
 20
268.682104
 30
0.0
 11
538.920746
 21
268.682104
 31
0.0
  0
LINE
  5
11a
100
AcDbEntity
  8
Layer_1
 62
7
100
AcDbLine
 10
538.920746
 20
268.682104
 30
0.0
 11
538.920746
 21
283.682103
 31
0.0
  0
LINE
  5
11b
100
AcDbEntity
  8
Layer_1
 62
7
100
AcDbLine
 10
538.920746
 20
283.682103
 30
0.0
 11
541.920740
 21
283.682103
 31
0.0
  0
LINE
  5
11c
100
AcDbEntity
  8
Layer_1
 62
7
100
AcDbLine
 10
541.920740
 20
283.682103
 30
0.0
 11
541.920740
 21
268.682104
 31
0.0
  0
LINE
  5
11d
100
AcDbEntity
  8
Layer_1
 62
7
100
AcDbLine
 10
541.920740
 20
268.682104
 30
0.0
 11
541.920740
 21
268.682104
 31
0.0
  0
LINE
  5
11e
100
AcDbEntity
  8
Layer_1
 62
7
100
AcDbLine
 10
538.920746
 20
183.682105
 30
0.0
 11
538.920746
 21
168.682107
 31
0.0
  0
LINE
  5
11f
100
AcDbEntity
  8
Layer_1
 62
7
100
AcDbLine
 10
538.920746
 20
168.682107
 30
0.0
 11
541.920740
 21
168.682107
 31
0.0
  0
LINE
  5
120
100
AcDbEntity
  8
Layer_1
 62
7
100
AcDbLine
 10
541.920740
 20
168.682107
 30
0.0
 11
541.920740
 21
183.682105
 31
0.0
  0
LINE
  5
121
100
AcDbEntity
  8
Layer_1
 62
7
100
AcDbLine
 10
541.920740
 20
183.682105
 30
0.0
 11
538.920746
 21
183.682105
 31
0.0
  0
LINE
  5
122
100
AcDbEntity
  8
Layer_1
 62
7
100
AcDbLine
 10
538.920746
 20
183.682105
 30
0.0
 11
538.920746
 21
183.682105
 31
0.0
  0
LINE
  5
123
100
AcDbEntity
  8
Layer_1
 62
7
100
AcDbLine
 10
440.920742
 20
183.682105
 30
0.0
 11
443.920742
 21
183.682105
 31
0.0
  0
LINE
  5
124
100
AcDbEntity
  8
Layer_1
 62
7
100
AcDbLine
 10
443.920742
 20
183.682105
 30
0.0
 11
443.920742
 21
168.682107
 31
0.0
  0
LINE
  5
125
100
AcDbEntity
  8
Layer_1
 62
7
100
AcDbLine
 10
443.920742
 20
168.682107
 30
0.0
 11
440.920742
 21
168.682107
 31
0.0
  0
LINE
  5
126
100
AcDbEntity
  8
Layer_1
 62
7
100
AcDbLine
 10
440.920742
 20
168.682107
 30
0.0
 11
440.920742
 21
183.682105
 31
0.0
  0
LINE
  5
127
100
AcDbEntity
  8
Layer_1
 62
7
100
AcDbLine
 10
440.920742
 20
183.682105
 30
0.0
 11
440.920742
 21
183.682105
 31
0.0
  0
LINE
  5
128
100
AcDbEntity
  8
Layer_1
 62
7
100
AcDbLine
 10
443.920742
 20
268.682104
 30
0.0
 11
443.920742
 21
283.682103
 31
0.0
  0
LINE
  5
129
100
AcDbEntity
  8
Layer_1
 62
7
100
AcDbLine
 10
443.920742
 20
283.682103
 30
0.0
 11
440.920742
 21
283.682103
 31
0.0
  0
LINE
  5
12a
100
AcDbEntity
  8
Layer_1
 62
7
100
AcDbLine
 10
440.920742
 20
283.682103
 30
0.0
 11
440.920742
 21
268.682104
 31
0.0
  0
LINE
  5
12b
100
AcDbEntity
  8
Layer_1
 62
7
100
AcDbLine
 10
440.920742
 20
268.682104
 30
0.0
 11
443.920742
 21
268.682104
 31
0.0
  0
LINE
  5
12c
100
AcDbEntity
  8
Layer_1
 62
7
100
AcDbLine
 10
443.920742
 20
268.682104
 30
0.0
 11
443.920742
 21
268.682104
 31
0.0
  0
LINE
  5
12d
100
AcDbEntity
  8
Layer_1
 62
7
100
AcDbLine
 10
302.920741
 20
326.682101
 30
0.0
 11
287.920740
 21
326.682101
 31
0.0
  0
LINE
  5
12e
100
AcDbEntity
  8
Layer_1
 62
7
100
AcDbLine
 10
287.920740
 20
326.682101
 30
0.0
 11
287.920740
 21
323.682107
 31
0.0
  0
LINE
  5
12f
100
AcDbEntity
  8
Layer_1
 62
7
100
AcDbLine
 10
287.920740
 20
323.682107
 30
0.0
 11
302.920741
 21
323.682107
 31
0.0
  0
LINE
  5
130
100
AcDbEntity
  8
Layer_1
 62
7
100
AcDbLine
 10
302.920741
 20
323.682107
 30
0.0
 11
302.920741
 21
326.682101
 31
0.0
  0
LINE
  5
131
100
AcDbEntity
  8
Layer_1
 62
7
100
AcDbLine
 10
302.920741
 20
326.682101
 30
0.0
 11
302.920741
 21
326.682101
 31
0.0
  0
LINE
  5
132
100
AcDbEntity
  8
Layer_1
 62
7
100
AcDbLine
 10
400.920743
 20
326.682101
 30
0.0
 11
385.920742
 21
326.682101
 31
0.0
  0
LINE
  5
133
100
AcDbEntity
  8
Layer_1
 62
7
100
AcDbLine
 10
385.920742
 20
326.682101
 30
0.0
 11
385.920742
 21
323.682107
 31
0.0
  0
LINE
  5
134
100
AcDbEntity
  8
Layer_1
 62
7
100
AcDbLine
 10
385.920742
 20
323.682107
 30
0.0
 11
400.920743
 21
323.682107
 31
0.0
  0
LINE
  5
135
100
AcDbEntity
  8
Layer_1
 62
7
100
AcDbLine
 10
400.920743
 20
323.682107
 30
0.0
 11
400.920743
 21
326.682101
 31
0.0
  0
LINE
  5
136
100
AcDbEntity
  8
Layer_1
 62
7
100
AcDbLine
 10
400.920743
 20
326.682101
 30
0.0
 11
400.920743
 21
326.682101
 31
0.0
  0
LINE
  5
137
100
AcDbEntity
  8
Layer_1
 62
7
100
AcDbLine
 10
498.920742
 20
326.682101
 30
0.0
 11
483.920741
 21
326.682101
 31
0.0
  0
LINE
  5
138
100
AcDbEntity
  8
Layer_1
 62
7
100
AcDbLine
 10
483.920741
 20
326.682101
 30
0.0
 11
483.920741
 21
323.682107
 31
0.0
  0
LINE
  5
139
100
AcDbEntity
  8
Layer_1
 62
7
100
AcDbLine
 10
483.920741
 20
323.682107
 30
0.0
 11
498.920742
 21
323.682107
 31
0.0
  0
LINE
  5
13a
100
AcDbEntity
  8
Layer_1
 62
7
100
AcDbLine
 10
498.920742
 20
323.682107
 30
0.0
 11
498.920742
 21
326.682101
 31
0.0
  0
LINE
  5
13b
100
AcDbEntity
  8
Layer_1
 62
7
100
AcDbLine
 10
498.920742
 20
326.682101
 30
0.0
 11
498.920742
 21
326.682101
 31
0.0
  0
LINE
  5
13c
100
AcDbEntity
  8
Layer_1
 62
7
100
AcDbLine
 10
287.920740
 20
128.682102
 30
0.0
 11
302.920741
 21
128.682102
 31
0.0
  0
LINE
  5
13d
100
AcDbEntity
  8
Layer_1
 62
7
100
AcDbLine
 10
302.920741
 20
128.682102
 30
0.0
 11
302.920741
 21
125.682108
 31
0.0
  0
LINE
  5
13e
100
AcDbEntity
  8
Layer_1
 62
7
100
AcDbLine
 10
302.920741
 20
125.682108
 30
0.0
 11
287.920740
 21
125.682108
 31
0.0
  0
LINE
  5
13f
100
AcDbEntity
  8
Layer_1
 62
7
100
AcDbLine
 10
287.920740
 20
125.682108
 30
0.0
 11
287.920740
 21
128.682102
 31
0.0
  0
LINE
  5
140
100
AcDbEntity
  8
Layer_1
 62
7
100
AcDbLine
 10
287.920740
 20
128.682102
 30
0.0
 11
287.920740
 21
128.682102
 31
0.0
  0
LINE
  5
141
100
AcDbEntity
  8
Layer_1
 62
7
100
AcDbLine
 10
483.920741
 20
128.682102
 30
0.0
 11
498.920742
 21
128.682102
 31
0.0
  0
LINE
  5
142
100
AcDbEntity
  8
Layer_1
 62
7
100
AcDbLine
 10
498.920742
 20
128.682102
 30
0.0
 11
498.920742
 21
125.682108
 31
0.0
  0
LINE
  5
143
100
AcDbEntity
  8
Layer_1
 62
7
100
AcDbLine
 10
498.920742
 20
125.682108
 30
0.0
 11
483.920741
 21
125.682108
 31
0.0
  0
LINE
  5
144
100
AcDbEntity
  8
Layer_1
 62
7
100
AcDbLine
 10
483.920741
 20
125.682108
 30
0.0
 11
483.920741
 21
128.682102
 31
0.0
  0
LINE
  5
145
100
AcDbEntity
  8
Layer_1
 62
7
100
AcDbLine
 10
483.920741
 20
128.682102
 30
0.0
 11
483.920741
 21
128.682102
 31
0.0
  0
LINE
  5
146
100
AcDbEntity
  8
Layer_1
 62
7
100
AcDbLine
 10
400.920743
 20
125.682108
 30
0.0
 11
385.920742
 21
125.682108
 31
0.0
  0
LINE
  5
147
100
AcDbEntity
  8
Layer_1
 62
7
100
AcDbLine
 10
385.920742
 20
125.682108
 30
0.0
 11
385.920742
 21
128.682102
 31
0.0
  0
LINE
  5
148
100
AcDbEntity
  8
Layer_1
 62
7
100
AcDbLine
 10
385.920742
 20
128.682102
 30
0.0
 11
400.920743
 21
128.682102
 31
0.0
  0
LINE
  5
149
100
AcDbEntity
  8
Layer_1
 62
7
100
AcDbLine
 10
400.920743
 20
128.682102
 30
0.0
 11
400.920743
 21
125.682108
 31
0.0
  0
LINE
  5
14a
100
AcDbEntity
  8
Layer_1
 62
7
100
AcDbLine
 10
400.920743
 20
125.682108
 30
0.0
 11
400.920743
 21
125.682108
 31
0.0
  0
LINE
  5
14b
100
AcDbEntity
  8
Layer_1
 62
1
100
AcDbLine
 10
244.920742
 20
125.682108
 30
0.0
 11
541.920740
 21
125.682108
 31
0.0
  0
LINE
  5
14c
100
AcDbEntity
  8
Layer_1
 62
1
100
AcDbLine
 10
540.377219
 20
400.012827
 30
0.0
 11
540.377219
 21
330.012829
 31
0.0
  0
LINE
  5
14d
100
AcDbEntity
  8
Layer_1
 62
1
100
AcDbLine
 10
540.377219
 20
330.012829
 30
0.0
 11
243.377220
 21
330.012829
 31
0.0
  0
LINE
  5
14e
100
AcDbEntity
  8
Layer_1
 62
1
100
AcDbLine
 10
243.377220
 20
330.012829
 30
0.0
 11
243.377220
 21
400.012827
 31
0.0
  0
LINE
  5
14f
100
AcDbEntity
  8
Layer_1
 62
7
100
AcDbLine
 10
243.377220
 20
380.012828
 30
0.0
 11
246.377220
 21
380.012828
 31
0.0
  0
LINE
  5
150
100
AcDbEntity
  8
Layer_1
 62
7
100
AcDbLine
 10
246.377220
 20
380.012828
 30
0.0
 11
246.377220
 21
365.012829
 31
0.0
  0
LINE
  5
151
100
AcDbEntity
  8
Layer_1
 62
7
100
AcDbLine
 10
246.377220
 20
365.012829
 30
0.0
 11
243.377220
 21
365.012829
 31
0.0
  0
LINE
  5
152
100
AcDbEntity
  8
Layer_1
 62
7
100
AcDbLine
 10
243.377220
 20
365.012829
 30
0.0
 11
243.377220
 21
380.012828
 31
0.0
  0
LINE
  5
153
100
AcDbEntity
  8
Layer_1
 62
7
100
AcDbLine
 10
540.377219
 20
380.012828
 30
0.0
 11
537.377225
 21
380.012828
 31
0.0
  0
LINE
  5
154
100
AcDbEntity
  8
Layer_1
 62
7
100
AcDbLine
 10
537.377225
 20
380.012828
 30
0.0
 11
537.377225
 21
365.012829
 31
0.0
  0
LINE
  5
155
100
AcDbEntity
  8
Layer_1
 62
7
100
AcDbLine
 10
537.377225
 20
365.012829
 30
0.0
 11
540.377219
 21
365.012829
 31
0.0
  0
LINE
  5
156
100
AcDbEntity
  8
Layer_1
 62
7
100
AcDbLine
 10
540.377219
 20
365.012829
 30
0.0
 11
540.377219
 21
380.012828
 31
0.0
  0
LINE
  5
157
100
AcDbEntity
  8
Layer_1
 62
7
100
AcDbLine
 10
344.377221
 20
380.012828
 30
0.0
 11
341.377219
 21
380.012828
 31
0.0
  0
LINE
  5
158
100
AcDbEntity
  8
Layer_1
 62
7
100
AcDbLine
 10
341.377219
 20
380.012828
 30
0.0
 11
341.377219
 21
365.012829
 31
0.0
  0
LINE
  5
159
100
AcDbEntity
  8
Layer_1
 62
7
100
AcDbLine
 10
341.377219
 20
365.012829
 30
0.0
 11
344.377221
 21
365.012829
 31
0.0
  0
LINE
  5
15a
100
AcDbEntity
  8
Layer_1
 62
7
100
AcDbLine
 10
344.377221
 20
365.012829
 30
0.0
 11
344.377221
 21
380.012828
 31
0.0
  0
LINE
  5
15b
100
AcDbEntity
  8
Layer_1
 62
7
100
AcDbLine
 10
344.377221
 20
380.012828
 30
0.0
 11
344.377221
 21
380.012828
 31
0.0
  0
LINE
  5
15c
100
AcDbEntity
  8
Layer_1
 62
7
100
AcDbLine
 10
442.377220
 20
380.012828
 30
0.0
 11
439.377220
 21
380.012828
 31
0.0
  0
LINE
  5
15d
100
AcDbEntity
  8
Layer_1
 62
7
100
AcDbLine
 10
439.377220
 20
380.012828
 30
0.0
 11
439.377220
 21
365.012829
 31
0.0
  0
LINE
  5
15e
100
AcDbEntity
  8
Layer_1
 62
7
100
AcDbLine
 10
439.377220
 20
365.012829
 30
0.0
 11
442.377220
 21
365.012829
 31
0.0
  0
LINE
  5
15f
100
AcDbEntity
  8
Layer_1
 62
7
100
AcDbLine
 10
442.377220
 20
365.012829
 30
0.0
 11
442.377220
 21
380.012828
 31
0.0
  0
LINE
  5
160
100
AcDbEntity
  8
Layer_1
 62
7
100
AcDbLine
 10
442.377220
 20
380.012828
 30
0.0
 11
442.377220
 21
380.012828
 31
0.0
  0
LINE
  5
161
100
AcDbEntity
  8
Layer_1
 62
7
100
AcDbLine
 10
243.377220
 20
330.012829
 30
0.0
 11
246.377220
 21
330.012829
 31
0.0
  0
LINE
  5
162
100
AcDbEntity
  8
Layer_1
 62
7
100
AcDbLine
 10
246.377220
 20
330.012829
 30
0.0
 11
246.377220
 21
345.012830
 31
0.0
  0
LINE
  5
163
100
AcDbEntity
  8
Layer_1
 62
7
100
AcDbLine
 10
246.377220
 20
345.012830
 30
0.0
 11
243.377220
 21
345.012830
 31
0.0
  0
LINE
  5
164
100
AcDbEntity
  8
Layer_1
 62
7
100
AcDbLine
 10
243.377220
 20
345.012830
 30
0.0
 11
243.377220
 21
330.012829
 31
0.0
  0
LINE
  5
165
100
AcDbEntity
  8
Layer_1
 62
7
100
AcDbLine
 10
344.377221
 20
330.012829
 30
0.0
 11
341.377219
 21
330.012829
 31
0.0
  0
LINE
  5
166
100
AcDbEntity
  8
Layer_1
 62
7
100
AcDbLine
 10
341.377219
 20
330.012829
 30
0.0
 11
341.377219
 21
345.012830
 31
0.0
  0
LINE
  5
167
100
AcDbEntity
  8
Layer_1
 62
7
100
AcDbLine
 10
341.377219
 20
345.012830
 30
0.0
 11
344.377221
 21
345.012830
 31
0.0
  0
LINE
  5
168
100
AcDbEntity
  8
Layer_1
 62
7
100
AcDbLine
 10
344.377221
 20
345.012830
 30
0.0
 11
344.377221
 21
330.012829
 31
0.0
  0
LINE
  5
169
100
AcDbEntity
  8
Layer_1
 62
7
100
AcDbLine
 10
344.377221
 20
330.012829
 30
0.0
 11
344.377221
 21
330.012829
 31
0.0
  0
LINE
  5
16a
100
AcDbEntity
  8
Layer_1
 62
7
100
AcDbLine
 10
439.377220
 20
330.012829
 30
0.0
 11
442.377220
 21
330.012829
 31
0.0
  0
LINE
  5
16b
100
AcDbEntity
  8
Layer_1
 62
7
100
AcDbLine
 10
442.377220
 20
330.012829
 30
0.0
 11
442.377220
 21
345.012830
 31
0.0
  0
LINE
  5
16c
100
AcDbEntity
  8
Layer_1
 62
7
100
AcDbLine
 10
442.377220
 20
345.012830
 30
0.0
 11
439.377220
 21
345.012830
 31
0.0
  0
LINE
  5
16d
100
AcDbEntity
  8
Layer_1
 62
7
100
AcDbLine
 10
439.377220
 20
345.012830
 30
0.0
 11
439.377220
 21
330.012829
 31
0.0
  0
LINE
  5
16e
100
AcDbEntity
  8
Layer_1
 62
7
100
AcDbLine
 10
439.377220
 20
330.012829
 30
0.0
 11
439.377220
 21
330.012829
 31
0.0
  0
LINE
  5
16f
100
AcDbEntity
  8
Layer_1
 62
7
100
AcDbLine
 10
540.377219
 20
330.012829
 30
0.0
 11
537.377225
 21
330.012829
 31
0.0
  0
LINE
  5
170
100
AcDbEntity
  8
Layer_1
 62
7
100
AcDbLine
 10
537.377225
 20
330.012829
 30
0.0
 11
537.377225
 21
345.012830
 31
0.0
  0
LINE
  5
171
100
AcDbEntity
  8
Layer_1
 62
7
100
AcDbLine
 10
537.377225
 20
345.012830
 30
0.0
 11
540.377219
 21
345.012830
 31
0.0
  0
LINE
  5
172
100
AcDbEntity
  8
Layer_1
 62
7
100
AcDbLine
 10
540.377219
 20
345.012830
 30
0.0
 11
540.377219
 21
330.012829
 31
0.0
  0
LINE
  5
173
100
AcDbEntity
  8
Layer_1
 62
7
100
AcDbLine
 10
301.377220
 20
400.012827
 30
0.0
 11
301.377220
 21
403.012821
 31
0.0
  0
LINE
  5
174
100
AcDbEntity
  8
Layer_1
 62
7
100
AcDbLine
 10
301.377220
 20
403.012821
 30
0.0
 11
286.377219
 21
403.012821
 31
0.0
  0
LINE
  5
175
100
AcDbEntity
  8
Layer_1
 62
7
100
AcDbLine
 10
286.377219
 20
403.012821
 30
0.0
 11
286.377219
 21
400.012827
 31
0.0
  0
LINE
  5
176
100
AcDbEntity
  8
Layer_1
 62
7
100
AcDbLine
 10
399.377221
 20
400.012827
 30
0.0
 11
399.377221
 21
403.012821
 31
0.0
  0
LINE
  5
177
100
AcDbEntity
  8
Layer_1
 62
7
100
AcDbLine
 10
399.377221
 20
403.012821
 30
0.0
 11
384.377220
 21
403.012821
 31
0.0
  0
LINE
  5
178
100
AcDbEntity
  8
Layer_1
 62
7
100
AcDbLine
 10
384.377220
 20
403.012821
 30
0.0
 11
384.377220
 21
400.012827
 31
0.0
  0
LINE
  5
179
100
AcDbEntity
  8
Layer_1
 62
7
100
AcDbLine
 10
497.377220
 20
400.012827
 30
0.0
 11
497.377220
 21
403.012821
 31
0.0
  0
LINE
  5
17a
100
AcDbEntity
  8
Layer_1
 62
7
100
AcDbLine
 10
497.377220
 20
403.012821
 30
0.0
 11
482.377219
 21
403.012821
 31
0.0
  0
LINE
  5
17b
100
AcDbEntity
  8
Layer_1
 62
7
100
AcDbLine
 10
482.377219
 20
403.012821
 30
0.0
 11
482.377219
 21
400.012827
 31
0.0
  0
SPLINE
  5
17c
100
AcDbEntity
  8
Layer_1
 62
7
100
AcDbSpline
 70
8
 71
3
 72
8
 73
4
 74
0
 40
0
 40
0
 40
0
 40
0
 40
1
 40
1
 40
1
 40
1
 10
261.377220
 20
330.012829
 30
0.0
 10
283.043887
 20
343.346162
 30
0.0
 10
304.710554
 20
343.346162
 30
0.0
 10
326.377221
 20
330.012829
 30
0.0
  0
SPLINE
  5
17d
100
AcDbEntity
  8
Layer_1
 62
7
100
AcDbSpline
 70
8
 71
3
 72
8
 73
4
 74
0
 40
0
 40
0
 40
0
 40
0
 40
1
 40
1
 40
1
 40
1
 10
424.377219
 20
330.012829
 30
0.0
 10
402.710553
 20
343.346162
 30
0.0
 10
381.043886
 20
343.346162
 30
0.0
 10
359.377219
 20
330.012829
 30
0.0
  0
SPLINE
  5
17e
100
AcDbEntity
  8
Layer_1
 62
7
100
AcDbSpline
 70
8
 71
3
 72
8
 73
4
 74
0
 40
0
 40
0
 40
0
 40
0
 40
1
 40
1
 40
1
 40
1
 10
457.377221
 20
330.012829
 30
0.0
 10
479.043888
 20
343.346162
 30
0.0
 10
500.710554
 20
343.346162
 30
0.0
 10
522.377221
 20
330.012829
 30
0.0
  0
LINE
  5
17f
100
AcDbEntity
  8
Layer_1
 62
7
100
AcDbLine
 10
243.377220
 20
400.012827
 30
0.0
 11
286.377219
 21
400.012827
 31
0.0
  0
LINE
  5
180
100
AcDbEntity
  8
Layer_1
 62
7
100
AcDbLine
 10
286.377219
 20
400.012827
 30
0.0
 11
286.377219
 21
403.012821
 31
0.0
  0
LINE
  5
181
100
AcDbEntity
  8
Layer_1
 62
7
100
AcDbLine
 10
301.377220
 20
403.012821
 30
0.0
 11
301.377220
 21
400.012827
 31
0.0
  0
LINE
  5
182
100
AcDbEntity
  8
Layer_1
 62
7
100
AcDbLine
 10
301.377220
 20
400.012827
 30
0.0
 11
384.377220
 21
400.012827
 31
0.0
  0
LINE
  5
183
100
AcDbEntity
  8
Layer_1
 62
7
100
AcDbLine
 10
384.377220
 20
400.012827
 30
0.0
 11
384.377220
 21
403.012821
 31
0.0
  0
LINE
  5
184
100
AcDbEntity
  8
Layer_1
 62
7
100
AcDbLine
 10
399.377221
 20
403.012821
 30
0.0
 11
399.377221
 21
400.012827
 31
0.0
  0
LINE
  5
185
100
AcDbEntity
  8
Layer_1
 62
7
100
AcDbLine
 10
399.377221
 20
400.012827
 30
0.0
 11
482.377219
 21
400.012827
 31
0.0
  0
LINE
  5
186
100
AcDbEntity
  8
Layer_1
 62
7
100
AcDbLine
 10
482.377219
 20
400.012827
 30
0.0
 11
482.377219
 21
403.012821
 31
0.0
  0
LINE
  5
187
100
AcDbEntity
  8
Layer_1
 62
7
100
AcDbLine
 10
482.377219
 20
400.012827
 30
0.0
 11
482.377219
 21
403.012821
 31
0.0
  0
LINE
  5
188
100
AcDbEntity
  8
Layer_1
 62
7
100
AcDbLine
 10
497.377220
 20
403.012821
 30
0.0
 11
497.377220
 21
400.012827
 31
0.0
  0
LINE
  5
189
100
AcDbEntity
  8
Layer_1
 62
7
100
AcDbLine
 10
497.377220
 20
400.012827
 30
0.0
 11
540.377219
 21
400.012827
 31
0.0
  0
LINE
  5
18a
100
AcDbEntity
  8
Layer_1
 62
1
100
AcDbLine
 10
541.920740
 20
50.885896
 30
0.0
 11
541.920740
 21
120.885894
 31
0.0
  0
LINE
  5
18b
100
AcDbEntity
  8
Layer_1
 62
1
100
AcDbLine
 10
541.920740
 20
120.885894
 30
0.0
 11
244.920742
 21
120.885894
 31
0.0
  0
LINE
  5
18c
100
AcDbEntity
  8
Layer_1
 62
1
100
AcDbLine
 10
244.920742
 20
120.885894
 30
0.0
 11
244.920742
 21
50.885896
 31
0.0
  0
LINE
  5
18d
100
AcDbEntity
  8
Layer_1
 62
7
100
AcDbLine
 10
244.920742
 20
70.885895
 30
0.0
 11
247.920742
 21
70.885895
 31
0.0
  0
LINE
  5
18e
100
AcDbEntity
  8
Layer_1
 62
7
100
AcDbLine
 10
247.920742
 20
70.885895
 30
0.0
 11
247.920742
 21
85.885893
 31
0.0
  0
LINE
  5
18f
100
AcDbEntity
  8
Layer_1
 62
7
100
AcDbLine
 10
247.920742
 20
85.885893
 30
0.0
 11
244.920742
 21
85.885893
 31
0.0
  0
LINE
  5
190
100
AcDbEntity
  8
Layer_1
 62
7
100
AcDbLine
 10
244.920742
 20
85.885893
 30
0.0
 11
244.920742
 21
70.885895
 31
0.0
  0
LINE
  5
191
100
AcDbEntity
  8
Layer_1
 62
7
100
AcDbLine
 10
541.920740
 20
70.885895
 30
0.0
 11
538.920746
 21
70.885895
 31
0.0
  0
LINE
  5
192
100
AcDbEntity
  8
Layer_1
 62
7
100
AcDbLine
 10
538.920746
 20
70.885895
 30
0.0
 11
538.920746
 21
85.885893
 31
0.0
  0
LINE
  5
193
100
AcDbEntity
  8
Layer_1
 62
7
100
AcDbLine
 10
538.920746
 20
85.885893
 30
0.0
 11
541.920740
 21
85.885893
 31
0.0
  0
LINE
  5
194
100
AcDbEntity
  8
Layer_1
 62
7
100
AcDbLine
 10
541.920740
 20
85.885893
 30
0.0
 11
541.920740
 21
70.885895
 31
0.0
  0
LINE
  5
195
100
AcDbEntity
  8
Layer_1
 62
7
100
AcDbLine
 10
345.920743
 20
70.885895
 30
0.0
 11
342.920741
 21
70.885895
 31
0.0
  0
LINE
  5
196
100
AcDbEntity
  8
Layer_1
 62
7
100
AcDbLine
 10
342.920741
 20
70.885895
 30
0.0
 11
342.920741
 21
85.885893
 31
0.0
  0
LINE
  5
197
100
AcDbEntity
  8
Layer_1
 62
7
100
AcDbLine
 10
342.920741
 20
85.885893
 30
0.0
 11
345.920743
 21
85.885893
 31
0.0
  0
LINE
  5
198
100
AcDbEntity
  8
Layer_1
 62
7
100
AcDbLine
 10
345.920743
 20
85.885893
 30
0.0
 11
345.920743
 21
70.885895
 31
0.0
  0
LINE
  5
199
100
AcDbEntity
  8
Layer_1
 62
7
100
AcDbLine
 10
345.920743
 20
70.885895
 30
0.0
 11
345.920743
 21
70.885895
 31
0.0
  0
LINE
  5
19a
100
AcDbEntity
  8
Layer_1
 62
7
100
AcDbLine
 10
443.920742
 20
70.885895
 30
0.0
 11
440.920742
 21
70.885895
 31
0.0
  0
LINE
  5
19b
100
AcDbEntity
  8
Layer_1
 62
7
100
AcDbLine
 10
440.920742
 20
70.885895
 30
0.0
 11
440.920742
 21
85.885893
 31
0.0
  0
LINE
  5
19c
100
AcDbEntity
  8
Layer_1
 62
7
100
AcDbLine
 10
440.920742
 20
85.885893
 30
0.0
 11
443.920742
 21
85.885893
 31
0.0
  0
LINE
  5
19d
100
AcDbEntity
  8
Layer_1
 62
7
100
AcDbLine
 10
443.920742
 20
85.885893
 30
0.0
 11
443.920742
 21
70.885895
 31
0.0
  0
LINE
  5
19e
100
AcDbEntity
  8
Layer_1
 62
7
100
AcDbLine
 10
443.920742
 20
70.885895
 30
0.0
 11
443.920742
 21
70.885895
 31
0.0
  0
LINE
  5
19f
100
AcDbEntity
  8
Layer_1
 62
7
100
AcDbLine
 10
244.920742
 20
120.885894
 30
0.0
 11
247.920742
 21
120.885894
 31
0.0
  0
LINE
  5
1a0
100
AcDbEntity
  8
Layer_1
 62
7
100
AcDbLine
 10
247.920742
 20
120.885894
 30
0.0
 11
247.920742
 21
105.885893
 31
0.0
  0
LINE
  5
1a1
100
AcDbEntity
  8
Layer_1
 62
7
100
AcDbLine
 10
247.920742
 20
105.885893
 30
0.0
 11
244.920742
 21
105.885893
 31
0.0
  0
LINE
  5
1a2
100
AcDbEntity
  8
Layer_1
 62
7
100
AcDbLine
 10
244.920742
 20
105.885893
 30
0.0
 11
244.920742
 21
120.885894
 31
0.0
  0
LINE
  5
1a3
100
AcDbEntity
  8
Layer_1
 62
7
100
AcDbLine
 10
345.920743
 20
120.885894
 30
0.0
 11
342.920741
 21
120.885894
 31
0.0
  0
LINE
  5
1a4
100
AcDbEntity
  8
Layer_1
 62
7
100
AcDbLine
 10
342.920741
 20
120.885894
 30
0.0
 11
342.920741
 21
105.885893
 31
0.0
  0
LINE
  5
1a5
100
AcDbEntity
  8
Layer_1
 62
7
100
AcDbLine
 10
342.920741
 20
105.885893
 30
0.0
 11
345.920743
 21
105.885893
 31
0.0
  0
LINE
  5
1a6
100
AcDbEntity
  8
Layer_1
 62
7
100
AcDbLine
 10
345.920743
 20
105.885893
 30
0.0
 11
345.920743
 21
120.885894
 31
0.0
  0
LINE
  5
1a7
100
AcDbEntity
  8
Layer_1
 62
7
100
AcDbLine
 10
345.920743
 20
120.885894
 30
0.0
 11
345.920743
 21
120.885894
 31
0.0
  0
LINE
  5
1a8
100
AcDbEntity
  8
Layer_1
 62
7
100
AcDbLine
 10
440.920742
 20
120.885894
 30
0.0
 11
443.920742
 21
120.885894
 31
0.0
  0
LINE
  5
1a9
100
AcDbEntity
  8
Layer_1
 62
7
100
AcDbLine
 10
443.920742
 20
120.885894
 30
0.0
 11
443.920742
 21
105.885893
 31
0.0
  0
LINE
  5
1aa
100
AcDbEntity
  8
Layer_1
 62
7
100
AcDbLine
 10
443.920742
 20
105.885893
 30
0.0
 11
440.920742
 21
105.885893
 31
0.0
  0
LINE
  5
1ab
100
AcDbEntity
  8
Layer_1
 62
7
100
AcDbLine
 10
440.920742
 20
105.885893
 30
0.0
 11
440.920742
 21
120.885894
 31
0.0
  0
LINE
  5
1ac
100
AcDbEntity
  8
Layer_1
 62
7
100
AcDbLine
 10
440.920742
 20
120.885894
 30
0.0
 11
440.920742
 21
120.885894
 31
0.0
  0
LINE
  5
1ad
100
AcDbEntity
  8
Layer_1
 62
7
100
AcDbLine
 10
541.920740
 20
120.885894
 30
0.0
 11
538.920746
 21
120.885894
 31
0.0
  0
LINE
  5
1ae
100
AcDbEntity
  8
Layer_1
 62
7
100
AcDbLine
 10
538.920746
 20
120.885894
 30
0.0
 11
538.920746
 21
105.885893
 31
0.0
  0
LINE
  5
1af
100
AcDbEntity
  8
Layer_1
 62
7
100
AcDbLine
 10
538.920746
 20
105.885893
 30
0.0
 11
541.920740
 21
105.885893
 31
0.0
  0
LINE
  5
1b0
100
AcDbEntity
  8
Layer_1
 62
7
100
AcDbLine
 10
541.920740
 20
105.885893
 30
0.0
 11
541.920740
 21
120.885894
 31
0.0
  0
LINE
  5
1b1
100
AcDbEntity
  8
Layer_1
 62
7
100
AcDbLine
 10
302.920741
 20
50.885896
 30
0.0
 11
302.920741
 21
47.885902
 31
0.0
  0
LINE
  5
1b2
100
AcDbEntity
  8
Layer_1
 62
7
100
AcDbLine
 10
302.920741
 20
47.885902
 30
0.0
 11
287.920740
 21
47.885902
 31
0.0
  0
LINE
  5
1b3
100
AcDbEntity
  8
Layer_1
 62
7
100
AcDbLine
 10
287.920740
 20
47.885902
 30
0.0
 11
287.920740
 21
50.885896
 31
0.0
  0
LINE
  5
1b4
100
AcDbEntity
  8
Layer_1
 62
7
100
AcDbLine
 10
400.920743
 20
50.885896
 30
0.0
 11
400.920743
 21
47.885902
 31
0.0
  0
LINE
  5
1b5
100
AcDbEntity
  8
Layer_1
 62
7
100
AcDbLine
 10
400.920743
 20
47.885902
 30
0.0
 11
385.920742
 21
47.885902
 31
0.0
  0
LINE
  5
1b6
100
AcDbEntity
  8
Layer_1
 62
7
100
AcDbLine
 10
385.920742
 20
47.885902
 30
0.0
 11
385.920742
 21
50.885896
 31
0.0
  0
LINE
  5
1b7
100
AcDbEntity
  8
Layer_1
 62
7
100
AcDbLine
 10
498.920742
 20
50.885896
 30
0.0
 11
498.920742
 21
47.885902
 31
0.0
  0
LINE
  5
1b8
100
AcDbEntity
  8
Layer_1
 62
7
100
AcDbLine
 10
498.920742
 20
47.885902
 30
0.0
 11
483.920741
 21
47.885902
 31
0.0
  0
LINE
  5
1b9
100
AcDbEntity
  8
Layer_1
 62
7
100
AcDbLine
 10
483.920741
 20
47.885902
 30
0.0
 11
483.920741
 21
50.885896
 31
0.0
  0
SPLINE
  5
1ba
100
AcDbEntity
  8
Layer_1
 62
7
100
AcDbSpline
 70
8
 71
3
 72
8
 73
4
 74
0
 40
0
 40
0
 40
0
 40
0
 40
1
 40
1
 40
1
 40
1
 10
262.920742
 20
120.885894
 30
0.0
 10
284.587409
 20
107.552561
 30
0.0
 10
306.254076
 20
107.552561
 30
0.0
 10
327.920742
 20
120.885894
 30
0.0
  0
SPLINE
  5
1bb
100
AcDbEntity
  8
Layer_1
 62
7
100
AcDbSpline
 70
8
 71
3
 72
8
 73
4
 74
0
 40
0
 40
0
 40
0
 40
0
 40
1
 40
1
 40
1
 40
1
 10
425.920741
 20
120.885894
 30
0.0
 10
404.254074
 20
107.552561
 30
0.0
 10
382.587408
 20
107.552561
 30
0.0
 10
360.920741
 20
120.885894
 30
0.0
  0
SPLINE
  5
1bc
100
AcDbEntity
  8
Layer_1
 62
7
100
AcDbSpline
 70
8
 71
3
 72
8
 73
4
 74
0
 40
0
 40
0
 40
0
 40
0
 40
1
 40
1
 40
1
 40
1
 10
458.920743
 20
120.885894
 30
0.0
 10
480.587409
 20
107.552561
 30
0.0
 10
502.254076
 20
107.552561
 30
0.0
 10
523.920743
 20
120.885894
 30
0.0
  0
LINE
  5
1bd
100
AcDbEntity
  8
Layer_1
 62
7
100
AcDbLine
 10
244.920742
 20
50.885896
 30
0.0
 11
287.920740
 21
50.885896
 31
0.0
  0
LINE
  5
1be
100
AcDbEntity
  8
Layer_1
 62
7
100
AcDbLine
 10
287.920740
 20
50.885896
 30
0.0
 11
287.920740
 21
47.885902
 31
0.0
  0
LINE
  5
1bf
100
AcDbEntity
  8
Layer_1
 62
7
100
AcDbLine
 10
302.920741
 20
47.885902
 30
0.0
 11
302.920741
 21
50.885896
 31
0.0
  0
LINE
  5
1c0
100
AcDbEntity
  8
Layer_1
 62
7
100
AcDbLine
 10
302.920741
 20
50.885896
 30
0.0
 11
385.920742
 21
50.885896
 31
0.0
  0
LINE
  5
1c1
100
AcDbEntity
  8
Layer_1
 62
7
100
AcDbLine
 10
385.920742
 20
50.885896
 30
0.0
 11
385.920742
 21
47.885902
 31
0.0
  0
LINE
  5
1c2
100
AcDbEntity
  8
Layer_1
 62
7
100
AcDbLine
 10
400.920743
 20
47.885902
 30
0.0
 11
400.920743
 21
50.885896
 31
0.0
  0
LINE
  5
1c3
100
AcDbEntity
  8
Layer_1
 62
7
100
AcDbLine
 10
400.920743
 20
50.885896
 30
0.0
 11
483.920741
 21
50.885896
 31
0.0
  0
LINE
  5
1c4
100
AcDbEntity
  8
Layer_1
 62
7
100
AcDbLine
 10
483.920741
 20
50.885896
 30
0.0
 11
483.920741
 21
47.885902
 31
0.0
  0
LINE
  5
1c5
100
AcDbEntity
  8
Layer_1
 62
7
100
AcDbLine
 10
483.920741
 20
50.885896
 30
0.0
 11
483.920741
 21
47.885902
 31
0.0
  0
LINE
  5
1c6
100
AcDbEntity
  8
Layer_1
 62
7
100
AcDbLine
 10
498.920742
 20
47.885902
 30
0.0
 11
498.920742
 21
50.885896
 31
0.0
  0
LINE
  5
1c7
100
AcDbEntity
  8
Layer_1
 62
7
100
AcDbLine
 10
498.920742
 20
50.885896
 30
0.0
 11
541.920740
 21
50.885896
 31
0.0
  0
LINE
  5
1c8
100
AcDbEntity
  8
Layer_1
 62
1
100
AcDbLine
 10
615.849348
 20
399.507858
 30
0.0
 11
545.849350
 21
399.507858
 31
0.0
  0
LINE
  5
1c9
100
AcDbEntity
  8
Layer_1
 62
7
100
AcDbLine
 10
545.849350
 20
399.507858
 30
0.0
 11
545.849350
 21
198.507859
 31
0.0
  0
LINE
  5
1ca
100
AcDbEntity
  8
Layer_1
 62
1
100
AcDbLine
 10
545.849350
 20
198.507859
 30
0.0
 11
615.849348
 21
198.507859
 31
0.0
  0
LINE
  5
1cb
100
AcDbEntity
  8
Layer_1
 62
7
100
AcDbLine
 10
615.849348
 20
198.507859
 30
0.0
 11
615.849348
 21
201.507859
 31
0.0
  0
LINE
  5
1cc
100
AcDbEntity
  8
Layer_1
 62
7
100
AcDbLine
 10
615.849348
 20
201.507859
 30
0.0
 11
595.849349
 21
201.507859
 31
0.0
  0
LINE
  5
1cd
100
AcDbEntity
  8
Layer_1
 62
7
100
AcDbLine
 10
595.849349
 20
201.507859
 30
0.0
 11
595.849349
 21
198.507859
 31
0.0
  0
LINE
  5
1ce
100
AcDbEntity
  8
Layer_1
 62
7
100
AcDbLine
 10
580.849351
 20
201.507859
 30
0.0
 11
580.849351
 21
198.507859
 31
0.0
  0
LINE
  5
1cf
100
AcDbEntity
  8
Layer_1
 62
7
100
AcDbLine
 10
580.849351
 20
198.507859
 30
0.0
 11
560.849351
 21
198.507859
 31
0.0
  0
LINE
  5
1d0
100
AcDbEntity
  8
Layer_1
 62
7
100
AcDbLine
 10
560.849351
 20
198.507859
 30
0.0
 11
560.849351
 21
201.507859
 31
0.0
  0
LINE
  5
1d1
100
AcDbEntity
  8
Layer_1
 62
7
100
AcDbLine
 10
560.849351
 20
201.507859
 30
0.0
 11
580.849351
 21
201.507859
 31
0.0
  0
LINE
  5
1d2
100
AcDbEntity
  8
Layer_1
 62
7
100
AcDbLine
 10
580.849351
 20
201.507859
 30
0.0
 11
580.849351
 21
201.507859
 31
0.0
  0
LINE
  5
1d3
100
AcDbEntity
  8
Layer_1
 62
7
100
AcDbLine
 10
595.849349
 20
396.507858
 30
0.0
 11
615.849348
 21
396.507858
 31
0.0
  0
LINE
  5
1d4
100
AcDbEntity
  8
Layer_1
 62
7
100
AcDbLine
 10
615.849348
 20
396.507858
 30
0.0
 11
615.849348
 21
399.507858
 31
0.0
  0
LINE
  5
1d5
100
AcDbEntity
  8
Layer_1
 62
7
100
AcDbLine
 10
615.849348
 20
399.507858
 30
0.0
 11
595.849349
 21
399.507858
 31
0.0
  0
LINE
  5
1d6
100
AcDbEntity
  8
Layer_1
 62
7
100
AcDbLine
 10
595.849349
 20
399.507858
 30
0.0
 11
595.849349
 21
396.507858
 31
0.0
  0
LINE
  5
1d7
100
AcDbEntity
  8
Layer_1
 62
7
100
AcDbLine
 10
595.849349
 20
396.507858
 30
0.0
 11
595.849349
 21
396.507858
 31
0.0
  0
LINE
  5
1d8
100
AcDbEntity
  8
Layer_1
 62
7
100
AcDbLine
 10
560.849351
 20
399.507858
 30
0.0
 11
560.849351
 21
396.507858
 31
0.0
  0
LINE
  5
1d9
100
AcDbEntity
  8
Layer_1
 62
7
100
AcDbLine
 10
560.849351
 20
396.507858
 30
0.0
 11
580.849351
 21
396.507858
 31
0.0
  0
LINE
  5
1da
100
AcDbEntity
  8
Layer_1
 62
7
100
AcDbLine
 10
580.849351
 20
396.507858
 30
0.0
 11
580.849351
 21
399.507858
 31
0.0
  0
LINE
  5
1db
100
AcDbEntity
  8
Layer_1
 62
7
100
AcDbLine
 10
580.849351
 20
399.507858
 30
0.0
 11
560.849351
 21
399.507858
 31
0.0
  0
LINE
  5
1dc
100
AcDbEntity
  8
Layer_1
 62
7
100
AcDbLine
 10
560.849351
 20
399.507858
 30
0.0
 11
560.849351
 21
399.507858
 31
0.0
  0
LINE
  5
1dd
100
AcDbEntity
  8
Layer_1
 62
7
100
AcDbLine
 10
615.849348
 20
256.507859
 30
0.0
 11
618.849342
 21
256.507859
 31
0.0
  0
LINE
  5
1de
100
AcDbEntity
  8
Layer_1
 62
7
100
AcDbLine
 10
618.849342
 20
256.507859
 30
0.0
 11
618.849342
 21
241.507858
 31
0.0
  0
LINE
  5
1df
100
AcDbEntity
  8
Layer_1
 62
7
100
AcDbLine
 10
618.849342
 20
241.507858
 30
0.0
 11
615.849348
 21
241.507858
 31
0.0
  0
LINE
  5
1e0
100
AcDbEntity
  8
Layer_1
 62
7
100
AcDbLine
 10
615.849348
 20
356.507859
 30
0.0
 11
618.849342
 21
356.507859
 31
0.0
  0
LINE
  5
1e1
100
AcDbEntity
  8
Layer_1
 62
7
100
AcDbLine
 10
618.849342
 20
356.507859
 30
0.0
 11
618.849342
 21
341.507858
 31
0.0
  0
LINE
  5
1e2
100
AcDbEntity
  8
Layer_1
 62
7
100
AcDbLine
 10
618.849342
 20
341.507858
 30
0.0
 11
615.849348
 21
341.507858
 31
0.0
  0
LINE
  5
1e3
100
AcDbEntity
  8
Layer_1
 62
7
100
AcDbLine
 10
615.849348
 20
198.507859
 30
0.0
 11
615.849348
 21
241.507858
 31
0.0
  0
LINE
  5
1e4
100
AcDbEntity
  8
Layer_1
 62
7
100
AcDbLine
 10
615.849348
 20
256.507859
 30
0.0
 11
615.849348
 21
341.507858
 31
0.0
  0
LINE
  5
1e5
100
AcDbEntity
  8
Layer_1
 62
7
100
AcDbLine
 10
615.849348
 20
356.507859
 30
0.0
 11
615.849348
 21
399.507858
 31
0.0
  0
LINE
  5
1e6
100
AcDbEntity
  8
Layer_1
 62
1
100
AcDbLine
 10
615.849348
 20
196.092523
 30
0.0
 11
545.849350
 21
196.092523
 31
0.0
  0
LINE
  5
1e7
100
AcDbEntity
  8
Layer_1
 62
7
100
AcDbLine
 10
545.849350
 20
196.092523
 30
0.0
 11
545.849350
 21
-4.907476
 31
0.0
  0
LINE
  5
1e8
100
AcDbEntity
  8
Layer_1
 62
1
100
AcDbLine
 10
545.849350
 20
-4.907476
 30
0.0
 11
615.849348
 21
-4.907476
 31
0.0
  0
LINE
  5
1e9
100
AcDbEntity
  8
Layer_1
 62
7
100
AcDbLine
 10
615.849348
 20
-4.907476
 30
0.0
 11
615.849348
 21
-1.907476
 31
0.0
  0
LINE
  5
1ea
100
AcDbEntity
  8
Layer_1
 62
7
100
AcDbLine
 10
615.849348
 20
-1.907476
 30
0.0
 11
595.849349
 21
-1.907476
 31
0.0
  0
LINE
  5
1eb
100
AcDbEntity
  8
Layer_1
 62
7
100
AcDbLine
 10
595.849349
 20
-1.907476
 30
0.0
 11
595.849349
 21
-4.907476
 31
0.0
  0
LINE
  5
1ec
100
AcDbEntity
  8
Layer_1
 62
7
100
AcDbLine
 10
580.849351
 20
-1.907476
 30
0.0
 11
580.849351
 21
-4.907476
 31
0.0
  0
LINE
  5
1ed
100
AcDbEntity
  8
Layer_1
 62
7
100
AcDbLine
 10
580.849351
 20
-4.907476
 30
0.0
 11
560.849351
 21
-4.907476
 31
0.0
  0
LINE
  5
1ee
100
AcDbEntity
  8
Layer_1
 62
7
100
AcDbLine
 10
560.849351
 20
-4.907476
 30
0.0
 11
560.849351
 21
-1.907476
 31
0.0
  0
LINE
  5
1ef
100
AcDbEntity
  8
Layer_1
 62
7
100
AcDbLine
 10
560.849351
 20
-1.907476
 30
0.0
 11
580.849351
 21
-1.907476
 31
0.0
  0
LINE
  5
1f0
100
AcDbEntity
  8
Layer_1
 62
7
100
AcDbLine
 10
580.849351
 20
-1.907476
 30
0.0
 11
580.849351
 21
-1.907476
 31
0.0
  0
LINE
  5
1f1
100
AcDbEntity
  8
Layer_1
 62
7
100
AcDbLine
 10
595.849349
 20
193.092523
 30
0.0
 11
615.849348
 21
193.092523
 31
0.0
  0
LINE
  5
1f2
100
AcDbEntity
  8
Layer_1
 62
7
100
AcDbLine
 10
615.849348
 20
193.092523
 30
0.0
 11
615.849348
 21
196.092523
 31
0.0
  0
LINE
  5
1f3
100
AcDbEntity
  8
Layer_1
 62
7
100
AcDbLine
 10
615.849348
 20
196.092523
 30
0.0
 11
595.849349
 21
196.092523
 31
0.0
  0
LINE
  5
1f4
100
AcDbEntity
  8
Layer_1
 62
7
100
AcDbLine
 10
595.849349
 20
196.092523
 30
0.0
 11
595.849349
 21
193.092523
 31
0.0
  0
LINE
  5
1f5
100
AcDbEntity
  8
Layer_1
 62
7
100
AcDbLine
 10
595.849349
 20
193.092523
 30
0.0
 11
595.849349
 21
193.092523
 31
0.0
  0
LINE
  5
1f6
100
AcDbEntity
  8
Layer_1
 62
7
100
AcDbLine
 10
560.849351
 20
196.092523
 30
0.0
 11
560.849351
 21
193.092523
 31
0.0
  0
LINE
  5
1f7
100
AcDbEntity
  8
Layer_1
 62
7
100
AcDbLine
 10
560.849351
 20
193.092523
 30
0.0
 11
580.849351
 21
193.092523
 31
0.0
  0
LINE
  5
1f8
100
AcDbEntity
  8
Layer_1
 62
7
100
AcDbLine
 10
580.849351
 20
193.092523
 30
0.0
 11
580.849351
 21
196.092523
 31
0.0
  0
LINE
  5
1f9
100
AcDbEntity
  8
Layer_1
 62
7
100
AcDbLine
 10
580.849351
 20
196.092523
 30
0.0
 11
560.849351
 21
196.092523
 31
0.0
  0
LINE
  5
1fa
100
AcDbEntity
  8
Layer_1
 62
7
100
AcDbLine
 10
560.849351
 20
196.092523
 30
0.0
 11
560.849351
 21
196.092523
 31
0.0
  0
LINE
  5
1fb
100
AcDbEntity
  8
Layer_1
 62
7
100
AcDbLine
 10
615.849348
 20
53.092523
 30
0.0
 11
618.849342
 21
53.092523
 31
0.0
  0
LINE
  5
1fc
100
AcDbEntity
  8
Layer_1
 62
7
100
AcDbLine
 10
618.849342
 20
53.092523
 30
0.0
 11
618.849342
 21
38.092522
 31
0.0
  0
LINE
  5
1fd
100
AcDbEntity
  8
Layer_1
 62
7
100
AcDbLine
 10
618.849342
 20
38.092522
 30
0.0
 11
615.849348
 21
38.092522
 31
0.0
  0
LINE
  5
1fe
100
AcDbEntity
  8
Layer_1
 62
7
100
AcDbLine
 10
615.849348
 20
153.092524
 30
0.0
 11
618.849342
 21
153.092524
 31
0.0
  0
LINE
  5
1ff
100
AcDbEntity
  8
Layer_1
 62
7
100
AcDbLine
 10
618.849342
 20
153.092524
 30
0.0
 11
618.849342
 21
138.092523
 31
0.0
  0
LINE
  5
200
100
AcDbEntity
  8
Layer_1
 62
7
100
AcDbLine
 10
618.849342
 20
138.092523
 30
0.0
 11
615.849348
 21
138.092523
 31
0.0
  0
LINE
  5
201
100
AcDbEntity
  8
Layer_1
 62
7
100
AcDbLine
 10
615.849348
 20
-4.907476
 30
0.0
 11
615.849348
 21
38.092522
 31
0.0
  0
LINE
  5
202
100
AcDbEntity
  8
Layer_1
 62
7
100
AcDbLine
 10
615.849348
 20
53.092523
 30
0.0
 11
615.849348
 21
138.092523
 31
0.0
  0
LINE
  5
203
100
AcDbEntity
  8
Layer_1
 62
7
100
AcDbLine
 10
615.849348
 20
153.092524
 30
0.0
 11
615.849348
 21
196.092523
 31
0.0
  0
LINE
  5
204
100
AcDbEntity
  8
Layer_1
 62
1
100
AcDbLine
 10
542.173758
 20
-165.389476
 30
0.0
 11
235.173751
 21
-165.389476
 31
0.0
  0
LINE
  5
205
100
AcDbEntity
  8
Layer_1
 62
1
100
AcDbLine
 10
235.173751
 20
-165.389476
 30
0.0
 11
235.173751
 21
45.610522
 31
0.0
  0
LINE
  5
206
100
AcDbEntity
  8
Layer_1
 62
1
100
AcDbLine
 10
235.173751
 20
45.610522
 30
0.0
 11
542.173758
 21
45.610522
 31
0.0
  0
LINE
  5
207
100
AcDbEntity
  8
Layer_1
 62
1
100
AcDbLine
 10
542.173758
 20
45.610522
 30
0.0
 11
542.173758
 21
-165.389476
 31
0.0
  0
LINE
  5
208
100
AcDbEntity
  8
Layer_1
 62
1
100
AcDbLine
 10
542.173758
 20
-165.389476
 30
0.0
 11
542.173758
 21
-165.389476
 31
0.0
  0
LINE
  5
209
100
AcDbEntity
  8
Layer_1
 62
7
100
AcDbLine
 10
238.173751
 20
-145.389477
 30
0.0
 11
235.173751
 21
-145.389477
 31
0.0
  0
LINE
  5
20a
100
AcDbEntity
  8
Layer_1
 62
7
100
AcDbLine
 10
235.173751
 20
-145.389477
 30
0.0
 11
235.173751
 21
-95.389478
 31
0.0
  0
LINE
  5
20b
100
AcDbEntity
  8
Layer_1
 62
7
100
AcDbLine
 10
235.173751
 20
-95.389478
 30
0.0
 11
238.173751
 21
-95.389478
 31
0.0
  0
LINE
  5
20c
100
AcDbEntity
  8
Layer_1
 62
7
100
AcDbLine
 10
238.173751
 20
-95.389478
 30
0.0
 11
238.173751
 21
-145.389477
 31
0.0
  0
LINE
  5
20d
100
AcDbEntity
  8
Layer_1
 62
7
100
AcDbLine
 10
238.173751
 20
-145.389477
 30
0.0
 11
238.173751
 21
-145.389477
 31
0.0
  0
LINE
  5
20e
100
AcDbEntity
  8
Layer_1
 62
7
100
AcDbLine
 10
235.173751
 20
-24.389479
 30
0.0
 11
238.173751
 21
-24.389479
 31
0.0
  0
LINE
  5
20f
100
AcDbEntity
  8
Layer_1
 62
7
100
AcDbLine
 10
238.173751
 20
-24.389479
 30
0.0
 11
238.173751
 21
25.610523
 31
0.0
  0
LINE
  5
210
100
AcDbEntity
  8
Layer_1
 62
7
100
AcDbLine
 10
238.173751
 20
25.610523
 30
0.0
 11
235.173751
 21
25.610523
 31
0.0
  0
LINE
  5
211
100
AcDbEntity
  8
Layer_1
 62
7
100
AcDbLine
 10
235.173751
 20
25.610523
 30
0.0
 11
235.173751
 21
-24.389479
 31
0.0
  0
LINE
  5
212
100
AcDbEntity
  8
Layer_1
 62
7
100
AcDbLine
 10
235.173751
 20
-24.389479
 30
0.0
 11
235.173751
 21
-24.389479
 31
0.0
  0
LINE
  5
213
100
AcDbEntity
  8
Layer_1
 62
7
100
AcDbLine
 10
542.173758
 20
-145.389477
 30
0.0
 11
542.173758
 21
-95.389478
 31
0.0
  0
LINE
  5
214
100
AcDbEntity
  8
Layer_1
 62
7
100
AcDbLine
 10
542.173758
 20
-95.389478
 30
0.0
 11
539.173764
 21
-95.389478
 31
0.0
  0
LINE
  5
215
100
AcDbEntity
  8
Layer_1
 62
7
100
AcDbLine
 10
539.173764
 20
-95.389478
 30
0.0
 11
539.173764
 21
-145.389477
 31
0.0
  0
LINE
  5
216
100
AcDbEntity
  8
Layer_1
 62
7
100
AcDbLine
 10
539.173764
 20
-145.389477
 30
0.0
 11
542.173758
 21
-145.389477
 31
0.0
  0
LINE
  5
217
100
AcDbEntity
  8
Layer_1
 62
7
100
AcDbLine
 10
542.173758
 20
-145.389477
 30
0.0
 11
542.173758
 21
-145.389477
 31
0.0
  0
LINE
  5
218
100
AcDbEntity
  8
Layer_1
 62
7
100
AcDbLine
 10
539.173764
 20
-24.389479
 30
0.0
 11
539.173764
 21
25.610523
 31
0.0
  0
LINE
  5
219
100
AcDbEntity
  8
Layer_1
 62
7
100
AcDbLine
 10
539.173764
 20
25.610523
 30
0.0
 11
542.173758
 21
25.610523
 31
0.0
  0
LINE
  5
21a
100
AcDbEntity
  8
Layer_1
 62
7
100
AcDbLine
 10
542.173758
 20
25.610523
 30
0.0
 11
542.173758
 21
-24.389479
 31
0.0
  0
LINE
  5
21b
100
AcDbEntity
  8
Layer_1
 62
7
100
AcDbLine
 10
542.173758
 20
-24.389479
 30
0.0
 11
539.173764
 21
-24.389479
 31
0.0
  0
LINE
  5
21c
100
AcDbEntity
  8
Layer_1
 62
7
100
AcDbLine
 10
539.173764
 20
-24.389479
 30
0.0
 11
539.173764
 21
-24.389479
 31
0.0
  0
LINE
  5
21d
100
AcDbEntity
  8
Layer_1
 62
7
100
AcDbLine
 10
305.173753
 20
-165.389476
 30
0.0
 11
255.173751
 21
-165.389476
 31
0.0
  0
LINE
  5
21e
100
AcDbEntity
  8
Layer_1
 62
7
100
AcDbLine
 10
255.173751
 20
-165.389476
 30
0.0
 11
255.173751
 21
-162.389482
 31
0.0
  0
LINE
  5
21f
100
AcDbEntity
  8
Layer_1
 62
7
100
AcDbLine
 10
255.173751
 20
-162.389482
 30
0.0
 11
305.173753
 21
-162.389482
 31
0.0
  0
LINE
  5
220
100
AcDbEntity
  8
Layer_1
 62
7
100
AcDbLine
 10
305.173753
 20
-162.389482
 30
0.0
 11
305.173753
 21
-165.389476
 31
0.0
  0
LINE
  5
221
100
AcDbEntity
  8
Layer_1
 62
7
100
AcDbLine
 10
305.173753
 20
-165.389476
 30
0.0
 11
305.173753
 21
-165.389476
 31
0.0
  0
LINE
  5
222
100
AcDbEntity
  8
Layer_1
 62
7
100
AcDbLine
 10
522.173742
 20
-162.389482
 30
0.0
 11
472.173752
 21
-162.389482
 31
0.0
  0
LINE
  5
223
100
AcDbEntity
  8
Layer_1
 62
7
100
AcDbLine
 10
472.173752
 20
-162.389482
 30
0.0
 11
472.173752
 21
-165.389476
 31
0.0
  0
LINE
  5
224
100
AcDbEntity
  8
Layer_1
 62
7
100
AcDbLine
 10
472.173752
 20
-165.389476
 30
0.0
 11
522.173742
 21
-165.389476
 31
0.0
  0
LINE
  5
225
100
AcDbEntity
  8
Layer_1
 62
7
100
AcDbLine
 10
522.173742
 20
-165.389476
 30
0.0
 11
522.173742
 21
-162.389482
 31
0.0
  0
LINE
  5
226
100
AcDbEntity
  8
Layer_1
 62
7
100
AcDbLine
 10
522.173742
 20
-162.389482
 30
0.0
 11
522.173742
 21
-162.389482
 31
0.0
  0
LINE
  5
227
100
AcDbEntity
  8
Layer_1
 62
1
100
AcDbLine
 10
235.173751
 20
45.610522
 30
0.0
 11
542.173758
 21
45.610522
 31
0.0
  0
LINE
  5
228
100
AcDbEntity
  8
Layer_1
 62
7
100
AcDbLine
 10
305.173753
 20
45.610522
 30
0.0
 11
255.173751
 21
45.610522
 31
0.0
  0
LINE
  5
229
100
AcDbEntity
  8
Layer_1
 62
7
100
AcDbLine
 10
255.173751
 20
45.610522
 30
0.0
 11
255.173751
 21
42.610523
 31
0.0
  0
LINE
  5
22a
100
AcDbEntity
  8
Layer_1
 62
7
100
AcDbLine
 10
255.173751
 20
42.610523
 30
0.0
 11
305.173753
 21
42.610523
 31
0.0
  0
LINE
  5
22b
100
AcDbEntity
  8
Layer_1
 62
7
100
AcDbLine
 10
305.173753
 20
42.610523
 30
0.0
 11
305.173753
 21
45.610522
 31
0.0
  0
LINE
  5
22c
100
AcDbEntity
  8
Layer_1
 62
7
100
AcDbLine
 10
305.173753
 20
45.610522
 30
0.0
 11
305.173753
 21
45.610522
 31
0.0
  0
LINE
  5
22d
100
AcDbEntity
  8
Layer_1
 62
7
100
AcDbLine
 10
522.173742
 20
45.610522
 30
0.0
 11
522.173742
 21
42.610523
 31
0.0
  0
LINE
  5
22e
100
AcDbEntity
  8
Layer_1
 62
7
100
AcDbLine
 10
522.173742
 20
42.610523
 30
0.0
 11
472.173752
 21
42.610523
 31
0.0
  0
LINE
  5
22f
100
AcDbEntity
  8
Layer_1
 62
7
100
AcDbLine
 10
472.173752
 20
42.610523
 30
0.0
 11
472.173752
 21
45.610522
 31
0.0
  0
LINE
  5
230
100
AcDbEntity
  8
Layer_1
 62
7
100
AcDbLine
 10
472.173752
 20
45.610522
 30
0.0
 11
522.173742
 21
45.610522
 31
0.0
  0
LINE
  5
231
100
AcDbEntity
  8
Layer_1
 62
7
100
AcDbLine
 10
522.173742
 20
45.610522
 30
0.0
 11
522.173742
 21
45.610522
 31
0.0
  0
LINE
  5
232
100
AcDbEntity
  8
Layer_1
 62
1
100
AcDbLine
 10
730.906398
 20
399.955731
 30
0.0
 11
730.906398
 21
92.955725
 31
0.0
  0
LINE
  5
233
100
AcDbEntity
  8
Layer_1
 62
1
100
AcDbLine
 10
730.906398
 20
92.955725
 30
0.0
 11
760.906397
 21
92.955725
 31
0.0
  0
LINE
  5
234
100
AcDbEntity
  8
Layer_1
 62
1
100
AcDbLine
 10
760.906397
 20
92.955725
 30
0.0
 11
760.906397
 21
399.955731
 31
0.0
  0
LINE
  5
235
100
AcDbEntity
  8
Layer_1
 62
1
100
AcDbLine
 10
760.906397
 20
399.955731
 30
0.0
 11
730.906398
 21
399.955731
 31
0.0
  0
LINE
  5
236
100
AcDbEntity
  8
Layer_1
 62
7
100
AcDbLine
 10
760.906397
 20
399.955731
 30
0.0
 11
760.906397
 21
379.955731
 31
0.0
  0
LINE
  5
237
100
AcDbEntity
  8
Layer_1
 62
7
100
AcDbLine
 10
760.906397
 20
379.955731
 30
0.0
 11
757.906398
 21
379.955731
 31
0.0
  0
LINE
  5
238
100
AcDbEntity
  8
Layer_1
 62
7
100
AcDbLine
 10
757.906398
 20
379.955731
 30
0.0
 11
757.906398
 21
399.955731
 31
0.0
  0
LINE
  5
239
100
AcDbEntity
  8
Layer_1
 62
7
100
AcDbLine
 10
757.906398
 20
399.955731
 30
0.0
 11
760.906397
 21
399.955731
 31
0.0
  0
LINE
  5
23a
100
AcDbEntity
  8
Layer_1
 62
7
100
AcDbLine
 10
760.906397
 20
92.955725
 30
0.0
 11
760.906397
 21
112.955741
 31
0.0
  0
LINE
  5
23b
100
AcDbEntity
  8
Layer_1
 62
7
100
AcDbLine
 10
760.906397
 20
112.955741
 30
0.0
 11
757.906398
 21
112.955741
 31
0.0
  0
LINE
  5
23c
100
AcDbEntity
  8
Layer_1
 62
7
100
AcDbLine
 10
757.906398
 20
112.955741
 30
0.0
 11
757.906398
 21
92.955725
 31
0.0
  0
LINE
  5
23d
100
AcDbEntity
  8
Layer_1
 62
7
100
AcDbLine
 10
757.906398
 20
92.955725
 30
0.0
 11
760.906397
 21
92.955725
 31
0.0
  0
LINE
  5
23e
100
AcDbEntity
  8
Layer_1
 62
7
100
AcDbLine
 10
760.906397
 20
162.955731
 30
0.0
 11
760.906397
 21
329.955730
 31
0.0
  0
LINE
  5
23f
100
AcDbEntity
  8
Layer_1
 62
7
100
AcDbLine
 10
760.906397
 20
329.955730
 30
0.0
 11
757.906398
 21
329.955730
 31
0.0
  0
LINE
  5
240
100
AcDbEntity
  8
Layer_1
 62
7
100
AcDbLine
 10
757.906398
 20
329.955730
 30
0.0
 11
757.906398
 21
162.955731
 31
0.0
  0
LINE
  5
241
100
AcDbEntity
  8
Layer_1
 62
7
100
AcDbLine
 10
757.906398
 20
162.955731
 30
0.0
 11
760.906397
 21
162.955731
 31
0.0
  0
LINE
  5
242
100
AcDbEntity
  8
Layer_1
 62
7
100
AcDbLine
 10
760.906397
 20
162.955731
 30
0.0
 11
760.906397
 21
162.955731
 31
0.0
  0
LINE
  5
243
100
AcDbEntity
  8
Layer_1
 62
7
100
AcDbLine
 10
730.906398
 20
396.955732
 30
0.0
 11
730.906398
 21
399.955731
 31
0.0
  0
LINE
  5
244
100
AcDbEntity
  8
Layer_1
 62
7
100
AcDbLine
 10
730.906398
 20
399.955731
 30
0.0
 11
745.906396
 21
399.955731
 31
0.0
  0
LINE
  5
245
100
AcDbEntity
  8
Layer_1
 62
7
100
AcDbLine
 10
745.906396
 20
399.955731
 30
0.0
 11
745.906396
 21
396.955732
 31
0.0
  0
LINE
  5
246
100
AcDbEntity
  8
Layer_1
 62
7
100
AcDbLine
 10
745.906396
 20
396.955732
 30
0.0
 11
730.906398
 21
396.955732
 31
0.0
  0
LINE
  5
247
100
AcDbEntity
  8
Layer_1
 62
7
100
AcDbLine
 10
730.906398
 20
396.955732
 30
0.0
 11
730.906398
 21
396.955732
 31
0.0
  0
LINE
  5
248
100
AcDbEntity
  8
Layer_1
 62
7
100
AcDbLine
 10
730.906398
 20
92.955725
 30
0.0
 11
730.906398
 21
95.955719
 31
0.0
  0
LINE
  5
249
100
AcDbEntity
  8
Layer_1
 62
7
100
AcDbLine
 10
730.906398
 20
95.955719
 30
0.0
 11
745.906396
 21
95.955719
 31
0.0
  0
LINE
  5
24a
100
AcDbEntity
  8
Layer_1
 62
7
100
AcDbLine
 10
745.906396
 20
95.955719
 30
0.0
 11
745.906396
 21
92.955725
 31
0.0
  0
LINE
  5
24b
100
AcDbEntity
  8
Layer_1
 62
7
100
AcDbLine
 10
745.906396
 20
92.955725
 30
0.0
 11
730.906398
 21
92.955725
 31
0.0
  0
LINE
  5
24c
100
AcDbEntity
  8
Layer_1
 62
1
100
AcDbLine
 10
697.299150
 20
188.955733
 30
0.0
 11
697.299150
 21
399.955731
 31
0.0
  0
LINE
  5
24d
100
AcDbEntity
  8
Layer_1
 62
1
100
AcDbLine
 10
697.299150
 20
399.955731
 30
0.0
 11
727.299149
 21
399.955731
 31
0.0
  0
LINE
  5
24e
100
AcDbEntity
  8
Layer_1
 62
1
100
AcDbLine
 10
727.299149
 20
399.955731
 30
0.0
 11
727.299149
 21
188.955733
 31
0.0
  0
LINE
  5
24f
100
AcDbEntity
  8
Layer_1
 62
1
100
AcDbLine
 10
727.299149
 20
188.955733
 30
0.0
 11
697.299150
 21
188.955733
 31
0.0
  0
LINE
  5
250
100
AcDbEntity
  8
Layer_1
 62
1
100
AcDbLine
 10
697.299150
 20
188.955733
 30
0.0
 11
697.299150
 21
191.955733
 31
0.0
  0
LINE
  5
251
100
AcDbEntity
  8
Layer_1
 62
1
100
AcDbLine
 10
697.299150
 20
191.955733
 30
0.0
 11
712.299148
 21
191.955733
 31
0.0
  0
LINE
  5
252
100
AcDbEntity
  8
Layer_1
 62
1
100
AcDbLine
 10
712.299148
 20
191.955733
 30
0.0
 11
712.299148
 21
188.955733
 31
0.0
  0
LINE
  5
253
100
AcDbEntity
  8
Layer_1
 62
1
100
AcDbLine
 10
712.299148
 20
188.955733
 30
0.0
 11
697.299150
 21
188.955733
 31
0.0
  0
LINE
  5
254
100
AcDbEntity
  8
Layer_1
 62
1
100
AcDbLine
 10
697.299150
 20
188.955733
 30
0.0
 11
697.299150
 21
208.955732
 31
0.0
  0
LINE
  5
255
100
AcDbEntity
  8
Layer_1
 62
1
100
AcDbLine
 10
697.299150
 20
208.955732
 30
0.0
 11
700.299144
 21
208.955732
 31
0.0
  0
LINE
  5
256
100
AcDbEntity
  8
Layer_1
 62
1
100
AcDbLine
 10
700.299144
 20
208.955732
 30
0.0
 11
700.299144
 21
188.955733
 31
0.0
  0
LINE
  5
257
100
AcDbEntity
  8
Layer_1
 62
1
100
AcDbLine
 10
700.299144
 20
188.955733
 30
0.0
 11
697.299150
 21
188.955733
 31
0.0
  0
LINE
  5
258
100
AcDbEntity
  8
Layer_1
 62
1
100
AcDbLine
 10
697.299150
 20
188.955733
 30
0.0
 11
697.299150
 21
188.955733
 31
0.0
  0
LINE
  5
259
100
AcDbEntity
  8
Layer_1
 62
7
100
AcDbLine
 10
697.299150
 20
396.955732
 30
0.0
 11
697.299150
 21
399.955731
 31
0.0
  0
LINE
  5
25a
100
AcDbEntity
  8
Layer_1
 62
7
100
AcDbLine
 10
697.299150
 20
399.955731
 30
0.0
 11
712.299148
 21
399.955731
 31
0.0
  0
LINE
  5
25b
100
AcDbEntity
  8
Layer_1
 62
7
100
AcDbLine
 10
712.299148
 20
399.955731
 30
0.0
 11
712.299148
 21
396.955732
 31
0.0
  0
LINE
  5
25c
100
AcDbEntity
  8
Layer_1
 62
7
100
AcDbLine
 10
712.299148
 20
396.955732
 30
0.0
 11
697.299150
 21
396.955732
 31
0.0
  0
LINE
  5
25d
100
AcDbEntity
  8
Layer_1
 62
7
100
AcDbLine
 10
697.299150
 20
396.955732
 30
0.0
 11
697.299150
 21
396.955732
 31
0.0
  0
LINE
  5
25e
100
AcDbEntity
  8
Layer_1
 62
7
100
AcDbLine
 10
697.299150
 20
379.955731
 30
0.0
 11
697.299150
 21
399.955731
 31
0.0
  0
LINE
  5
25f
100
AcDbEntity
  8
Layer_1
 62
7
100
AcDbLine
 10
697.299150
 20
399.955731
 30
0.0
 11
700.299144
 21
399.955731
 31
0.0
  0
LINE
  5
260
100
AcDbEntity
  8
Layer_1
 62
7
100
AcDbLine
 10
700.299144
 20
399.955731
 30
0.0
 11
700.299144
 21
379.955731
 31
0.0
  0
LINE
  5
261
100
AcDbEntity
  8
Layer_1
 62
7
100
AcDbLine
 10
700.299144
 20
379.955731
 30
0.0
 11
697.299150
 21
379.955731
 31
0.0
  0
LINE
  5
262
100
AcDbEntity
  8
Layer_1
 62
7
100
AcDbLine
 10
697.299150
 20
379.955731
 30
0.0
 11
697.299150
 21
379.955731
 31
0.0
  0
LINE
  5
263
100
AcDbEntity
  8
Layer_1
 62
7
100
AcDbLine
 10
697.299150
 20
258.955731
 30
0.0
 11
697.299150
 21
329.955730
 31
0.0
  0
LINE
  5
264
100
AcDbEntity
  8
Layer_1
 62
7
100
AcDbLine
 10
697.299150
 20
329.955730
 30
0.0
 11
700.299144
 21
329.955730
 31
0.0
  0
LINE
  5
265
100
AcDbEntity
  8
Layer_1
 62
7
100
AcDbLine
 10
700.299144
 20
329.955730
 30
0.0
 11
700.299144
 21
258.955731
 31
0.0
  0
LINE
  5
266
100
AcDbEntity
  8
Layer_1
 62
7
100
AcDbLine
 10
700.299144
 20
258.955731
 30
0.0
 11
697.299150
 21
258.955731
 31
0.0
  0
LINE
  5
267
100
AcDbEntity
  8
Layer_1
 62
7
100
AcDbLine
 10
697.299150
 20
258.955731
 30
0.0
 11
697.299150
 21
258.955731
 31
0.0
  0
LINE
  5
268
100
AcDbEntity
  8
Layer_1
 62
1
100
AcDbLine
 10
727.546351
 20
-120.859901
 30
0.0
 11
727.546351
 21
186.140106
 31
0.0
  0
LINE
  5
269
100
AcDbEntity
  8
Layer_1
 62
1
100
AcDbLine
 10
727.546351
 20
186.140106
 30
0.0
 11
697.546351
 21
186.140106
 31
0.0
  0
LINE
  5
26a
100
AcDbEntity
  8
Layer_1
 62
1
100
AcDbLine
 10
697.546351
 20
186.140106
 30
0.0
 11
697.546351
 21
-120.859901
 31
0.0
  0
LINE
  5
26b
100
AcDbEntity
  8
Layer_1
 62
1
100
AcDbLine
 10
697.546351
 20
-120.859901
 30
0.0
 11
727.546351
 21
-120.859901
 31
0.0
  0
LINE
  5
26c
100
AcDbEntity
  8
Layer_1
 62
7
100
AcDbLine
 10
697.546351
 20
-120.859901
 30
0.0
 11
697.546351
 21
-100.859901
 31
0.0
  0
LINE
  5
26d
100
AcDbEntity
  8
Layer_1
 62
7
100
AcDbLine
 10
697.546351
 20
-100.859901
 30
0.0
 11
700.546351
 21
-100.859901
 31
0.0
  0
LINE
  5
26e
100
AcDbEntity
  8
Layer_1
 62
7
100
AcDbLine
 10
700.546351
 20
-100.859901
 30
0.0
 11
700.546351
 21
-120.859901
 31
0.0
  0
LINE
  5
26f
100
AcDbEntity
  8
Layer_1
 62
7
100
AcDbLine
 10
700.546351
 20
-120.859901
 30
0.0
 11
697.546351
 21
-120.859901
 31
0.0
  0
LINE
  5
270
100
AcDbEntity
  8
Layer_1
 62
7
100
AcDbLine
 10
697.546351
 20
186.140106
 30
0.0
 11
697.546351
 21
166.140090
 31
0.0
  0
LINE
  5
271
100
AcDbEntity
  8
Layer_1
 62
7
100
AcDbLine
 10
697.546351
 20
166.140090
 30
0.0
 11
700.546351
 21
166.140090
 31
0.0
  0
LINE
  5
272
100
AcDbEntity
  8
Layer_1
 62
7
100
AcDbLine
 10
700.546351
 20
166.140090
 30
0.0
 11
700.546351
 21
186.140106
 31
0.0
  0
LINE
  5
273
100
AcDbEntity
  8
Layer_1
 62
7
100
AcDbLine
 10
700.546351
 20
186.140106
 30
0.0
 11
697.546351
 21
186.140106
 31
0.0
  0
LINE
  5
274
100
AcDbEntity
  8
Layer_1
 62
7
100
AcDbLine
 10
697.546351
 20
116.140099
 30
0.0
 11
697.546351
 21
-50.859900
 31
0.0
  0
LINE
  5
275
100
AcDbEntity
  8
Layer_1
 62
7
100
AcDbLine
 10
697.546351
 20
-50.859900
 30
0.0
 11
700.546351
 21
-50.859900
 31
0.0
  0
LINE
  5
276
100
AcDbEntity
  8
Layer_1
 62
7
100
AcDbLine
 10
700.546351
 20
-50.859900
 30
0.0
 11
700.546351
 21
116.140099
 31
0.0
  0
LINE
  5
277
100
AcDbEntity
  8
Layer_1
 62
7
100
AcDbLine
 10
700.546351
 20
116.140099
 30
0.0
 11
697.546351
 21
116.140099
 31
0.0
  0
LINE
  5
278
100
AcDbEntity
  8
Layer_1
 62
7
100
AcDbLine
 10
697.546351
 20
116.140099
 30
0.0
 11
697.546351
 21
116.140099
 31
0.0
  0
LINE
  5
279
100
AcDbEntity
  8
Layer_1
 62
7
100
AcDbLine
 10
727.546351
 20
-117.859901
 30
0.0
 11
727.546351
 21
-120.859901
 31
0.0
  0
LINE
  5
27a
100
AcDbEntity
  8
Layer_1
 62
7
100
AcDbLine
 10
727.546351
 20
-120.859901
 30
0.0
 11
712.546352
 21
-120.859901
 31
0.0
  0
LINE
  5
27b
100
AcDbEntity
  8
Layer_1
 62
7
100
AcDbLine
 10
712.546352
 20
-120.859901
 30
0.0
 11
712.546352
 21
-117.859901
 31
0.0
  0
LINE
  5
27c
100
AcDbEntity
  8
Layer_1
 62
7
100
AcDbLine
 10
712.546352
 20
-117.859901
 30
0.0
 11
727.546351
 21
-117.859901
 31
0.0
  0
LINE
  5
27d
100
AcDbEntity
  8
Layer_1
 62
7
100
AcDbLine
 10
727.546351
 20
-117.859901
 30
0.0
 11
727.546351
 21
-117.859901
 31
0.0
  0
LINE
  5
27e
100
AcDbEntity
  8
Layer_1
 62
7
100
AcDbLine
 10
727.546351
 20
186.140106
 30
0.0
 11
727.546351
 21
183.140112
 31
0.0
  0
LINE
  5
27f
100
AcDbEntity
  8
Layer_1
 62
7
100
AcDbLine
 10
727.546351
 20
183.140112
 30
0.0
 11
712.546352
 21
183.140112
 31
0.0
  0
LINE
  5
280
100
AcDbEntity
  8
Layer_1
 62
7
100
AcDbLine
 10
712.546352
 20
183.140112
 30
0.0
 11
712.546352
 21
186.140106
 31
0.0
  0
LINE
  5
281
100
AcDbEntity
  8
Layer_1
 62
7
100
AcDbLine
 10
712.546352
 20
186.140106
 30
0.0
 11
727.546351
 21
186.140106
 31
0.0
  0
LINE
  5
282
100
AcDbEntity
  8
Layer_1
 62
1
100
AcDbLine
 10
761.153599
 20
90.140098
 30
0.0
 11
761.153599
 21
-120.859901
 31
0.0
  0
LINE
  5
283
100
AcDbEntity
  8
Layer_1
 62
1
100
AcDbLine
 10
761.153599
 20
-120.859901
 30
0.0
 11
731.153599
 21
-120.859901
 31
0.0
  0
LINE
  5
284
100
AcDbEntity
  8
Layer_1
 62
1
100
AcDbLine
 10
731.153599
 20
-120.859901
 30
0.0
 11
731.153599
 21
90.140098
 31
0.0
  0
LINE
  5
285
100
AcDbEntity
  8
Layer_1
 62
1
100
AcDbLine
 10
731.153599
 20
90.140098
 30
0.0
 11
761.153599
 21
90.140098
 31
0.0
  0
LINE
  5
286
100
AcDbEntity
  8
Layer_1
 62
1
100
AcDbLine
 10
761.153599
 20
90.140098
 30
0.0
 11
761.153599
 21
87.140098
 31
0.0
  0
LINE
  5
287
100
AcDbEntity
  8
Layer_1
 62
1
100
AcDbLine
 10
761.153599
 20
87.140098
 30
0.0
 11
746.153600
 21
87.140098
 31
0.0
  0
LINE
  5
288
100
AcDbEntity
  8
Layer_1
 62
1
100
AcDbLine
 10
746.153600
 20
87.140098
 30
0.0
 11
746.153600
 21
90.140098
 31
0.0
  0
LINE
  5
289
100
AcDbEntity
  8
Layer_1
 62
1
100
AcDbLine
 10
746.153600
 20
90.140098
 30
0.0
 11
761.153599
 21
90.140098
 31
0.0
  0
LINE
  5
28a
100
AcDbEntity
  8
Layer_1
 62
1
100
AcDbLine
 10
761.153599
 20
90.140098
 30
0.0
 11
761.153599
 21
70.140098
 31
0.0
  0
LINE
  5
28b
100
AcDbEntity
  8
Layer_1
 62
1
100
AcDbLine
 10
761.153599
 20
70.140098
 30
0.0
 11
758.153605
 21
70.140098
 31
0.0
  0
LINE
  5
28c
100
AcDbEntity
  8
Layer_1
 62
1
100
AcDbLine
 10
758.153605
 20
70.140098
 30
0.0
 11
758.153605
 21
90.140098
 31
0.0
  0
LINE
  5
28d
100
AcDbEntity
  8
Layer_1
 62
1
100
AcDbLine
 10
758.153605
 20
90.140098
 30
0.0
 11
761.153599
 21
90.140098
 31
0.0
  0
LINE
  5
28e
100
AcDbEntity
  8
Layer_1
 62
1
100
AcDbLine
 10
761.153599
 20
90.140098
 30
0.0
 11
761.153599
 21
90.140098
 31
0.0
  0
LINE
  5
28f
100
AcDbEntity
  8
Layer_1
 62
7
100
AcDbLine
 10
761.153599
 20
-117.859901
 30
0.0
 11
761.153599
 21
-120.859901
 31
0.0
  0
LINE
  5
290
100
AcDbEntity
  8
Layer_1
 62
7
100
AcDbLine
 10
761.153599
 20
-120.859901
 30
0.0
 11
746.153600
 21
-120.859901
 31
0.0
  0
LINE
  5
291
100
AcDbEntity
  8
Layer_1
 62
7
100
AcDbLine
 10
746.153600
 20
-120.859901
 30
0.0
 11
746.153600
 21
-117.859901
 31
0.0
  0
LINE
  5
292
100
AcDbEntity
  8
Layer_1
 62
7
100
AcDbLine
 10
746.153600
 20
-117.859901
 30
0.0
 11
761.153599
 21
-117.859901
 31
0.0
  0
LINE
  5
293
100
AcDbEntity
  8
Layer_1
 62
7
100
AcDbLine
 10
761.153599
 20
-117.859901
 30
0.0
 11
761.153599
 21
-117.859901
 31
0.0
  0
LINE
  5
294
100
AcDbEntity
  8
Layer_1
 62
7
100
AcDbLine
 10
761.153599
 20
-100.859901
 30
0.0
 11
761.153599
 21
-120.859901
 31
0.0
  0
LINE
  5
295
100
AcDbEntity
  8
Layer_1
 62
7
100
AcDbLine
 10
761.153599
 20
-120.859901
 30
0.0
 11
758.153605
 21
-120.859901
 31
0.0
  0
LINE
  5
296
100
AcDbEntity
  8
Layer_1
 62
7
100
AcDbLine
 10
758.153605
 20
-120.859901
 30
0.0
 11
758.153605
 21
-100.859901
 31
0.0
  0
LINE
  5
297
100
AcDbEntity
  8
Layer_1
 62
7
100
AcDbLine
 10
758.153605
 20
-100.859901
 30
0.0
 11
761.153599
 21
-100.859901
 31
0.0
  0
LINE
  5
298
100
AcDbEntity
  8
Layer_1
 62
7
100
AcDbLine
 10
761.153599
 20
-100.859901
 30
0.0
 11
761.153599
 21
-100.859901
 31
0.0
  0
LINE
  5
299
100
AcDbEntity
  8
Layer_1
 62
7
100
AcDbLine
 10
761.153599
 20
20.140100
 30
0.0
 11
761.153599
 21
-50.859900
 31
0.0
  0
LINE
  5
29a
100
AcDbEntity
  8
Layer_1
 62
7
100
AcDbLine
 10
761.153599
 20
-50.859900
 30
0.0
 11
758.153605
 21
-50.859900
 31
0.0
  0
LINE
  5
29b
100
AcDbEntity
  8
Layer_1
 62
7
100
AcDbLine
 10
758.153605
 20
-50.859900
 30
0.0
 11
758.153605
 21
20.140100
 31
0.0
  0
LINE
  5
29c
100
AcDbEntity
  8
Layer_1
 62
7
100
AcDbLine
 10
758.153605
 20
20.140100
 30
0.0
 11
761.153599
 21
20.140100
 31
0.0
  0
LINE
  5
29d
100
AcDbEntity
  8
Layer_1
 62
7
100
AcDbLine
 10
761.153599
 20
20.140100
 30
0.0
 11
761.153599
 21
20.140100
 31
0.0
  0
SPLINE
  5
29e
100
AcDbEntity
  8
Layer_1
 62
7
100
AcDbSpline
 70
8
 71
3
 72
8
 73
4
 74
0
 40
0
 40
0
 40
0
 40
0
 40
1
 40
1
 40
1
 40
1
 10
283.768693
 20
-14.501081
 30
0.0
 10
282.015829
 20
-15.410589
 30
0.0
 10
280.188553
 20
-16.096850
 30
0.0
 10
278.286865
 20
-16.559864
 30
0.0
  0
SPLINE
  5
29f
100
AcDbEntity
  8
Layer_1
 62
7
100
AcDbSpline
 70
8
 71
3
 72
8
 73
4
 74
0
 40
0
 40
0
 40
0
 40
0
 40
1
 40
1
 40
1
 40
1
 10
278.286865
 20
-16.559864
 30
0.0
 10
276.385176
 20
-17.022896
 30
0.0
 10
274.400806
 20
-17.254413
 30
0.0
 10
272.333754
 20
-17.254413
 30
0.0
  0
SPLINE
  5
2a0
100
AcDbEntity
  8
Layer_1
 62
7
100
AcDbSpline
 70
8
 71
3
 72
8
 73
4
 74
0
 40
0
 40
0
 40
0
 40
0
 40
1
 40
1
 40
1
 40
1
 10
272.333754
 20
-17.254413
 30
0.0
 10
266.165637
 20
-17.254413
 30
0.0
 10
261.279109
 20
-15.534616
 30
0.0
 10
257.674172
 20
-12.095023
 30
0.0
  0
SPLINE
  5
2a1
100
AcDbEntity
  8
Layer_1
 62
7
100
AcDbSpline
 70
8
 71
3
 72
8
 73
4
 74
0
 40
0
 40
0
 40
0
 40
0
 40
1
 40
1
 40
1
 40
1
 10
257.674172
 20
-12.095023
 30
0.0
 10
254.069216
 20
-8.638911
 30
0.0
 10
252.266738
 20
-3.959093
 30
0.0
 10
252.266738
 20
1.944431
 30
0.0
  0
SPLINE
  5
2a2
100
AcDbEntity
  8
Layer_1
 62
7
100
AcDbSpline
 70
8
 71
3
 72
8
 73
4
 74
0
 40
0
 40
0
 40
0
 40
0
 40
1
 40
1
 40
1
 40
1
 10
252.266738
 20
1.944431
 30
0.0
 10
252.266738
 20
7.864477
 30
0.0
 10
254.069216
 20
12.544292
 30
0.0
 10
257.674172
 20
15.983875
 30
0.0
  0
SPLINE
  5
2a3
100
AcDbEntity
  8
Layer_1
 62
7
100
AcDbSpline
 70
8
 71
3
 72
8
 73
4
 74
0
 40
0
 40
0
 40
0
 40
0
 40
1
 40
1
 40
1
 40
1
 10
257.674172
 20
15.983875
 30
0.0
 10
261.279109
 20
19.439995
 30
0.0
 10
266.165637
 20
21.168055
 30
0.0
 10
272.333754
 20
21.168055
 30
0.0
  0
SPLINE
  5
2a4
100
AcDbEntity
  8
Layer_1
 62
7
100
AcDbSpline
 70
8
 71
3
 72
8
 73
4
 74
0
 40
0
 40
0
 40
0
 40
0
 40
1
 40
1
 40
1
 40
1
 10
272.333754
 20
21.168055
 30
0.0
 10
274.400806
 20
21.168055
 30
0.0
 10
276.385176
 20
20.936545
 30
0.0
 10
278.286865
 20
20.473525
 30
0.0
  0
SPLINE
  5
2a5
100
AcDbEntity
  8
Layer_1
 62
7
100
AcDbSpline
 70
8
 71
3
 72
8
 73
4
 74
0
 40
0
 40
0
 40
0
 40
0
 40
1
 40
1
 40
1
 40
1
 10
278.286865
 20
20.473525
 30
0.0
 10
280.188553
 20
20.010504
 30
0.0
 10
282.015829
 20
19.324240
 30
0.0
 10
283.768693
 20
18.414734
 30
0.0
  0
LINE
  5
2a6
100
AcDbEntity
  8
Layer_1
 62
7
100
AcDbLine
 10
283.768693
 20
18.414734
 30
0.0
 11
283.768693
 21
10.750086
 31
0.0
  0
SPLINE
  5
2a7
100
AcDbEntity
  8
Layer_1
 62
7
100
AcDbSpline
 70
8
 71
3
 72
8
 73
4
 74
0
 40
0
 40
0
 40
0
 40
0
 40
1
 40
1
 40
1
 40
1
 10
283.768693
 20
10.750086
 30
0.0
 10
281.999291
 20
11.957249
 30
0.0
 10
280.254697
 20
12.841950
 30
0.0
 10
278.534910
 20
13.404189
 30
0.0
  0
SPLINE
  5
2a8
100
AcDbEntity
  8
Layer_1
 62
7
100
AcDbSpline
 70
8
 71
3
 72
8
 73
4
 74
0
 40
0
 40
0
 40
0
 40
0
 40
1
 40
1
 40
1
 40
1
 10
278.534910
 20
13.404189
 30
0.0
 10
276.815123
 20
13.966428
 30
0.0
 10
275.004385
 20
14.247548
 30
0.0
 10
273.102697
 20
14.247548
 30
0.0
  0
SPLINE
  5
2a9
100
AcDbEntity
  8
Layer_1
 62
7
100
AcDbSpline
 70
8
 71
3
 72
8
 73
4
 74
0
 40
0
 40
0
 40
0
 40
0
 40
1
 40
1
 40
1
 40
1
 10
273.102697
 20
14.247548
 30
0.0
 10
269.696180
 20
14.247548
 30
0.0
 10
267.017270
 20
13.156142
 30
0.0
 10
265.065967
 20
10.973330
 30
0.0
  0
SPLINE
  5
2aa
100
AcDbEntity
  8
Layer_1
 62
7
100
AcDbSpline
 70
8
 71
3
 72
8
 73
4
 74
0
 40
0
 40
0
 40
0
 40
0
 40
1
 40
1
 40
1
 40
1
 10
265.065967
 20
10.973330
 30
0.0
 10
263.114664
 20
8.790516
 30
0.0
 10
262.139012
 20
5.780883
 30
0.0
 10
262.139012
 20
1.944431
 30
0.0
  0
SPLINE
  5
2ab
100
AcDbEntity
  8
Layer_1
 62
7
100
AcDbSpline
 70
8
 71
3
 72
8
 73
4
 74
0
 40
0
 40
0
 40
0
 40
0
 40
1
 40
1
 40
1
 40
1
 10
262.139012
 20
1.944431
 30
0.0
 10
262.139012
 20
-1.875503
 30
0.0
 10
263.114664
 20
-4.876870
 30
0.0
 10
265.065967
 20
-7.059671
 30
0.0
  0
SPLINE
  5
2ac
100
AcDbEntity
  8
Layer_1
 62
7
100
AcDbSpline
 70
8
 71
3
 72
8
 73
4
 74
0
 40
0
 40
0
 40
0
 40
0
 40
1
 40
1
 40
1
 40
1
 10
265.065967
 20
-7.059671
 30
0.0
 10
267.017270
 20
-9.242491
 30
0.0
 10
269.696180
 20
-10.333900
 30
0.0
 10
273.102697
 20
-10.333900
 30
0.0
  0
SPLINE
  5
2ad
100
AcDbEntity
  8
Layer_1
 62
7
100
AcDbSpline
 70
8
 71
3
 72
8
 73
4
 74
0
 40
0
 40
0
 40
0
 40
0
 40
1
 40
1
 40
1
 40
1
 10
273.102697
 20
-10.333900
 30
0.0
 10
275.004385
 20
-10.333900
 30
0.0
 10
276.815123
 20
-10.052779
 30
0.0
 10
278.534910
 20
-9.490536
 30
0.0
  0
SPLINE
  5
2ae
100
AcDbEntity
  8
Layer_1
 62
7
100
AcDbSpline
 70
8
 71
3
 72
8
 73
4
 74
0
 40
0
 40
0
 40
0
 40
0
 40
1
 40
1
 40
1
 40
1
 10
278.534910
 20
-9.490536
 30
0.0
 10
280.254697
 20
-8.928293
 30
0.0
 10
281.999291
 20
-8.043592
 30
0.0
 10
283.768693
 20
-6.836433
 30
0.0
  0
LINE
  5
2af
100
AcDbEntity
  8
Layer_1
 62
7
100
AcDbLine
 10
283.768693
 20
-6.836433
 30
0.0
 11
283.768693
 21
-14.501081
 31
0.0
  0
LINE
  5
2b0
100
AcDbEntity
  8
Layer_1
 62
7
100
AcDbLine
 10
283.768693
 20
-14.501081
 30
0.0
 11
283.768693
 21
-14.501081
 31
0.0
  0
SPLINE
  5
2b1
100
AcDbEntity
  8
Layer_1
 62
7
100
AcDbSpline
 70
8
 71
3
 72
8
 73
4
 74
0
 40
0
 40
0
 40
0
 40
0
 40
1
 40
1
 40
1
 40
1
 10
303.761287
 20
-4.033515
 30
0.0
 10
301.909194
 20
-4.033515
 30
0.0
 10
300.511865
 20
-4.347704
 30
0.0
 10
299.569299
 20
-4.976081
 30
0.0
  0
SPLINE
  5
2b2
100
AcDbEntity
  8
Layer_1
 62
7
100
AcDbSpline
 70
8
 71
3
 72
8
 73
4
 74
0
 40
0
 40
0
 40
0
 40
0
 40
1
 40
1
 40
1
 40
1
 10
299.569299
 20
-4.976081
 30
0.0
 10
298.643253
 20
-5.604477
 30
0.0
 10
298.180229
 20
-6.530523
 30
0.0
 10
298.180229
 20
-7.754220
 30
0.0
  0
SPLINE
  5
2b3
100
AcDbEntity
  8
Layer_1
 62
7
100
AcDbSpline
 70
8
 71
3
 72
8
 73
4
 74
0
 40
0
 40
0
 40
0
 40
0
 40
1
 40
1
 40
1
 40
1
 10
298.180229
 20
-7.754220
 30
0.0
 10
298.180229
 20
-8.878687
 30
0.0
 10
298.552302
 20
-9.763388
 30
0.0
 10
299.296447
 20
-10.408322
 30
0.0
  0
SPLINE
  5
2b4
100
AcDbEntity
  8
Layer_1
 62
7
100
AcDbSpline
 70
8
 71
3
 72
8
 73
4
 74
0
 40
0
 40
0
 40
0
 40
0
 40
1
 40
1
 40
1
 40
1
 10
299.296447
 20
-10.408322
 30
0.0
 10
300.057111
 20
-11.036700
 30
0.0
 10
301.107175
 20
-11.350888
 30
0.0
 10
302.446639
 20
-11.350888
 30
0.0
  0
SPLINE
  5
2b5
100
AcDbEntity
  8
Layer_1
 62
7
100
AcDbSpline
 70
8
 71
3
 72
8
 73
4
 74
0
 40
0
 40
0
 40
0
 40
0
 40
1
 40
1
 40
1
 40
1
 10
302.446639
 20
-11.350888
 30
0.0
 10
304.116811
 20
-11.350888
 30
0.0
 10
305.522410
 20
-10.755578
 30
0.0
 10
306.663434
 20
-9.564958
 30
0.0
  0
SPLINE
  5
2b6
100
AcDbEntity
  8
Layer_1
 62
7
100
AcDbSpline
 70
8
 71
3
 72
8
 73
4
 74
0
 40
0
 40
0
 40
0
 40
0
 40
1
 40
1
 40
1
 40
1
 10
306.663434
 20
-9.564958
 30
0.0
 10
307.804440
 20
-8.357799
 30
0.0
 10
308.374943
 20
-6.852981
 30
0.0
 10
308.374943
 20
-5.050503
 30
0.0
  0
LINE
  5
2b7
100
AcDbEntity
  8
Layer_1
 62
7
100
AcDbLine
 10
308.374943
 20
-5.050503
 30
0.0
 11
308.374943
 21
-4.033515
 31
0.0
  0
LINE
  5
2b8
100
AcDbEntity
  8
Layer_1
 62
7
100
AcDbLine
 10
308.374943
 20
-4.033515
 30
0.0
 11
303.761287
 21
-4.033515
 31
0.0
  0
LINE
  5
2b9
100
AcDbEntity
  8
Layer_1
 62
7
100
AcDbLine
 10
303.761287
 20
-4.033515
 30
0.0
 11
303.761287
 21
-4.033515
 31
0.0
  0
LINE
  5
2ba
100
AcDbEntity
  8
Layer_1
 62
7
100
AcDbLine
 10
317.329431
 20
-0.684864
 30
0.0
 11
317.329431
 21
-16.535056
 31
0.0
  0
LINE
  5
2bb
100
AcDbEntity
  8
Layer_1
 62
7
100
AcDbLine
 10
317.329431
 20
-16.535056
 30
0.0
 11
308.374943
 21
-16.535056
 31
0.0
  0
LINE
  5
2bc
100
AcDbEntity
  8
Layer_1
 62
7
100
AcDbLine
 10
308.374943
 20
-16.535056
 30
0.0
 11
308.374943
 21
-12.417491
 31
0.0
  0
SPLINE
  5
2bd
100
AcDbEntity
  8
Layer_1
 62
7
100
AcDbSpline
 70
8
 71
3
 72
8
 73
4
 74
0
 40
0
 40
0
 40
0
 40
0
 40
1
 40
1
 40
1
 40
1
 10
308.374943
 20
-12.417491
 30
0.0
 10
307.184322
 20
-14.104201
 30
0.0
 10
305.844868
 20
-15.336167
 30
0.0
 10
304.356578
 20
-16.113388
 30
0.0
  0
SPLINE
  5
2be
100
AcDbEntity
  8
Layer_1
 62
7
100
AcDbSpline
 70
8
 71
3
 72
8
 73
4
 74
0
 40
0
 40
0
 40
0
 40
0
 40
1
 40
1
 40
1
 40
1
 10
304.356578
 20
-16.113388
 30
0.0
 10
302.868307
 20
-16.874071
 30
0.0
 10
301.057570
 20
-17.254413
 30
0.0
 10
298.924365
 20
-17.254413
 30
0.0
  0
SPLINE
  5
2bf
100
AcDbEntity
  8
Layer_1
 62
7
100
AcDbSpline
 70
8
 71
3
 72
8
 73
4
 74
0
 40
0
 40
0
 40
0
 40
0
 40
1
 40
1
 40
1
 40
1
 10
298.924365
 20
-17.254413
 30
0.0
 10
296.047015
 20
-17.254413
 30
0.0
 10
293.707111
 20
-16.419317
 30
0.0
 10
291.904651
 20
-14.749126
 30
0.0
  0
SPLINE
  5
2c0
100
AcDbEntity
  8
Layer_1
 62
7
100
AcDbSpline
 70
8
 71
3
 72
8
 73
4
 74
0
 40
0
 40
0
 40
0
 40
0
 40
1
 40
1
 40
1
 40
1
 10
291.904651
 20
-14.749126
 30
0.0
 10
290.118712
 20
-13.062415
 30
0.0
 10
289.225742
 20
-10.879605
 30
0.0
 10
289.225742
 20
-8.200695
 30
0.0
  0
SPLINE
  5
2c1
100
AcDbEntity
  8
Layer_1
 62
7
100
AcDbSpline
 70
8
 71
3
 72
8
 73
4
 74
0
 40
0
 40
0
 40
0
 40
0
 40
1
 40
1
 40
1
 40
1
 10
289.225742
 20
-8.200695
 30
0.0
 10
289.225742
 20
-4.943004
 30
0.0
 10
290.341949
 20
-2.553485
 30
0.0
 10
292.574365
 20
-1.032138
 30
0.0
  0
SPLINE
  5
2c2
100
AcDbEntity
  8
Layer_1
 62
7
100
AcDbSpline
 70
8
 71
3
 72
8
 73
4
 74
0
 40
0
 40
0
 40
0
 40
0
 40
1
 40
1
 40
1
 40
1
 10
292.574365
 20
-1.032138
 30
0.0
 10
294.823318
 20
0.489209
 30
0.0
 10
298.345583
 20
1.249883
 30
0.0
 10
303.141160
 20
1.249883
 30
0.0
  0
LINE
  5
2c3
100
AcDbEntity
  8
Layer_1
 62
7
100
AcDbLine
 10
303.141160
 20
1.249883
 30
0.0
 11
308.374943
 21
1.249883
 31
0.0
  0
LINE
  5
2c4
100
AcDbEntity
  8
Layer_1
 62
7
100
AcDbLine
 10
308.374943
 20
1.249883
 30
0.0
 11
308.374943
 21
1.944431
 31
0.0
  0
SPLINE
  5
2c5
100
AcDbEntity
  8
Layer_1
 62
7
100
AcDbSpline
 70
8
 71
3
 72
8
 73
4
 74
0
 40
0
 40
0
 40
0
 40
0
 40
1
 40
1
 40
1
 40
1
 10
308.374943
 20
1.944431
 30
0.0
 10
308.374943
 20
3.350024
 30
0.0
 10
307.820978
 20
4.375282
 30
0.0
 10
306.713049
 20
5.020205
 30
0.0
  0
SPLINE
  5
2c6
100
AcDbEntity
  8
Layer_1
 62
7
100
AcDbSpline
 70
8
 71
3
 72
8
 73
4
 74
0
 40
0
 40
0
 40
0
 40
0
 40
1
 40
1
 40
1
 40
1
 10
306.713049
 20
5.020205
 30
0.0
 10
305.605101
 20
5.681662
 30
0.0
 10
303.877035
 20
6.012391
 30
0.0
 10
301.528853
 20
6.012391
 30
0.0
  0
SPLINE
  5
2c7
100
AcDbEntity
  8
Layer_1
 62
7
100
AcDbSpline
 70
8
 71
3
 72
8
 73
4
 74
0
 40
0
 40
0
 40
0
 40
0
 40
1
 40
1
 40
1
 40
1
 10
301.528853
 20
6.012391
 30
0.0
 10
299.627164
 20
6.012391
 30
0.0
 10
297.857762
 20
5.822222
 30
0.0
 10
296.220648
 20
5.441884
 30
0.0
  0
SPLINE
  5
2c8
100
AcDbEntity
  8
Layer_1
 62
7
100
AcDbSpline
 70
8
 71
3
 72
8
 73
4
 74
0
 40
0
 40
0
 40
0
 40
0
 40
1
 40
1
 40
1
 40
1
 10
296.220648
 20
5.441884
 30
0.0
 10
294.583552
 20
5.061545
 30
0.0
 10
293.062195
 20
4.491036
 30
0.0
 10
291.656578
 20
3.730359
 30
0.0
  0
LINE
  5
2c9
100
AcDbEntity
  8
Layer_1
 62
7
100
AcDbLine
 10
291.656578
 20
3.730359
 30
0.0
 11
291.656578
 21
10.502039
 31
0.0
  0
SPLINE
  5
2ca
100
AcDbEntity
  8
Layer_1
 62
7
100
AcDbSpline
 70
8
 71
3
 72
8
 73
4
 74
0
 40
0
 40
0
 40
0
 40
0
 40
1
 40
1
 40
1
 40
1
 10
291.656578
 20
10.502039
 30
0.0
 10
293.558285
 20
10.965060
 30
0.0
 10
295.468253
 20
11.312326
 30
0.0
 10
297.386479
 20
11.543836
 30
0.0
  0
SPLINE
  5
2cb
100
AcDbEntity
  8
Layer_1
 62
7
100
AcDbSpline
 70
8
 71
3
 72
8
 73
4
 74
0
 40
0
 40
0
 40
0
 40
0
 40
1
 40
1
 40
1
 40
1
 10
297.386479
 20
11.543836
 30
0.0
 10
299.304706
 20
11.791883
 30
0.0
 10
301.222933
 20
11.915907
 30
0.0
 10
303.141160
 20
11.915907
 30
0.0
  0
SPLINE
  5
2cc
100
AcDbEntity
  8
Layer_1
 62
7
100
AcDbSpline
 70
8
 71
3
 72
8
 73
4
 74
0
 40
0
 40
0
 40
0
 40
0
 40
1
 40
1
 40
1
 40
1
 10
303.141160
 20
11.915907
 30
0.0
 10
308.151714
 20
11.915907
 30
0.0
 10
311.764930
 20
10.923720
 30
0.0
 10
313.980807
 20
8.939346
 30
0.0
  0
SPLINE
  5
2cd
100
AcDbEntity
  8
Layer_1
 62
7
100
AcDbSpline
 70
8
 71
3
 72
8
 73
4
 74
0
 40
0
 40
0
 40
0
 40
0
 40
1
 40
1
 40
1
 40
1
 10
313.980807
 20
8.939346
 30
0.0
 10
316.213223
 20
6.971506
 30
0.0
 10
317.329431
 20
3.763436
 30
0.0
 10
317.329431
 20
-0.684864
 30
0.0
  0
LINE
  5
2ce
100
AcDbEntity
  8
Layer_1
 62
7
100
AcDbLine
 10
317.329431
 20
-0.684864
 30
0.0
 11
317.329431
 21
-0.684864
 31
0.0
  0
SPLINE
  5
2cf
100
AcDbEntity
  8
Layer_1
 62
7
100
AcDbSpline
 70
8
 71
3
 72
8
 73
4
 74
0
 40
0
 40
0
 40
0
 40
0
 40
1
 40
1
 40
1
 40
1
 10
346.276512
 20
3.680750
 30
0.0
 10
345.499291
 20
4.044553
 30
0.0
 10
344.722079
 20
4.309137
 30
0.0
 10
343.944877
 20
4.474500
 30
0.0
  0
SPLINE
  5
2d0
100
AcDbEntity
  8
Layer_1
 62
7
100
AcDbSpline
 70
8
 71
3
 72
8
 73
4
 74
0
 40
0
 40
0
 40
0
 40
0
 40
1
 40
1
 40
1
 40
1
 10
343.944877
 20
4.474500
 30
0.0
 10
343.184194
 20
4.656402
 30
0.0
 10
342.415251
 20
4.747352
 30
0.0
 10
341.638049
 20
4.747352
 30
0.0
  0
SPLINE
  5
2d1
100
AcDbEntity
  8
Layer_1
 62
7
100
AcDbSpline
 70
8
 71
3
 72
8
 73
4
 74
0
 40
0
 40
0
 40
0
 40
0
 40
1
 40
1
 40
1
 40
1
 10
341.638049
 20
4.747352
 30
0.0
 10
339.356019
 20
4.747352
 30
0.0
 10
337.594886
 20
4.011476
 30
0.0
 10
336.354651
 20
2.539723
 30
0.0
  0
SPLINE
  5
2d2
100
AcDbEntity
  8
Layer_1
 62
7
100
AcDbSpline
 70
8
 71
3
 72
8
 73
4
 74
0
 40
0
 40
0
 40
0
 40
0
 40
1
 40
1
 40
1
 40
1
 10
336.354651
 20
2.539723
 30
0.0
 10
335.130936
 20
1.084529
 30
0.0
 10
334.519078
 20
-1.007331
 30
0.0
 10
334.519078
 20
-3.735855
 30
0.0
  0
LINE
  5
2d3
100
AcDbEntity
  8
Layer_1
 62
7
100
AcDbLine
 10
334.519078
 20
-3.735855
 30
0.0
 11
334.519078
 21
-16.535056
 31
0.0
  0
LINE
  5
2d4
100
AcDbEntity
  8
Layer_1
 62
7
100
AcDbLine
 10
334.519078
 20
-16.535056
 30
0.0
 11
325.639012
 21
-16.535056
 31
0.0
  0
LINE
  5
2d5
100
AcDbEntity
  8
Layer_1
 62
7
100
AcDbLine
 10
325.639012
 20
-16.535056
 30
0.0
 11
325.639012
 21
11.246180
 31
0.0
  0
LINE
  5
2d6
100
AcDbEntity
  8
Layer_1
 62
7
100
AcDbLine
 10
325.639012
 20
11.246180
 30
0.0
 11
334.519078
 21
11.246180
 31
0.0
  0
LINE
  5
2d7
100
AcDbEntity
  8
Layer_1
 62
7
100
AcDbLine
 10
334.519078
 20
11.246180
 30
0.0
 11
334.519078
 21
6.682118
 31
0.0
  0
SPLINE
  5
2d8
100
AcDbEntity
  8
Layer_1
 62
7
100
AcDbSpline
 70
8
 71
3
 72
8
 73
4
 74
0
 40
0
 40
0
 40
0
 40
0
 40
1
 40
1
 40
1
 40
1
 10
334.519078
 20
6.682118
 30
0.0
 10
335.660103
 20
8.501129
 30
0.0
 10
336.966490
 20
9.824046
 30
0.0
 10
338.438242
 20
10.650868
 30
0.0
  0
SPLINE
  5
2d9
100
AcDbEntity
  8
Layer_1
 62
7
100
AcDbSpline
 70
8
 71
3
 72
8
 73
4
 74
0
 40
0
 40
0
 40
0
 40
0
 40
1
 40
1
 40
1
 40
1
 10
338.438242
 20
10.650868
 30
0.0
 10
339.926512
 20
11.494227
 30
0.0
 10
341.704183
 20
11.915907
 30
0.0
 10
343.771254
 20
11.915907
 30
0.0
  0
SPLINE
  5
2da
100
AcDbEntity
  8
Layer_1
 62
7
100
AcDbSpline
 70
8
 71
3
 72
8
 73
4
 74
0
 40
0
 40
0
 40
0
 40
0
 40
1
 40
1
 40
1
 40
1
 10
343.771254
 20
11.915907
 30
0.0
 10
344.068904
 20
11.915907
 30
0.0
 10
344.391362
 20
11.899371
 30
0.0
 10
344.738627
 20
11.866298
 30
0.0
  0
SPLINE
  5
2db
100
AcDbEntity
  8
Layer_1
 62
7
100
AcDbSpline
 70
8
 71
3
 72
8
 73
4
 74
0
 40
0
 40
0
 40
0
 40
0
 40
1
 40
1
 40
1
 40
1
 10
344.738627
 20
11.866298
 30
0.0
 10
345.085892
 20
11.849760
 30
0.0
 10
345.590251
 20
11.800151
 30
0.0
 10
346.251705
 20
11.717471
 30
0.0
  0
LINE
  5
2dc
100
AcDbEntity
  8
Layer_1
 62
7
100
AcDbLine
 10
346.251705
 20
11.717471
 30
0.0
 11
346.276541
 21
3.680750
 31
0.0
  0
LINE
  5
2dd
100
AcDbEntity
  8
Layer_1
 62
7
100
AcDbLine
 10
346.276541
 20
3.680750
 30
0.0
 11
346.276512
 21
3.680750
 31
0.0
  0
LINE
  5
2de
100
AcDbEntity
  8
Layer_1
 62
7
100
AcDbLine
 10
369.642537
 20
7.178211
 30
0.0
 11
369.642537
 21
22.061025
 31
0.0
  0
LINE
  5
2df
100
AcDbEntity
  8
Layer_1
 62
7
100
AcDbLine
 10
369.642537
 20
22.061025
 30
0.0
 11
378.572217
 21
22.061025
 31
0.0
  0
LINE
  5
2e0
100
AcDbEntity
  8
Layer_1
 62
7
100
AcDbLine
 10
378.572217
 20
22.061025
 30
0.0
 11
378.572217
 21
-16.535056
 31
0.0
  0
LINE
  5
2e1
100
AcDbEntity
  8
Layer_1
 62
7
100
AcDbLine
 10
378.572217
 20
-16.535056
 30
0.0
 11
369.642537
 21
-16.535056
 31
0.0
  0
LINE
  5
2e2
100
AcDbEntity
  8
Layer_1
 62
7
100
AcDbLine
 10
369.642537
 20
-16.535056
 30
0.0
 11
369.642537
 21
-12.516720
 31
0.0
  0
SPLINE
  5
2e3
100
AcDbEntity
  8
Layer_1
 62
7
100
AcDbSpline
 70
8
 71
3
 72
8
 73
4
 74
0
 40
0
 40
0
 40
0
 40
0
 40
1
 40
1
 40
1
 40
1
 10
369.642537
 20
-12.516720
 30
0.0
 10
368.418840
 20
-14.153816
 30
0.0
 10
367.071116
 20
-15.352705
 30
0.0
 10
365.599365
 20
-16.113388
 30
0.0
  0
SPLINE
  5
2e4
100
AcDbEntity
  8
Layer_1
 62
7
100
AcDbSpline
 70
8
 71
3
 72
8
 73
4
 74
0
 40
0
 40
0
 40
0
 40
0
 40
1
 40
1
 40
1
 40
1
 10
365.599365
 20
-16.113388
 30
0.0
 10
364.127613
 20
-16.874071
 30
0.0
 10
362.424355
 20
-17.254413
 30
0.0
 10
360.489590
 20
-17.254413
 30
0.0
  0
SPLINE
  5
2e5
100
AcDbEntity
  8
Layer_1
 62
7
100
AcDbSpline
 70
8
 71
3
 72
8
 73
4
 74
0
 40
0
 40
0
 40
0
 40
0
 40
1
 40
1
 40
1
 40
1
 10
360.489590
 20
-17.254413
 30
0.0
 10
357.066555
 20
-17.254413
 30
0.0
 10
354.255358
 20
-15.898419
 30
0.0
 10
352.056000
 20
-13.186433
 30
0.0
  0
SPLINE
  5
2e6
100
AcDbEntity
  8
Layer_1
 62
7
100
AcDbSpline
 70
8
 71
3
 72
8
 73
4
 74
0
 40
0
 40
0
 40
0
 40
0
 40
1
 40
1
 40
1
 40
1
 10
352.056000
 20
-13.186433
 30
0.0
 10
349.856661
 20
-10.457928
 30
0.0
 10
348.756992
 20
-6.952201
 30
0.0
 10
348.756992
 20
-2.669253
 30
0.0
  0
SPLINE
  5
2e7
100
AcDbEntity
  8
Layer_1
 62
7
100
AcDbSpline
 70
8
 71
3
 72
8
 73
4
 74
0
 40
0
 40
0
 40
0
 40
0
 40
1
 40
1
 40
1
 40
1
 10
348.756992
 20
-2.669253
 30
0.0
 10
348.756992
 20
1.613691
 30
0.0
 10
349.856661
 20
5.111154
 30
0.0
 10
352.056000
 20
7.823134
 30
0.0
  0
SPLINE
  5
2e8
100
AcDbEntity
  8
Layer_1
 62
7
100
AcDbSpline
 70
8
 71
3
 72
8
 73
4
 74
0
 40
0
 40
0
 40
0
 40
0
 40
1
 40
1
 40
1
 40
1
 10
352.056000
 20
7.823134
 30
0.0
 10
354.255358
 20
10.551649
 30
0.0
 10
357.066555
 20
11.915907
 30
0.0
 10
360.489590
 20
11.915907
 30
0.0
  0
SPLINE
  5
2e9
100
AcDbEntity
  8
Layer_1
 62
7
100
AcDbSpline
 70
8
 71
3
 72
8
 73
4
 74
0
 40
0
 40
0
 40
0
 40
0
 40
1
 40
1
 40
1
 40
1
 10
360.489590
 20
11.915907
 30
0.0
 10
362.407817
 20
11.915907
 30
0.0
 10
364.102806
 20
11.527300
 30
0.0
 10
365.574557
 20
10.750086
 30
0.0
  0
SPLINE
  5
2ea
100
AcDbEntity
  8
Layer_1
 62
7
100
AcDbSpline
 70
8
 71
3
 72
8
 73
4
 74
0
 40
0
 40
0
 40
0
 40
0
 40
1
 40
1
 40
1
 40
1
 10
365.574557
 20
10.750086
 30
0.0
 10
367.062847
 20
9.989409
 30
0.0
 10
368.418840
 20
8.798784
 30
0.0
 10
369.642537
 20
7.178211
 30
0.0
  0
LINE
  5
2eb
100
AcDbEntity
  8
Layer_1
 62
7
100
AcDbLine
 10
369.642537
 20
7.178211
 30
0.0
 11
369.642537
 21
7.178211
 31
0.0
  0
SPLINE
  5
2ec
100
AcDbEntity
  8
Layer_1
 62
7
100
AcDbSpline
 70
8
 71
3
 72
8
 73
4
 74
0
 40
0
 40
0
 40
0
 40
0
 40
1
 40
1
 40
1
 40
1
 10
363.788627
 20
-10.805183
 30
0.0
 10
365.690316
 20
-10.805183
 30
0.0
 10
367.137250
 20
-10.110653
 30
0.0
 10
368.129431
 20
-8.721593
 30
0.0
  0
SPLINE
  5
2ed
100
AcDbEntity
  8
Layer_1
 62
7
100
AcDbSpline
 70
8
 71
3
 72
8
 73
4
 74
0
 40
0
 40
0
 40
0
 40
0
 40
1
 40
1
 40
1
 40
1
 10
368.129431
 20
-8.721593
 30
0.0
 10
369.138168
 20
-7.332533
 30
0.0
 10
369.642537
 20
-5.315086
 30
0.0
 10
369.642537
 20
-2.669253
 30
0.0
  0
SPLINE
  5
2ee
100
AcDbEntity
  8
Layer_1
 62
7
100
AcDbSpline
 70
8
 71
3
 72
8
 73
4
 74
0
 40
0
 40
0
 40
0
 40
0
 40
1
 40
1
 40
1
 40
1
 10
369.642537
 20
-2.669253
 30
0.0
 10
369.642537
 20
-0.023419
 30
0.0
 10
369.138168
 20
1.994027
 30
0.0
 10
368.129431
 20
3.383087
 30
0.0
  0
SPLINE
  5
2ef
100
AcDbEntity
  8
Layer_1
 62
7
100
AcDbSpline
 70
8
 71
3
 72
8
 73
4
 74
0
 40
0
 40
0
 40
0
 40
0
 40
1
 40
1
 40
1
 40
1
 10
368.129431
 20
3.383087
 30
0.0
 10
367.137250
 20
4.772155
 30
0.0
 10
365.690316
 20
5.466689
 30
0.0
 10
363.788627
 20
5.466689
 30
0.0
  0
SPLINE
  5
2f0
100
AcDbEntity
  8
Layer_1
 62
7
100
AcDbSpline
 70
8
 71
3
 72
8
 73
4
 74
0
 40
0
 40
0
 40
0
 40
0
 40
1
 40
1
 40
1
 40
1
 10
363.788627
 20
5.466689
 30
0.0
 10
361.903477
 20
5.466689
 30
0.0
 10
360.456533
 20
4.772155
 30
0.0
 10
359.447795
 20
3.383087
 30
0.0
  0
SPLINE
  5
2f1
100
AcDbEntity
  8
Layer_1
 62
7
100
AcDbSpline
 70
8
 71
3
 72
8
 73
4
 74
0
 40
0
 40
0
 40
0
 40
0
 40
1
 40
1
 40
1
 40
1
 10
359.447795
 20
3.383087
 30
0.0
 10
358.455615
 20
1.994027
 30
0.0
 10
357.959525
 20
-0.023419
 30
0.0
 10
357.959525
 20
-2.669253
 30
0.0
  0
SPLINE
  5
2f2
100
AcDbEntity
  8
Layer_1
 62
7
100
AcDbSpline
 70
8
 71
3
 72
8
 73
4
 74
0
 40
0
 40
0
 40
0
 40
0
 40
1
 40
1
 40
1
 40
1
 10
357.959525
 20
-2.669253
 30
0.0
 10
357.959525
 20
-5.315086
 30
0.0
 10
358.455615
 20
-7.332533
 30
0.0
 10
359.447795
 20
-8.721593
 30
0.0
  0
SPLINE
  5
2f3
100
AcDbEntity
  8
Layer_1
 62
7
100
AcDbSpline
 70
8
 71
3
 72
8
 73
4
 74
0
 40
0
 40
0
 40
0
 40
0
 40
1
 40
1
 40
1
 40
1
 10
359.447795
 20
-8.721593
 30
0.0
 10
360.456533
 20
-10.110653
 30
0.0
 10
361.903477
 20
-10.805183
 30
0.0
 10
363.788627
 20
-10.805183
 30
0.0
  0
LINE
  5
2f4
100
AcDbEntity
  8
Layer_1
 62
7
100
AcDbLine
 10
363.788627
 20
-10.805183
 30
0.0
 11
363.788627
 21
-10.805183
 31
0.0
  0
LINE
  5
2f5
100
AcDbEntity
  8
Layer_1
 62
7
100
AcDbLine
 10
408.858754
 20
10.378016
 30
0.0
 11
408.858754
 21
3.631141
 31
0.0
  0
SPLINE
  5
2f6
100
AcDbEntity
  8
Layer_1
 62
7
100
AcDbSpline
 70
8
 71
3
 72
8
 73
4
 74
0
 40
0
 40
0
 40
0
 40
0
 40
1
 40
1
 40
1
 40
1
 10
408.858754
 20
3.631141
 30
0.0
 10
406.957046
 20
4.424891
 30
0.0
 10
405.121492
 20
5.020204
 30
0.0
 10
403.352090
 20
5.417080
 30
0.0
  0
SPLINE
  5
2f7
100
AcDbEntity
  8
Layer_1
 62
7
100
AcDbSpline
 70
8
 71
3
 72
8
 73
4
 74
0
 40
0
 40
0
 40
0
 40
0
 40
1
 40
1
 40
1
 40
1
 10
403.352090
 20
5.417080
 30
0.0
 10
401.582689
 20
5.813954
 30
0.0
 10
399.912507
 20
6.012391
 30
0.0
 10
398.341545
 20
6.012391
 30
0.0
  0
SPLINE
  5
2f8
100
AcDbEntity
  8
Layer_1
 62
7
100
AcDbSpline
 70
8
 71
3
 72
8
 73
4
 74
0
 40
0
 40
0
 40
0
 40
0
 40
1
 40
1
 40
1
 40
1
 10
398.341545
 20
6.012391
 30
0.0
 10
396.654835
 20
6.012391
 30
0.0
 10
395.398071
 20
5.797418
 30
0.0
 10
394.571254
 20
5.367471
 30
0.0
  0
SPLINE
  5
2f9
100
AcDbEntity
  8
Layer_1
 62
7
100
AcDbSpline
 70
8
 71
3
 72
8
 73
4
 74
0
 40
0
 40
0
 40
0
 40
0
 40
1
 40
1
 40
1
 40
1
 10
394.571254
 20
5.367471
 30
0.0
 10
393.760956
 20
4.954059
 30
0.0
 10
393.355807
 20
4.309136
 30
0.0
 10
393.355807
 20
3.432702
 30
0.0
  0
SPLINE
  5
2fa
100
AcDbEntity
  8
Layer_1
 62
7
100
AcDbSpline
 70
8
 71
3
 72
8
 73
4
 74
0
 40
0
 40
0
 40
0
 40
0
 40
1
 40
1
 40
1
 40
1
 10
393.355807
 20
3.432702
 30
0.0
 10
393.355807
 20
2.721634
 30
0.0
 10
393.661736
 20
2.175929
 30
0.0
 10
394.273594
 20
1.795587
 30
0.0
  0
SPLINE
  5
2fb
100
AcDbEntity
  8
Layer_1
 62
7
100
AcDbSpline
 70
8
 71
3
 72
8
 73
4
 74
0
 40
0
 40
0
 40
0
 40
0
 40
1
 40
1
 40
1
 40
1
 10
394.273594
 20
1.795587
 30
0.0
 10
394.901971
 20
1.415246
 30
0.0
 10
396.018179
 20
1.134124
 30
0.0
 10
397.622217
 20
0.952223
 30
0.0
  0
LINE
  5
2fc
100
AcDbEntity
  8
Layer_1
 62
7
100
AcDbLine
 10
397.622217
 20
0.952223
 30
0.0
 11
399.184910
 21
0.728985
 31
0.0
  0
SPLINE
  5
2fd
100
AcDbEntity
  8
Layer_1
 62
7
100
AcDbSpline
 70
8
 71
3
 72
8
 73
4
 74
0
 40
0
 40
0
 40
0
 40
0
 40
1
 40
1
 40
1
 40
1
 10
399.184910
 20
0.728985
 30
0.0
 10
403.732432
 20
0.150222
 30
0.0
 10
406.791674
 20
-0.800622
 30
0.0
 10
408.362635
 20
-2.123548
 30
0.0
  0
SPLINE
  5
2fe
100
AcDbEntity
  8
Layer_1
 62
7
100
AcDbSpline
 70
8
 71
3
 72
8
 73
4
 74
0
 40
0
 40
0
 40
0
 40
0
 40
1
 40
1
 40
1
 40
1
 10
408.362635
 20
-2.123548
 30
0.0
 10
409.933597
 20
-3.446455
 30
0.0
 10
410.719078
 20
-5.521776
 30
0.0
 10
410.719078
 20
-8.349511
 30
0.0
  0
SPLINE
  5
2ff
100
AcDbEntity
  8
Layer_1
 62
7
100
AcDbSpline
 70
8
 71
3
 72
8
 73
4
 74
0
 40
0
 40
0
 40
0
 40
0
 40
1
 40
1
 40
1
 40
1
 10
410.719078
 20
-8.349511
 30
0.0
 10
410.719078
 20
-11.309552
 30
0.0
 10
409.627678
 20
-13.533708
 30
0.0
 10
407.444877
 20
-15.021978
 30
0.0
  0
SPLINE
  5
300
100
AcDbEntity
  8
Layer_1
 62
7
100
AcDbSpline
 70
8
 71
3
 72
8
 73
4
 74
0
 40
0
 40
0
 40
0
 40
0
 40
1
 40
1
 40
1
 40
1
 10
407.444877
 20
-15.021978
 30
0.0
 10
405.262057
 20
-16.510268
 30
0.0
 10
402.004376
 20
-17.254413
 30
0.0
 10
397.671832
 20
-17.254413
 30
0.0
  0
SPLINE
  5
301
100
AcDbEntity
  8
Layer_1
 62
7
100
AcDbSpline
 70
8
 71
3
 72
8
 73
4
 74
0
 40
0
 40
0
 40
0
 40
0
 40
1
 40
1
 40
1
 40
1
 10
397.671832
 20
-17.254413
 30
0.0
 10
395.836277
 20
-17.254413
 30
0.0
 10
393.934579
 20
-17.105578
 30
0.0
 10
391.966738
 20
-16.807909
 30
0.0
  0
SPLINE
  5
302
100
AcDbEntity
  8
Layer_1
 62
7
100
AcDbSpline
 70
8
 71
3
 72
8
 73
4
 74
0
 40
0
 40
0
 40
0
 40
0
 40
1
 40
1
 40
1
 40
1
 10
391.966738
 20
-16.807909
 30
0.0
 10
390.015435
 20
-16.526797
 30
0.0
 10
388.006257
 20
-16.096850
 30
0.0
 10
385.939205
 20
-15.518069
 30
0.0
  0
LINE
  5
303
100
AcDbEntity
  8
Layer_1
 62
7
100
AcDbLine
 10
385.939205
 20
-15.518069
 30
0.0
 11
385.939205
 21
-8.771208
 31
0.0
  0
SPLINE
  5
304
100
AcDbEntity
  8
Layer_1
 62
7
100
AcDbSpline
 70
8
 71
3
 72
8
 73
4
 74
0
 40
0
 40
0
 40
0
 40
0
 40
1
 40
1
 40
1
 40
1
 10
385.939205
 20
-8.771208
 30
0.0
 10
387.708607
 20
-9.631101
 30
0.0
 10
389.519354
 20
-10.276017
 30
0.0
 10
391.371447
 20
-10.705954
 30
0.0
  0
SPLINE
  5
305
100
AcDbEntity
  8
Layer_1
 62
7
100
AcDbSpline
 70
8
 71
3
 72
8
 73
4
 74
0
 40
0
 40
0
 40
0
 40
0
 40
1
 40
1
 40
1
 40
1
 10
391.371447
 20
-10.705954
 30
0.0
 10
393.240059
 20
-11.135910
 30
0.0
 10
395.133478
 20
-11.350888
 30
0.0
 10
397.051705
 20
-11.350888
 30
0.0
  0
SPLINE
  5
306
100
AcDbEntity
  8
Layer_1
 62
7
100
AcDbSpline
 70
8
 71
3
 72
8
 73
4
 74
0
 40
0
 40
0
 40
0
 40
0
 40
1
 40
1
 40
1
 40
1
 10
397.051705
 20
-11.350888
 30
0.0
 10
398.788030
 20
-11.350888
 30
0.0
 10
400.094409
 20
-11.111112
 30
0.0
 10
400.970840
 20
-10.631560
 30
0.0
  0
SPLINE
  5
307
100
AcDbEntity
  8
Layer_1
 62
7
100
AcDbSpline
 70
8
 71
3
 72
8
 73
4
 74
0
 40
0
 40
0
 40
0
 40
0
 40
1
 40
1
 40
1
 40
1
 10
400.970840
 20
-10.631560
 30
0.0
 10
401.847272
 20
-10.151989
 30
0.0
 10
402.285488
 20
-9.440921
 30
0.0
 10
402.285488
 20
-8.498355
 30
0.0
  0
SPLINE
  5
308
100
AcDbEntity
  8
Layer_1
 62
7
100
AcDbSpline
 70
8
 71
3
 72
8
 73
4
 74
0
 40
0
 40
0
 40
0
 40
0
 40
1
 40
1
 40
1
 40
1
 10
402.285488
 20
-8.498355
 30
0.0
 10
402.285488
 20
-7.704596
 30
0.0
 10
401.979568
 20
-7.117545
 30
0.0
 10
401.367729
 20
-6.737204
 30
0.0
  0
SPLINE
  5
309
100
AcDbEntity
  8
Layer_1
 62
7
100
AcDbSpline
 70
8
 71
3
 72
8
 73
4
 74
0
 40
0
 40
0
 40
0
 40
0
 40
1
 40
1
 40
1
 40
1
 10
401.367729
 20
-6.737204
 30
0.0
 10
400.772410
 20
-6.340343
 30
0.0
 10
399.573511
 20
-6.034424
 30
0.0
 10
397.771033
 20
-5.819445
 30
0.0
  0
LINE
  5
30a
100
AcDbEntity
  8
Layer_1
 62
7
100
AcDbLine
 10
397.771033
 20
-5.819445
 30
0.0
 11
396.208340
 21
-5.621015
 31
0.0
  0
SPLINE
  5
30b
100
AcDbEntity
  8
Layer_1
 62
7
100
AcDbSpline
 70
8
 71
3
 72
8
 73
4
 74
0
 40
0
 40
0
 40
0
 40
0
 40
1
 40
1
 40
1
 40
1
 10
396.208340
 20
-5.621015
 30
0.0
 10
392.256138
 20
-5.124925
 30
0.0
 10
389.486287
 20
-4.207148
 30
0.0
 10
387.898787
 20
-2.867683
 30
0.0
  0
SPLINE
  5
30c
100
AcDbEntity
  8
Layer_1
 62
7
100
AcDbSpline
 70
8
 71
3
 72
8
 73
4
 74
0
 40
0
 40
0
 40
0
 40
0
 40
1
 40
1
 40
1
 40
1
 10
387.898787
 20
-2.867683
 30
0.0
 10
386.311287
 20
-1.528238
 30
0.0
 10
385.517537
 20
0.505747
 30
0.0
 10
385.517537
 20
3.234272
 30
0.0
  0
SPLINE
  5
30d
100
AcDbEntity
  8
Layer_1
 62
7
100
AcDbSpline
 70
8
 71
3
 72
8
 73
4
 74
0
 40
0
 40
0
 40
0
 40
0
 40
1
 40
1
 40
1
 40
1
 10
385.517537
 20
3.234272
 30
0.0
 10
385.517537
 20
6.177757
 30
0.0
 10
386.526255
 20
8.360568
 30
0.0
 10
388.543693
 20
9.782705
 30
0.0
  0
SPLINE
  5
30e
100
AcDbEntity
  8
Layer_1
 62
7
100
AcDbSpline
 70
8
 71
3
 72
8
 73
4
 74
0
 40
0
 40
0
 40
0
 40
0
 40
1
 40
1
 40
1
 40
1
 10
388.543693
 20
9.782705
 30
0.0
 10
390.561149
 20
11.204840
 30
0.0
 10
393.653467
 20
11.915907
 30
0.0
 10
397.820648
 20
11.915907
 30
0.0
  0
SPLINE
  5
30f
100
AcDbEntity
  8
Layer_1
 62
7
100
AcDbSpline
 70
8
 71
3
 72
8
 73
4
 74
0
 40
0
 40
0
 40
0
 40
0
 40
1
 40
1
 40
1
 40
1
 10
397.820648
 20
11.915907
 30
0.0
 10
399.457762
 20
11.915907
 30
0.0
 10
401.177559
 20
11.791883
 30
0.0
 10
402.980037
 20
11.543836
 30
0.0
  0
SPLINE
  5
310
100
AcDbEntity
  8
Layer_1
 62
7
100
AcDbSpline
 70
8
 71
3
 72
8
 73
4
 74
0
 40
0
 40
0
 40
0
 40
0
 40
1
 40
1
 40
1
 40
1
 10
402.980037
 20
11.543836
 30
0.0
 10
404.782515
 20
11.295789
 30
0.0
 10
406.742087
 20
10.907183
 30
0.0
 10
408.858754
 20
10.378016
 30
0.0
  0
LINE
  5
311
100
AcDbEntity
  8
Layer_1
 62
7
100
AcDbLine
 10
408.858754
 20
10.378016
 30
0.0
 11
408.858754
 21
10.378016
 31
0.0
  0
LINE
  5
312
100
AcDbEntity
  8
Layer_1
 62
7
100
AcDbLine
 10
276.872988
 20
-53.476195
 30
0.0
 11
261.940582
 21
-53.476195
 31
0.0
  0
LINE
  5
313
100
AcDbEntity
  8
Layer_1
 62
7
100
AcDbLine
 10
261.940582
 20
-53.476195
 30
0.0
 11
259.584139
 21
-60.223056
 31
0.0
  0
LINE
  5
314
100
AcDbEntity
  8
Layer_1
 62
7
100
AcDbLine
 10
259.584139
 20
-60.223056
 30
0.0
 11
249.984717
 21
-60.223056
 31
0.0
  0
LINE
  5
315
100
AcDbEntity
  8
Layer_1
 62
7
100
AcDbLine
 10
249.984717
 20
-60.223056
 30
0.0
 11
263.701705
 21
-23.189659
 31
0.0
  0
LINE
  5
316
100
AcDbEntity
  8
Layer_1
 62
7
100
AcDbLine
 10
263.701705
 20
-23.189659
 30
0.0
 11
275.087057
 21
-23.189659
 31
0.0
  0
LINE
  5
317
100
AcDbEntity
  8
Layer_1
 62
7
100
AcDbLine
 10
275.087057
 20
-23.189659
 30
0.0
 11
288.804045
 21
-60.223056
 31
0.0
  0
LINE
  5
318
100
AcDbEntity
  8
Layer_1
 62
7
100
AcDbLine
 10
288.804045
 20
-60.223056
 30
0.0
 11
279.204651
 21
-60.223056
 31
0.0
  0
LINE
  5
319
100
AcDbEntity
  8
Layer_1
 62
7
100
AcDbLine
 10
279.204651
 20
-60.223056
 30
0.0
 11
276.872988
 21
-53.476195
 31
0.0
  0
LINE
  5
31a
100
AcDbEntity
  8
Layer_1
 62
7
100
AcDbLine
 10
276.872988
 20
-53.476195
 30
0.0
 11
276.872988
 21
-53.476195
 31
0.0
  0
LINE
  5
31b
100
AcDbEntity
  8
Layer_1
 62
7
100
AcDbLine
 10
264.321832
 20
-46.605298
 30
0.0
 11
274.466931
 21
-46.605298
 31
0.0
  0
LINE
  5
31c
100
AcDbEntity
  8
Layer_1
 62
7
100
AcDbLine
 10
274.466931
 20
-46.605298
 30
0.0
 11
269.406799
 21
-31.871322
 31
0.0
  0
LINE
  5
31d
100
AcDbEntity
  8
Layer_1
 62
7
100
AcDbLine
 10
269.406799
 20
-31.871322
 30
0.0
 11
264.321832
 21
-46.605298
 31
0.0
  0
LINE
  5
31e
100
AcDbEntity
  8
Layer_1
 62
7
100
AcDbLine
 10
264.321832
 20
-46.605298
 30
0.0
 11
264.321832
 21
-46.605298
 31
0.0
  0
SPLINE
  5
31f
100
AcDbEntity
  8
Layer_1
 62
7
100
AcDbSpline
 70
8
 71
3
 72
8
 73
4
 74
0
 40
0
 40
0
 40
0
 40
0
 40
1
 40
1
 40
1
 40
1
 10
312.194877
 20
-55.510171
 30
0.0
 10
310.971180
 20
-57.130747
 30
0.0
 10
309.623456
 20
-58.321377
 30
0.0
 10
308.151705
 20
-59.082060
 30
0.0
  0
SPLINE
  5
320
100
AcDbEntity
  8
Layer_1
 62
7
100
AcDbSpline
 70
8
 71
3
 72
8
 73
4
 74
0
 40
0
 40
0
 40
0
 40
0
 40
1
 40
1
 40
1
 40
1
 10
308.151705
 20
-59.082060
 30
0.0
 10
306.679954
 20
-59.842724
 30
0.0
 10
304.976696
 20
-60.223056
 30
0.0
 10
303.041931
 20
-60.223056
 30
0.0
  0
SPLINE
  5
321
100
AcDbEntity
  8
Layer_1
 62
7
100
AcDbSpline
 70
8
 71
3
 72
8
 73
4
 74
0
 40
0
 40
0
 40
0
 40
0
 40
1
 40
1
 40
1
 40
1
 10
303.041931
 20
-60.223056
 30
0.0
 10
299.651971
 20
-60.223056
 30
0.0
 10
296.849044
 20
-58.891880
 30
0.0
 10
294.633148
 20
-56.229527
 30
0.0
  0
SPLINE
  5
322
100
AcDbEntity
  8
Layer_1
 62
7
100
AcDbSpline
 70
8
 71
3
 72
8
 73
4
 74
0
 40
0
 40
0
 40
0
 40
0
 40
1
 40
1
 40
1
 40
1
 10
294.633148
 20
-56.229527
 30
0.0
 10
292.417270
 20
-53.550617
 30
0.0
 10
291.309332
 20
-50.144101
 30
0.0
 10
291.309332
 20
-46.009978
 30
0.0
  0
SPLINE
  5
323
100
AcDbEntity
  8
Layer_1
 62
7
100
AcDbSpline
 70
8
 71
3
 72
8
 73
4
 74
0
 40
0
 40
0
 40
0
 40
0
 40
1
 40
1
 40
1
 40
1
 10
291.309332
 20
-46.009978
 30
0.0
 10
291.309332
 20
-41.859336
 30
0.0
 10
292.417270
 20
-38.461098
 30
0.0
 10
294.633148
 20
-35.815265
 30
0.0
  0
SPLINE
  5
324
100
AcDbEntity
  8
Layer_1
 62
7
100
AcDbSpline
 70
8
 71
3
 72
8
 73
4
 74
0
 40
0
 40
0
 40
0
 40
0
 40
1
 40
1
 40
1
 40
1
 10
294.633148
 20
-35.815265
 30
0.0
 10
296.849044
 20
-33.152893
 30
0.0
 10
299.651971
 20
-31.821708
 30
0.0
 10
303.041931
 20
-31.821708
 30
0.0
  0
SPLINE
  5
325
100
AcDbEntity
  8
Layer_1
 62
7
100
AcDbSpline
 70
8
 71
3
 72
8
 73
4
 74
0
 40
0
 40
0
 40
0
 40
0
 40
1
 40
1
 40
1
 40
1
 10
303.041931
 20
-31.821708
 30
0.0
 10
304.976696
 20
-31.821708
 30
0.0
 10
306.679954
 20
-32.202049
 30
0.0
 10
308.151705
 20
-32.962732
 30
0.0
  0
SPLINE
  5
326
100
AcDbEntity
  8
Layer_1
 62
7
100
AcDbSpline
 70
8
 71
3
 72
8
 73
4
 74
0
 40
0
 40
0
 40
0
 40
0
 40
1
 40
1
 40
1
 40
1
 10
308.151705
 20
-32.962732
 30
0.0
 10
309.623456
 20
-33.723396
 30
0.0
 10
310.971180
 20
-34.922286
 30
0.0
 10
312.194877
 20
-36.559400
 30
0.0
  0
LINE
  5
327
100
AcDbEntity
  8
Layer_1
 62
7
100
AcDbLine
 10
312.194877
 20
-36.559400
 30
0.0
 11
312.194877
 21
-32.441806
 31
0.0
  0
LINE
  5
328
100
AcDbEntity
  8
Layer_1
 62
7
100
AcDbLine
 10
312.194877
 20
-32.441806
 30
0.0
 11
321.124557
 21
-32.441806
 31
0.0
  0
LINE
  5
329
100
AcDbEntity
  8
Layer_1
 62
7
100
AcDbLine
 10
321.124557
 20
-32.441806
 30
0.0
 11
321.124557
 21
-57.420138
 31
0.0
  0
SPLINE
  5
32a
100
AcDbEntity
  8
Layer_1
 62
7
100
AcDbSpline
 70
8
 71
3
 72
8
 73
4
 74
0
 40
0
 40
0
 40
0
 40
0
 40
1
 40
1
 40
1
 40
1
 10
321.124557
 20
-57.420138
 30
0.0
 10
321.124557
 20
-61.884988
 30
0.0
 10
319.710690
 20
-65.291495
 30
0.0
 10
316.882955
 20
-67.639659
 30
0.0
  0
SPLINE
  5
32b
100
AcDbEntity
  8
Layer_1
 62
7
100
AcDbSpline
 70
8
 71
3
 72
8
 73
4
 74
0
 40
0
 40
0
 40
0
 40
0
 40
1
 40
1
 40
1
 40
1
 10
316.882955
 20
-67.639659
 30
0.0
 10
314.071758
 20
-70.004380
 30
0.0
 10
309.987250
 20
-71.186741
 30
0.0
 10
304.629431
 20
-71.186741
 30
0.0
  0
SPLINE
  5
32c
100
AcDbEntity
  8
Layer_1
 62
7
100
AcDbSpline
 70
8
 71
3
 72
8
 73
4
 74
0
 40
0
 40
0
 40
0
 40
0
 40
1
 40
1
 40
1
 40
1
 10
304.629431
 20
-71.186741
 30
0.0
 10
302.893105
 20
-71.186741
 30
0.0
 10
301.214655
 20
-71.054454
 30
0.0
 10
299.594078
 20
-70.789880
 30
0.0
  0
SPLINE
  5
32d
100
AcDbEntity
  8
Layer_1
 62
7
100
AcDbSpline
 70
8
 71
3
 72
8
 73
4
 74
0
 40
0
 40
0
 40
0
 40
0
 40
1
 40
1
 40
1
 40
1
 10
299.594078
 20
-70.789880
 30
0.0
 10
297.973520
 20
-70.525287
 30
0.0
 10
296.344684
 20
-70.120138
 30
0.0
 10
294.707570
 20
-69.574433
 30
0.0
  0
LINE
  5
32e
100
AcDbEntity
  8
Layer_1
 62
7
100
AcDbLine
 10
294.707570
 20
-69.574433
 30
0.0
 11
294.707570
 21
-62.653921
 31
0.0
  0
SPLINE
  5
32f
100
AcDbEntity
  8
Layer_1
 62
7
100
AcDbSpline
 70
8
 71
3
 72
8
 73
4
 74
0
 40
0
 40
0
 40
0
 40
0
 40
1
 40
1
 40
1
 40
1
 10
294.707570
 20
-62.653921
 30
0.0
 10
296.261993
 20
-63.546891
 30
0.0
 10
297.783350
 20
-64.208354
 30
0.0
 10
299.271639
 20
-64.638310
 30
0.0
  0
SPLINE
  5
330
100
AcDbEntity
  8
Layer_1
 62
7
100
AcDbSpline
 70
8
 71
3
 72
8
 73
4
 74
0
 40
0
 40
0
 40
0
 40
0
 40
1
 40
1
 40
1
 40
1
 10
299.271639
 20
-64.638310
 30
0.0
 10
300.759910
 20
-65.084786
 30
0.0
 10
302.256459
 20
-65.308023
 30
0.0
 10
303.761287
 20
-65.308023
 30
0.0
  0
SPLINE
  5
331
100
AcDbEntity
  8
Layer_1
 62
7
100
AcDbSpline
 70
8
 71
3
 72
8
 73
4
 74
0
 40
0
 40
0
 40
0
 40
0
 40
1
 40
1
 40
1
 40
1
 10
303.761287
 20
-65.308023
 30
0.0
 10
306.671694
 20
-65.308023
 30
0.0
 10
308.804899
 20
-64.671368
 30
0.0
 10
310.160901
 20
-63.398056
 30
0.0
  0
SPLINE
  5
332
100
AcDbEntity
  8
Layer_1
 62
7
100
AcDbSpline
 70
8
 71
3
 72
8
 73
4
 74
0
 40
0
 40
0
 40
0
 40
0
 40
1
 40
1
 40
1
 40
1
 10
310.160901
 20
-63.398056
 30
0.0
 10
311.516885
 20
-62.124764
 30
0.0
 10
312.194877
 20
-60.132124
 30
0.0
 10
312.194877
 20
-57.420138
 30
0.0
  0
LINE
  5
333
100
AcDbEntity
  8
Layer_1
 62
7
100
AcDbLine
 10
312.194877
 20
-57.420138
 30
0.0
 11
312.194877
 21
-55.510171
 31
0.0
  0
LINE
  5
334
100
AcDbEntity
  8
Layer_1
 62
7
100
AcDbLine
 10
312.194877
 20
-55.510171
 30
0.0
 11
312.194877
 21
-55.510171
 31
0.0
  0
SPLINE
  5
335
100
AcDbEntity
  8
Layer_1
 62
7
100
AcDbSpline
 70
8
 71
3
 72
8
 73
4
 74
0
 40
0
 40
0
 40
0
 40
0
 40
1
 40
1
 40
1
 40
1
 10
306.340967
 20
-38.221322
 30
0.0
 10
304.505413
 20
-38.221322
 30
0.0
 10
303.075007
 20
-38.899314
 30
0.0
 10
302.049750
 20
-40.255298
 30
0.0
  0
SPLINE
  5
336
100
AcDbEntity
  8
Layer_1
 62
7
100
AcDbSpline
 70
8
 71
3
 72
8
 73
4
 74
0
 40
0
 40
0
 40
0
 40
0
 40
1
 40
1
 40
1
 40
1
 10
302.049750
 20
-40.255298
 30
0.0
 10
301.024493
 20
-41.611282
 30
0.0
 10
300.511865
 20
-43.529508
 30
0.0
 10
300.511865
 20
-46.009978
 30
0.0
  0
SPLINE
  5
337
100
AcDbEntity
  8
Layer_1
 62
7
100
AcDbSpline
 70
8
 71
3
 72
8
 73
4
 74
0
 40
0
 40
0
 40
0
 40
0
 40
1
 40
1
 40
1
 40
1
 10
300.511865
 20
-46.009978
 30
0.0
 10
300.511865
 20
-48.556601
 30
0.0
 10
301.007955
 20
-50.491366
 30
0.0
 10
302.000135
 20
-51.814273
 30
0.0
  0
SPLINE
  5
338
100
AcDbEntity
  8
Layer_1
 62
7
100
AcDbSpline
 70
8
 71
3
 72
8
 73
4
 74
0
 40
0
 40
0
 40
0
 40
0
 40
1
 40
1
 40
1
 40
1
 10
302.000135
 20
-51.814273
 30
0.0
 10
302.992335
 20
-53.120661
 30
0.0
 10
304.439279
 20
-53.773855
 30
0.0
 10
306.340967
 20
-53.773855
 30
0.0
  0
SPLINE
  5
339
100
AcDbEntity
  8
Layer_1
 62
7
100
AcDbSpline
 70
8
 71
3
 72
8
 73
4
 74
0
 40
0
 40
0
 40
0
 40
0
 40
1
 40
1
 40
1
 40
1
 10
306.340967
 20
-53.773855
 30
0.0
 10
308.193041
 20
-53.773855
 30
0.0
 10
309.631716
 20
-53.095863
 30
0.0
 10
310.656992
 20
-51.739880
 30
0.0
  0
SPLINE
  5
33a
100
AcDbEntity
  8
Layer_1
 62
7
100
AcDbSpline
 70
8
 71
3
 72
8
 73
4
 74
0
 40
0
 40
0
 40
0
 40
0
 40
1
 40
1
 40
1
 40
1
 10
310.656992
 20
-51.739880
 30
0.0
 10
311.682249
 20
-50.383877
 30
0.0
 10
312.194877
 20
-48.473910
 30
0.0
 10
312.194877
 20
-46.009978
 30
0.0
  0
SPLINE
  5
33b
100
AcDbEntity
  8
Layer_1
 62
7
100
AcDbSpline
 70
8
 71
3
 72
8
 73
4
 74
0
 40
0
 40
0
 40
0
 40
0
 40
1
 40
1
 40
1
 40
1
 10
312.194877
 20
-46.009978
 30
0.0
 10
312.194877
 20
-43.529508
 30
0.0
 10
311.682249
 20
-41.611282
 30
0.0
 10
310.656992
 20
-40.255298
 30
0.0
  0
SPLINE
  5
33c
100
AcDbEntity
  8
Layer_1
 62
7
100
AcDbSpline
 70
8
 71
3
 72
8
 73
4
 74
0
 40
0
 40
0
 40
0
 40
0
 40
1
 40
1
 40
1
 40
1
 10
310.656992
 20
-40.255298
 30
0.0
 10
309.631716
 20
-38.899314
 30
0.0
 10
308.193041
 20
-38.221322
 30
0.0
 10
306.340967
 20
-38.221322
 30
0.0
  0
LINE
  5
33d
100
AcDbEntity
  8
Layer_1
 62
7
100
AcDbLine
 10
306.340967
 20
-38.221322
 30
0.0
 11
306.340967
 21
-38.221322
 31
0.0
  0
SPLINE
  5
33e
100
AcDbEntity
  8
Layer_1
 62
7
100
AcDbSpline
 70
8
 71
3
 72
8
 73
4
 74
0
 40
0
 40
0
 40
0
 40
0
 40
1
 40
1
 40
1
 40
1
 10
342.158947
 20
-47.721515
 30
0.0
 10
340.306854
 20
-47.721515
 30
0.0
 10
338.909515
 20
-48.035704
 30
0.0
 10
337.966931
 20
-48.664081
 30
0.0
  0
SPLINE
  5
33f
100
AcDbEntity
  8
Layer_1
 62
7
100
AcDbSpline
 70
8
 71
3
 72
8
 73
4
 74
0
 40
0
 40
0
 40
0
 40
0
 40
1
 40
1
 40
1
 40
1
 10
337.966931
 20
-48.664081
 30
0.0
 10
337.040903
 20
-49.292477
 30
0.0
 10
336.577889
 20
-50.218523
 30
0.0
 10
336.577889
 20
-51.442220
 30
0.0
  0
SPLINE
  5
340
100
AcDbEntity
  8
Layer_1
 62
7
100
AcDbSpline
 70
8
 71
3
 72
8
 73
4
 74
0
 40
0
 40
0
 40
0
 40
0
 40
1
 40
1
 40
1
 40
1
 10
336.577889
 20
-51.442220
 30
0.0
 10
336.577889
 20
-52.566687
 30
0.0
 10
336.949952
 20
-53.451388
 30
0.0
 10
337.694078
 20
-54.096322
 30
0.0
  0
SPLINE
  5
341
100
AcDbEntity
  8
Layer_1
 62
7
100
AcDbSpline
 70
8
 71
3
 72
8
 73
4
 74
0
 40
0
 40
0
 40
0
 40
0
 40
1
 40
1
 40
1
 40
1
 10
337.694078
 20
-54.096322
 30
0.0
 10
338.454761
 20
-54.724700
 30
0.0
 10
339.504835
 20
-55.038888
 30
0.0
 10
340.844299
 20
-55.038888
 30
0.0
  0
SPLINE
  5
342
100
AcDbEntity
  8
Layer_1
 62
7
100
AcDbSpline
 70
8
 71
3
 72
8
 73
4
 74
0
 40
0
 40
0
 40
0
 40
0
 40
1
 40
1
 40
1
 40
1
 10
340.844299
 20
-55.038888
 30
0.0
 10
342.514471
 20
-55.038888
 30
0.0
 10
343.920070
 20
-54.443578
 30
0.0
 10
345.061094
 20
-53.252958
 30
0.0
  0
SPLINE
  5
343
100
AcDbEntity
  8
Layer_1
 62
7
100
AcDbSpline
 70
8
 71
3
 72
8
 73
4
 74
0
 40
0
 40
0
 40
0
 40
0
 40
1
 40
1
 40
1
 40
1
 10
345.061094
 20
-53.252958
 30
0.0
 10
346.202100
 20
-52.045799
 30
0.0
 10
346.772603
 20
-50.540981
 30
0.0
 10
346.772603
 20
-48.738503
 30
0.0
  0
LINE
  5
344
100
AcDbEntity
  8
Layer_1
 62
7
100
AcDbLine
 10
346.772603
 20
-48.738503
 30
0.0
 11
346.772603
 21
-47.721515
 31
0.0
  0
LINE
  5
345
100
AcDbEntity
  8
Layer_1
 62
7
100
AcDbLine
 10
346.772603
 20
-47.721515
 30
0.0
 11
342.158947
 21
-47.721515
 31
0.0
  0
LINE
  5
346
100
AcDbEntity
  8
Layer_1
 62
7
100
AcDbLine
 10
342.158947
 20
-47.721515
 30
0.0
 11
342.158947
 21
-47.721515
 31
0.0
  0
LINE
  5
347
100
AcDbEntity
  8
Layer_1
 62
7
100
AcDbLine
 10
355.727090
 20
-44.372864
 30
0.0
 11
355.727090
 21
-60.223056
 31
0.0
  0
LINE
  5
348
100
AcDbEntity
  8
Layer_1
 62
7
100
AcDbLine
 10
355.727090
 20
-60.223056
 30
0.0
 11
346.772603
 21
-60.223056
 31
0.0
  0
LINE
  5
349
100
AcDbEntity
  8
Layer_1
 62
7
100
AcDbLine
 10
346.772603
 20
-60.223056
 30
0.0
 11
346.772603
 21
-56.105491
 31
0.0
  0
SPLINE
  5
34a
100
AcDbEntity
  8
Layer_1
 62
7
100
AcDbSpline
 70
8
 71
3
 72
8
 73
4
 74
0
 40
0
 40
0
 40
0
 40
0
 40
1
 40
1
 40
1
 40
1
 10
346.772603
 20
-56.105491
 30
0.0
 10
345.581982
 20
-57.792201
 30
0.0
 10
344.242527
 20
-59.024167
 30
0.0
 10
342.754238
 20
-59.801388
 30
0.0
  0
SPLINE
  5
34b
100
AcDbEntity
  8
Layer_1
 62
7
100
AcDbSpline
 70
8
 71
3
 72
8
 73
4
 74
0
 40
0
 40
0
 40
0
 40
0
 40
1
 40
1
 40
1
 40
1
 10
342.754238
 20
-59.801388
 30
0.0
 10
341.265967
 20
-60.562071
 30
0.0
 10
339.455229
 20
-60.942413
 30
0.0
 10
337.322025
 20
-60.942413
 30
0.0
  0
SPLINE
  5
34c
100
AcDbEntity
  8
Layer_1
 62
7
100
AcDbSpline
 70
8
 71
3
 72
8
 73
4
 74
0
 40
0
 40
0
 40
0
 40
0
 40
1
 40
1
 40
1
 40
1
 10
337.322025
 20
-60.942413
 30
0.0
 10
334.444675
 20
-60.942413
 30
0.0
 10
332.104761
 20
-60.107317
 30
0.0
 10
330.302283
 20
-58.437126
 30
0.0
  0
SPLINE
  5
34d
100
AcDbEntity
  8
Layer_1
 62
7
100
AcDbSpline
 70
8
 71
3
 72
8
 73
4
 74
0
 40
0
 40
0
 40
0
 40
0
 40
1
 40
1
 40
1
 40
1
 10
330.302283
 20
-58.437126
 30
0.0
 10
328.516362
 20
-56.750415
 30
0.0
 10
327.623401
 20
-54.567605
 30
0.0
 10
327.623401
 20
-51.888695
 30
0.0
  0
SPLINE
  5
34e
100
AcDbEntity
  8
Layer_1
 62
7
100
AcDbSpline
 70
8
 71
3
 72
8
 73
4
 74
0
 40
0
 40
0
 40
0
 40
0
 40
1
 40
1
 40
1
 40
1
 10
327.623401
 20
-51.888695
 30
0.0
 10
327.623401
 20
-48.631004
 30
0.0
 10
328.739609
 20
-46.241485
 30
0.0
 10
330.972025
 20
-44.720138
 30
0.0
  0
SPLINE
  5
34f
100
AcDbEntity
  8
Layer_1
 62
7
100
AcDbSpline
 70
8
 71
3
 72
8
 73
4
 74
0
 40
0
 40
0
 40
0
 40
0
 40
1
 40
1
 40
1
 40
1
 10
330.972025
 20
-44.720138
 30
0.0
 10
333.220978
 20
-43.198791
 30
0.0
 10
336.743243
 20
-42.438117
 30
0.0
 10
341.538820
 20
-42.438117
 30
0.0
  0
LINE
  5
350
100
AcDbEntity
  8
Layer_1
 62
7
100
AcDbLine
 10
341.538820
 20
-42.438117
 30
0.0
 11
346.772603
 21
-42.438117
 31
0.0
  0
LINE
  5
351
100
AcDbEntity
  8
Layer_1
 62
7
100
AcDbLine
 10
346.772603
 20
-42.438117
 30
0.0
 11
346.772603
 21
-41.743569
 31
0.0
  0
SPLINE
  5
352
100
AcDbEntity
  8
Layer_1
 62
7
100
AcDbSpline
 70
8
 71
3
 72
8
 73
4
 74
0
 40
0
 40
0
 40
0
 40
0
 40
1
 40
1
 40
1
 40
1
 10
346.772603
 20
-41.743569
 30
0.0
 10
346.772603
 20
-40.337970
 30
0.0
 10
346.218629
 20
-39.312713
 30
0.0
 10
345.110681
 20
-38.667798
 30
0.0
  0
SPLINE
  5
353
100
AcDbEntity
  8
Layer_1
 62
7
100
AcDbSpline
 70
8
 71
3
 72
8
 73
4
 74
0
 40
0
 40
0
 40
0
 40
0
 40
1
 40
1
 40
1
 40
1
 10
345.110681
 20
-38.667798
 30
0.0
 10
344.002751
 20
-38.006344
 30
0.0
 10
342.274695
 20
-37.675617
 30
0.0
 10
339.926512
 20
-37.675617
 30
0.0
  0
SPLINE
  5
354
100
AcDbEntity
  8
Layer_1
 62
7
100
AcDbSpline
 70
8
 71
3
 72
8
 73
4
 74
0
 40
0
 40
0
 40
0
 40
0
 40
1
 40
1
 40
1
 40
1
 10
339.926512
 20
-37.675617
 30
0.0
 10
338.024824
 20
-37.675617
 30
0.0
 10
336.255422
 20
-37.865788
 30
0.0
 10
334.618307
 20
-38.246130
 30
0.0
  0
SPLINE
  5
355
100
AcDbEntity
  8
Layer_1
 62
7
100
AcDbSpline
 70
8
 71
3
 72
8
 73
4
 74
0
 40
0
 40
0
 40
0
 40
0
 40
1
 40
1
 40
1
 40
1
 10
334.618307
 20
-38.246130
 30
0.0
 10
332.981193
 20
-38.626452
 30
0.0
 10
331.459836
 20
-39.196955
 30
0.0
 10
330.054238
 20
-39.957638
 30
0.0
  0
LINE
  5
356
100
AcDbEntity
  8
Layer_1
 62
7
100
AcDbLine
 10
330.054238
 20
-39.957638
 30
0.0
 11
330.054238
 21
-33.185970
 31
0.0
  0
SPLINE
  5
357
100
AcDbEntity
  8
Layer_1
 62
7
100
AcDbSpline
 70
8
 71
3
 72
8
 73
4
 74
0
 40
0
 40
0
 40
0
 40
0
 40
1
 40
1
 40
1
 40
1
 10
330.054238
 20
-33.185970
 30
0.0
 10
331.955945
 20
-32.722937
 30
0.0
 10
333.865912
 20
-32.375672
 30
0.0
 10
335.784139
 20
-32.144175
 30
0.0
  0
SPLINE
  5
358
100
AcDbEntity
  8
Layer_1
 62
7
100
AcDbSpline
 70
8
 71
3
 72
8
 73
4
 74
0
 40
0
 40
0
 40
0
 40
0
 40
1
 40
1
 40
1
 40
1
 10
335.784139
 20
-32.144175
 30
0.0
 10
337.702366
 20
-31.896120
 30
0.0
 10
339.620593
 20
-31.772093
 30
0.0
 10
341.538820
 20
-31.772093
 30
0.0
  0
SPLINE
  5
359
100
AcDbEntity
  8
Layer_1
 62
7
100
AcDbSpline
 70
8
 71
3
 72
8
 73
4
 74
0
 40
0
 40
0
 40
0
 40
0
 40
1
 40
1
 40
1
 40
1
 10
341.538820
 20
-31.772093
 30
0.0
 10
346.549374
 20
-31.772093
 30
0.0
 10
350.162590
 20
-32.764283
 30
0.0
 10
352.378467
 20
-34.748663
 30
0.0
  0
SPLINE
  5
35a
100
AcDbEntity
  8
Layer_1
 62
7
100
AcDbSpline
 70
8
 71
3
 72
8
 73
4
 74
0
 40
0
 40
0
 40
0
 40
0
 40
1
 40
1
 40
1
 40
1
 10
352.378467
 20
-34.748663
 30
0.0
 10
354.610883
 20
-36.716504
 30
0.0
 10
355.727090
 20
-39.924571
 30
0.0
 10
355.727090
 20
-44.372864
 30
0.0
  0
LINE
  5
35b
100
AcDbEntity
  8
Layer_1
 62
7
100
AcDbLine
 10
355.727090
 20
-44.372864
 30
0.0
 11
355.727090
 21
-44.372864
 31
0.0
  0
LINE
  5
35c
100
AcDbEntity
  8
Layer_1
 62
7
100
AcDbLine
 10
364.036672
 20
-32.441806
 30
0.0
 11
372.916738
 21
-32.441806
 31
0.0
  0
LINE
  5
35d
100
AcDbEntity
  8
Layer_1
 62
7
100
AcDbLine
 10
372.916738
 20
-32.441806
 30
0.0
 11
372.916738
 21
-60.223056
 31
0.0
  0
LINE
  5
35e
100
AcDbEntity
  8
Layer_1
 62
7
100
AcDbLine
 10
372.916738
 20
-60.223056
 30
0.0
 11
364.036672
 21
-60.223056
 31
0.0
  0
LINE
  5
35f
100
AcDbEntity
  8
Layer_1
 62
7
100
AcDbLine
 10
364.036672
 20
-60.223056
 30
0.0
 11
364.036672
 21
-32.441806
 31
0.0
  0
LINE
  5
360
100
AcDbEntity
  8
Layer_1
 62
7
100
AcDbLine
 10
364.036672
 20
-32.441806
 30
0.0
 11
364.036672
 21
-32.441806
 31
0.0
  0
LINE
  5
361
100
AcDbEntity
  8
Layer_1
 62
7
100
AcDbLine
 10
364.036672
 20
-21.626966
 30
0.0
 11
372.916738
 21
-21.626966
 31
0.0
  0
LINE
  5
362
100
AcDbEntity
  8
Layer_1
 62
7
100
AcDbLine
 10
372.916738
 20
-21.626966
 30
0.0
 11
372.916738
 21
-28.869945
 31
0.0
  0
LINE
  5
363
100
AcDbEntity
  8
Layer_1
 62
7
100
AcDbLine
 10
372.916738
 20
-28.869945
 30
0.0
 11
364.036672
 21
-28.869945
 31
0.0
  0
LINE
  5
364
100
AcDbEntity
  8
Layer_1
 62
7
100
AcDbLine
 10
364.036672
 20
-28.869945
 30
0.0
 11
364.036672
 21
-21.626966
 31
0.0
  0
LINE
  5
365
100
AcDbEntity
  8
Layer_1
 62
7
100
AcDbLine
 10
364.036672
 20
-21.626966
 30
0.0
 11
364.036672
 21
-21.626966
 31
0.0
  0
LINE
  5
366
100
AcDbEntity
  8
Layer_1
 62
7
100
AcDbLine
 10
409.429238
 20
-43.306261
 30
0.0
 11
409.429238
 21
-60.223056
 31
0.0
  0
LINE
  5
367
100
AcDbEntity
  8
Layer_1
 62
7
100
AcDbLine
 10
409.429238
 20
-60.223056
 30
0.0
 11
400.499557
 21
-60.223056
 31
0.0
  0
LINE
  5
368
100
AcDbEntity
  8
Layer_1
 62
7
100
AcDbLine
 10
400.499557
 20
-60.223056
 30
0.0
 11
400.499557
 21
-57.469753
 31
0.0
  0
LINE
  5
369
100
AcDbEntity
  8
Layer_1
 62
7
100
AcDbLine
 10
400.499557
 20
-57.469753
 30
0.0
 11
400.499557
 21
-47.275011
 31
0.0
  0
SPLINE
  5
36a
100
AcDbEntity
  8
Layer_1
 62
7
100
AcDbSpline
 70
8
 71
3
 72
8
 73
4
 74
0
 40
0
 40
0
 40
0
 40
0
 40
1
 40
1
 40
1
 40
1
 10
400.499557
 20
-47.275011
 30
0.0
 10
400.499557
 20
-44.877232
 30
0.0
 10
400.441683
 20
-43.223589
 30
0.0
 10
400.325934
 20
-42.314081
 30
0.0
  0
SPLINE
  5
36b
100
AcDbEntity
  8
Layer_1
 62
7
100
AcDbSpline
 70
8
 71
3
 72
8
 73
4
 74
0
 40
0
 40
0
 40
0
 40
0
 40
1
 40
1
 40
1
 40
1
 10
400.325934
 20
-42.314081
 30
0.0
 10
400.226705
 20
-41.404573
 30
0.0
 10
400.044803
 20
-40.734850
 30
0.0
 10
399.780229
 20
-40.304913
 30
0.0
  0
SPLINE
  5
36c
100
AcDbEntity
  8
Layer_1
 62
7
100
AcDbSpline
 70
8
 71
3
 72
8
 73
4
 74
0
 40
0
 40
0
 40
0
 40
0
 40
1
 40
1
 40
1
 40
1
 10
399.780229
 20
-40.304913
 30
0.0
 10
399.432964
 20
-39.726131
 30
0.0
 10
398.961672
 20
-39.279646
 30
0.0
 10
398.366353
 20
-38.965458
 30
0.0
  0
SPLINE
  5
36d
100
AcDbEntity
  8
Layer_1
 62
7
100
AcDbSpline
 70
8
 71
3
 72
8
 73
4
 74
0
 40
0
 40
0
 40
0
 40
0
 40
1
 40
1
 40
1
 40
1
 10
398.366353
 20
-38.965458
 30
0.0
 10
397.771052
 20
-38.634731
 30
0.0
 10
397.093060
 20
-38.469367
 30
0.0
 10
396.332377
 20
-38.469367
 30
0.0
  0
SPLINE
  5
36e
100
AcDbEntity
  8
Layer_1
 62
7
100
AcDbSpline
 70
8
 71
3
 72
8
 73
4
 74
0
 40
0
 40
0
 40
0
 40
0
 40
1
 40
1
 40
1
 40
1
 10
396.332377
 20
-38.469367
 30
0.0
 10
394.480284
 20
-38.469367
 30
0.0
 10
393.025071
 20
-39.188705
 30
0.0
 10
391.966738
 20
-40.627380
 30
0.0
  0
SPLINE
  5
36f
100
AcDbEntity
  8
Layer_1
 62
7
100
AcDbSpline
 70
8
 71
3
 72
8
 73
4
 74
0
 40
0
 40
0
 40
0
 40
0
 40
1
 40
1
 40
1
 40
1
 10
391.966738
 20
-40.627380
 30
0.0
 10
390.908405
 20
-42.049497
 30
0.0
 10
390.379238
 20
-44.025599
 30
0.0
 10
390.379238
 20
-46.555683
 30
0.0
  0
LINE
  5
370
100
AcDbEntity
  8
Layer_1
 62
7
100
AcDbLine
 10
390.379238
 20
-46.555683
 30
0.0
 11
390.379238
 21
-60.223056
 31
0.0
  0
LINE
  5
371
100
AcDbEntity
  8
Layer_1
 62
7
100
AcDbLine
 10
390.379238
 20
-60.223056
 30
0.0
 11
381.499172
 21
-60.223056
 31
0.0
  0
LINE
  5
372
100
AcDbEntity
  8
Layer_1
 62
7
100
AcDbLine
 10
381.499172
 20
-60.223056
 30
0.0
 11
381.499172
 21
-32.441806
 31
0.0
  0
LINE
  5
373
100
AcDbEntity
  8
Layer_1
 62
7
100
AcDbLine
 10
381.499172
 20
-32.441806
 30
0.0
 11
390.379238
 21
-32.441806
 31
0.0
  0
LINE
  5
374
100
AcDbEntity
  8
Layer_1
 62
7
100
AcDbLine
 10
390.379238
 20
-32.441806
 30
0.0
 11
390.379238
 21
-36.509786
 31
0.0
  0
SPLINE
  5
375
100
AcDbEntity
  8
Layer_1
 62
7
100
AcDbSpline
 70
8
 71
3
 72
8
 73
4
 74
0
 40
0
 40
0
 40
0
 40
0
 40
1
 40
1
 40
1
 40
1
 10
390.379238
 20
-36.509786
 30
0.0
 10
391.718702
 20
-34.889209
 30
0.0
 10
393.140839
 20
-33.698589
 30
0.0
 10
394.645648
 20
-32.937925
 30
0.0
  0
SPLINE
  5
376
100
AcDbEntity
  8
Layer_1
 62
7
100
AcDbSpline
 70
8
 71
3
 72
8
 73
4
 74
0
 40
0
 40
0
 40
0
 40
0
 40
1
 40
1
 40
1
 40
1
 10
394.645648
 20
-32.937925
 30
0.0
 10
396.150475
 20
-32.160704
 30
0.0
 10
397.812388
 20
-31.772093
 30
0.0
 10
399.631385
 20
-31.772093
 30
0.0
  0
SPLINE
  5
377
100
AcDbEntity
  8
Layer_1
 62
7
100
AcDbSpline
 70
8
 71
3
 72
8
 73
4
 74
0
 40
0
 40
0
 40
0
 40
0
 40
1
 40
1
 40
1
 40
1
 10
399.631385
 20
-31.772093
 30
0.0
 10
402.839462
 20
-31.772093
 30
0.0
 10
405.270327
 20
-32.756014
 30
0.0
 10
406.923979
 20
-34.723855
 30
0.0
  0
SPLINE
  5
378
100
AcDbEntity
  8
Layer_1
 62
7
100
AcDbSpline
 70
8
 71
3
 72
8
 73
4
 74
0
 40
0
 40
0
 40
0
 40
0
 40
1
 40
1
 40
1
 40
1
 10
406.923979
 20
-34.723855
 30
0.0
 10
408.594152
 20
-36.691697
 30
0.0
 10
409.429238
 20
-39.552499
 30
0.0
 10
409.429238
 20
-43.306261
 30
0.0
  0
LINE
  5
379
100
AcDbEntity
  8
Layer_1
 62
7
100
AcDbLine
 10
409.429238
 20
-43.306261
 30
0.0
 11
409.429238
 21
-43.306261
 31
0.0
  0
LINE
  5
37a
100
AcDbEntity
  8
Layer_1
 62
7
100
AcDbLine
 10
439.418115
 20
-33.309978
 30
0.0
 11
439.418115
 21
-40.056867
 31
0.0
  0
SPLINE
  5
37b
100
AcDbEntity
  8
Layer_1
 62
7
100
AcDbSpline
 70
8
 71
3
 72
8
 73
4
 74
0
 40
0
 40
0
 40
0
 40
0
 40
1
 40
1
 40
1
 40
1
 10
439.418115
 20
-40.056867
 30
0.0
 10
437.516426
 20
-39.263108
 30
0.0
 10
435.680881
 20
-38.667789
 30
0.0
 10
433.911479
 20
-38.270909
 30
0.0
  0
SPLINE
  5
37c
100
AcDbEntity
  8
Layer_1
 62
7
100
AcDbSpline
 70
8
 71
3
 72
8
 73
4
 74
0
 40
0
 40
0
 40
0
 40
0
 40
1
 40
1
 40
1
 40
1
 10
433.911479
 20
-38.270909
 30
0.0
 10
432.142078
 20
-37.874048
 30
0.0
 10
430.471896
 20
-37.675617
 30
0.0
 10
428.900934
 20
-37.675617
 30
0.0
  0
SPLINE
  5
37d
100
AcDbEntity
  8
Layer_1
 62
7
100
AcDbSpline
 70
8
 71
3
 72
8
 73
4
 74
0
 40
0
 40
0
 40
0
 40
0
 40
1
 40
1
 40
1
 40
1
 10
428.900934
 20
-37.675617
 30
0.0
 10
427.214205
 20
-37.675617
 30
0.0
 10
425.957432
 20
-37.890586
 30
0.0
 10
425.130615
 20
-38.320523
 30
0.0
  0
SPLINE
  5
37e
100
AcDbEntity
  8
Layer_1
 62
7
100
AcDbSpline
 70
8
 71
3
 72
8
 73
4
 74
0
 40
0
 40
0
 40
0
 40
0
 40
1
 40
1
 40
1
 40
1
 10
425.130615
 20
-38.320523
 30
0.0
 10
424.320336
 20
-38.733941
 30
0.0
 10
423.915197
 20
-39.378866
 30
0.0
 10
423.915197
 20
-40.255298
 30
0.0
  0
SPLINE
  5
37f
100
AcDbEntity
  8
Layer_1
 62
7
100
AcDbSpline
 70
8
 71
3
 72
8
 73
4
 74
0
 40
0
 40
0
 40
0
 40
0
 40
1
 40
1
 40
1
 40
1
 10
423.915197
 20
-40.255298
 30
0.0
 10
423.915197
 20
-40.966366
 30
0.0
 10
424.221116
 20
-41.512071
 30
0.0
 10
424.832955
 20
-41.892413
 30
0.0
  0
SPLINE
  5
380
100
AcDbEntity
  8
Layer_1
 62
7
100
AcDbSpline
 70
8
 71
3
 72
8
 73
4
 74
0
 40
0
 40
0
 40
0
 40
0
 40
1
 40
1
 40
1
 40
1
 10
424.832955
 20
-41.892413
 30
0.0
 10
425.461351
 20
-42.272754
 30
0.0
 10
426.577559
 20
-42.553876
 30
0.0
 10
428.181578
 20
-42.735777
 30
0.0
  0
LINE
  5
381
100
AcDbEntity
  8
Layer_1
 62
7
100
AcDbLine
 10
428.181578
 20
-42.735777
 30
0.0
 11
429.744299
 21
-42.959015
 31
0.0
  0
SPLINE
  5
382
100
AcDbEntity
  8
Layer_1
 62
7
100
AcDbSpline
 70
8
 71
3
 72
8
 73
4
 74
0
 40
0
 40
0
 40
0
 40
0
 40
1
 40
1
 40
1
 40
1
 10
429.744299
 20
-42.959015
 30
0.0
 10
434.291821
 20
-43.537778
 30
0.0
 10
437.351063
 20
-44.488622
 30
0.0
 10
438.922025
 20
-45.811548
 30
0.0
  0
SPLINE
  5
383
100
AcDbEntity
  8
Layer_1
 62
7
100
AcDbSpline
 70
8
 71
3
 72
8
 73
4
 74
0
 40
0
 40
0
 40
0
 40
0
 40
1
 40
1
 40
1
 40
1
 10
438.922025
 20
-45.811548
 30
0.0
 10
440.492986
 20
-47.134455
 30
0.0
 10
441.278467
 20
-49.209776
 30
0.0
 10
441.278467
 20
-52.037511
 30
0.0
  0
SPLINE
  5
384
100
AcDbEntity
  8
Layer_1
 62
7
100
AcDbSpline
 70
8
 71
3
 72
8
 73
4
 74
0
 40
0
 40
0
 40
0
 40
0
 40
1
 40
1
 40
1
 40
1
 10
441.278467
 20
-52.037511
 30
0.0
 10
441.278467
 20
-54.997552
 30
0.0
 10
440.187057
 20
-57.221708
 30
0.0
 10
438.004238
 20
-58.709978
 30
0.0
  0
SPLINE
  5
385
100
AcDbEntity
  8
Layer_1
 62
7
100
AcDbSpline
 70
8
 71
3
 72
8
 73
4
 74
0
 40
0
 40
0
 40
0
 40
0
 40
1
 40
1
 40
1
 40
1
 10
438.004238
 20
-58.709978
 30
0.0
 10
435.821437
 20
-60.198268
 30
0.0
 10
432.563755
 20
-60.942413
 30
0.0
 10
428.231193
 20
-60.942413
 30
0.0
  0
SPLINE
  5
386
100
AcDbEntity
  8
Layer_1
 62
7
100
AcDbSpline
 70
8
 71
3
 72
8
 73
4
 74
0
 40
0
 40
0
 40
0
 40
0
 40
1
 40
1
 40
1
 40
1
 10
428.231193
 20
-60.942413
 30
0.0
 10
426.395657
 20
-60.942413
 30
0.0
 10
424.493968
 20
-60.793578
 30
0.0
 10
422.526127
 20
-60.495909
 30
0.0
  0
SPLINE
  5
387
100
AcDbEntity
  8
Layer_1
 62
7
100
AcDbSpline
 70
8
 71
3
 72
8
 73
4
 74
0
 40
0
 40
0
 40
0
 40
0
 40
1
 40
1
 40
1
 40
1
 10
422.526127
 20
-60.495909
 30
0.0
 10
420.574824
 20
-60.214797
 30
0.0
 10
418.565646
 20
-59.784850
 30
0.0
 10
416.498594
 20
-59.206069
 30
0.0
  0
LINE
  5
388
100
AcDbEntity
  8
Layer_1
 62
7
100
AcDbLine
 10
416.498594
 20
-59.206069
 30
0.0
 11
416.498594
 21
-52.459208
 31
0.0
  0
SPLINE
  5
389
100
AcDbEntity
  8
Layer_1
 62
7
100
AcDbSpline
 70
8
 71
3
 72
8
 73
4
 74
0
 40
0
 40
0
 40
0
 40
0
 40
1
 40
1
 40
1
 40
1
 10
416.498594
 20
-52.459208
 30
0.0
 10
418.267996
 20
-53.319101
 30
0.0
 10
420.078733
 20
-53.964026
 30
0.0
 10
421.930807
 20
-54.393982
 30
0.0
  0
SPLINE
  5
38a
100
AcDbEntity
  8
Layer_1
 62
7
100
AcDbSpline
 70
8
 71
3
 72
8
 73
4
 74
0
 40
0
 40
0
 40
0
 40
0
 40
1
 40
1
 40
1
 40
1
 10
421.930807
 20
-54.393982
 30
0.0
 10
423.799438
 20
-54.823919
 30
0.0
 10
425.692867
 20
-55.038888
 30
0.0
 10
427.611094
 20
-55.038888
 30
0.0
  0
SPLINE
  5
38b
100
AcDbEntity
  8
Layer_1
 62
7
100
AcDbSpline
 70
8
 71
3
 72
8
 73
4
 74
0
 40
0
 40
0
 40
0
 40
0
 40
1
 40
1
 40
1
 40
1
 10
427.611094
 20
-55.038888
 30
0.0
 10
429.347419
 20
-55.038888
 30
0.0
 10
430.653798
 20
-54.799112
 30
0.0
 10
431.530229
 20
-54.319560
 30
0.0
  0
SPLINE
  5
38c
100
AcDbEntity
  8
Layer_1
 62
7
100
AcDbSpline
 70
8
 71
3
 72
8
 73
4
 74
0
 40
0
 40
0
 40
0
 40
0
 40
1
 40
1
 40
1
 40
1
 10
431.530229
 20
-54.319560
 30
0.0
 10
432.406661
 20
-53.840008
 30
0.0
 10
432.844877
 20
-53.128940
 30
0.0
 10
432.844877
 20
-52.186355
 30
0.0
  0
SPLINE
  5
38d
100
AcDbEntity
  8
Layer_1
 62
7
100
AcDbSpline
 70
8
 71
3
 72
8
 73
4
 74
0
 40
0
 40
0
 40
0
 40
0
 40
1
 40
1
 40
1
 40
1
 10
432.844877
 20
-52.186355
 30
0.0
 10
432.844877
 20
-51.392596
 30
0.0
 10
432.538948
 20
-50.805555
 30
0.0
 10
431.927090
 20
-50.425232
 30
0.0
  0
SPLINE
  5
38e
100
AcDbEntity
  8
Layer_1
 62
7
100
AcDbSpline
 70
8
 71
3
 72
8
 73
4
 74
0
 40
0
 40
0
 40
0
 40
0
 40
1
 40
1
 40
1
 40
1
 10
431.927090
 20
-50.425232
 30
0.0
 10
431.331790
 20
-50.028352
 30
0.0
 10
430.132900
 20
-49.722424
 30
0.0
 10
428.330422
 20
-49.507445
 30
0.0
  0
LINE
  5
38f
100
AcDbEntity
  8
Layer_1
 62
7
100
AcDbLine
 10
428.330422
 20
-49.507445
 30
0.0
 11
426.767729
 21
-49.309015
 31
0.0
  0
SPLINE
  5
390
100
AcDbEntity
  8
Layer_1
 62
7
100
AcDbSpline
 70
8
 71
3
 72
8
 73
4
 74
0
 40
0
 40
0
 40
0
 40
0
 40
1
 40
1
 40
1
 40
1
 10
426.767729
 20
-49.309015
 30
0.0
 10
422.815508
 20
-48.812925
 30
0.0
 10
420.045648
 20
-47.895148
 30
0.0
 10
418.458148
 20
-46.555683
 30
0.0
  0
SPLINE
  5
391
100
AcDbEntity
  8
Layer_1
 62
7
100
AcDbSpline
 70
8
 71
3
 72
8
 73
4
 74
0
 40
0
 40
0
 40
0
 40
0
 40
1
 40
1
 40
1
 40
1
 10
418.458148
 20
-46.555683
 30
0.0
 10
416.870648
 20
-45.216238
 30
0.0
 10
416.076898
 20
-43.182253
 30
0.0
 10
416.076898
 20
-40.453728
 30
0.0
  0
SPLINE
  5
392
100
AcDbEntity
  8
Layer_1
 62
7
100
AcDbSpline
 70
8
 71
3
 72
8
 73
4
 74
0
 40
0
 40
0
 40
0
 40
0
 40
1
 40
1
 40
1
 40
1
 10
416.076898
 20
-40.453728
 30
0.0
 10
416.076898
 20
-37.510245
 30
0.0
 10
417.085626
 20
-35.327435
 30
0.0
 10
419.103082
 20
-33.905298
 30
0.0
  0
SPLINE
  5
393
100
AcDbEntity
  8
Layer_1
 62
7
100
AcDbSpline
 70
8
 71
3
 72
8
 73
4
 74
0
 40
0
 40
0
 40
0
 40
0
 40
1
 40
1
 40
1
 40
1
 10
419.103082
 20
-33.905298
 30
0.0
 10
421.120519
 20
-32.483161
 30
0.0
 10
424.212837
 20
-31.772093
 30
0.0
 10
428.380037
 20
-31.772093
 30
0.0
  0
SPLINE
  5
394
100
AcDbEntity
  8
Layer_1
 62
7
100
AcDbSpline
 70
8
 71
3
 72
8
 73
4
 74
0
 40
0
 40
0
 40
0
 40
0
 40
1
 40
1
 40
1
 40
1
 10
428.380037
 20
-31.772093
 30
0.0
 10
430.017133
 20
-31.772093
 30
0.0
 10
431.736920
 20
-31.896120
 30
0.0
 10
433.539398
 20
-32.144175
 30
0.0
  0
SPLINE
  5
395
100
AcDbEntity
  8
Layer_1
 62
7
100
AcDbSpline
 70
8
 71
3
 72
8
 73
4
 74
0
 40
0
 40
0
 40
0
 40
0
 40
1
 40
1
 40
1
 40
1
 10
433.539398
 20
-32.144175
 30
0.0
 10
435.341876
 20
-32.392211
 30
0.0
 10
437.301448
 20
-32.780812
 30
0.0
 10
439.418115
 20
-33.309978
 30
0.0
  0
LINE
  5
396
100
AcDbEntity
  8
Layer_1
 62
7
100
AcDbLine
 10
439.418115
 20
-33.309978
 30
0.0
 11
439.418115
 21
-33.309978
 31
0.0
  0
LINE
  5
397
100
AcDbEntity
  8
Layer_1
 62
7
100
AcDbLine
 10
457.674365
 20
-24.553921
 30
0.0
 11
457.674365
 21
-32.441806
 31
0.0
  0
LINE
  5
398
100
AcDbEntity
  8
Layer_1
 62
7
100
AcDbLine
 10
457.674365
 20
-32.441806
 30
0.0
 11
466.827283
 21
-32.441806
 31
0.0
  0
LINE
  5
399
100
AcDbEntity
  8
Layer_1
 62
7
100
AcDbLine
 10
466.827283
 20
-32.441806
 30
0.0
 11
466.827283
 21
-38.791806
 31
0.0
  0
LINE
  5
39a
100
AcDbEntity
  8
Layer_1
 62
7
100
AcDbLine
 10
466.827283
 20
-38.791806
 30
0.0
 11
457.674365
 21
-38.791806
 31
0.0
  0
LINE
  5
39b
100
AcDbEntity
  8
Layer_1
 62
7
100
AcDbLine
 10
457.674365
 20
-38.791806
 30
0.0
 11
457.674365
 21
-50.574048
 31
0.0
  0
SPLINE
  5
39c
100
AcDbEntity
  8
Layer_1
 62
7
100
AcDbSpline
 70
8
 71
3
 72
8
 73
4
 74
0
 40
0
 40
0
 40
0
 40
0
 40
1
 40
1
 40
1
 40
1
 10
457.674365
 20
-50.574048
 30
0.0
 10
457.674365
 20
-51.863898
 30
0.0
 10
457.930679
 20
-52.740329
 30
0.0
 10
458.443307
 20
-53.203343
 30
0.0
  0
SPLINE
  5
39d
100
AcDbEntity
  8
Layer_1
 62
7
100
AcDbSpline
 70
8
 71
3
 72
8
 73
4
 74
0
 40
0
 40
0
 40
0
 40
0
 40
1
 40
1
 40
1
 40
1
 10
458.443307
 20
-53.203343
 30
0.0
 10
458.955936
 20
-53.649819
 30
0.0
 10
459.972933
 20
-53.873056
 30
0.0
 10
461.494299
 20
-53.873056
 30
0.0
  0
LINE
  5
39e
100
AcDbEntity
  8
Layer_1
 62
7
100
AcDbLine
 10
461.494299
 20
-53.873056
 30
0.0
 11
466.058340
 21
-53.873056
 31
0.0
  0
LINE
  5
39f
100
AcDbEntity
  8
Layer_1
 62
7
100
AcDbLine
 10
466.058340
 20
-53.873056
 30
0.0
 11
466.058340
 21
-60.223056
 31
0.0
  0
LINE
  5
3a0
100
AcDbEntity
  8
Layer_1
 62
7
100
AcDbLine
 10
466.058340
 20
-60.223056
 30
0.0
 11
458.443307
 21
-60.223056
 31
0.0
  0
SPLINE
  5
3a1
100
AcDbEntity
  8
Layer_1
 62
7
100
AcDbSpline
 70
8
 71
3
 72
8
 73
4
 74
0
 40
0
 40
0
 40
0
 40
0
 40
1
 40
1
 40
1
 40
1
 10
458.443307
 20
-60.223056
 30
0.0
 10
454.937581
 20
-60.223056
 30
0.0
 10
452.448842
 20
-59.495459
 30
0.0
 10
450.977090
 20
-58.040265
 30
0.0
  0
SPLINE
  5
3a2
100
AcDbEntity
  8
Layer_1
 62
7
100
AcDbSpline
 70
8
 71
3
 72
8
 73
4
 74
0
 40
0
 40
0
 40
0
 40
0
 40
1
 40
1
 40
1
 40
1
 10
450.977090
 20
-58.040265
 30
0.0
 10
449.521896
 20
-56.568514
 30
0.0
 10
448.794299
 20
-54.079775
 30
0.0
 10
448.794299
 20
-50.574048
 30
0.0
  0
LINE
  5
3a3
100
AcDbEntity
  8
Layer_1
 62
7
100
AcDbLine
 10
448.794299
 20
-50.574048
 30
0.0
 11
448.794299
 21
-38.791806
 31
0.0
  0
LINE
  5
3a4
100
AcDbEntity
  8
Layer_1
 62
7
100
AcDbLine
 10
448.794299
 20
-38.791806
 30
0.0
 11
444.379045
 21
-38.791806
 31
0.0
  0
LINE
  5
3a5
100
AcDbEntity
  8
Layer_1
 62
7
100
AcDbLine
 10
444.379045
 20
-38.791806
 30
0.0
 11
444.379045
 21
-32.441806
 31
0.0
  0
LINE
  5
3a6
100
AcDbEntity
  8
Layer_1
 62
7
100
AcDbLine
 10
444.379045
 20
-32.441806
 30
0.0
 11
448.794299
 21
-32.441806
 31
0.0
  0
LINE
  5
3a7
100
AcDbEntity
  8
Layer_1
 62
7
100
AcDbLine
 10
448.794299
 20
-32.441806
 30
0.0
 11
448.794299
 21
-24.553921
 31
0.0
  0
LINE
  5
3a8
100
AcDbEntity
  8
Layer_1
 62
7
100
AcDbLine
 10
448.794299
 20
-24.553921
 30
0.0
 11
457.674365
 21
-24.553921
 31
0.0
  0
LINE
  5
3a9
100
AcDbEntity
  8
Layer_1
 62
7
100
AcDbLine
 10
457.674365
 20
-24.553921
 30
0.0
 11
457.674365
 21
-24.553921
 31
0.0
  0
LINE
  5
3aa
100
AcDbEntity
  8
Layer_1
 62
7
100
AcDbLine
 10
254.399943
 20
-66.877659
 30
0.0
 11
263.949750
 21
-66.877659
 31
0.0
  0
LINE
  5
3ab
100
AcDbEntity
  8
Layer_1
 62
7
100
AcDbLine
 10
263.949750
 20
-66.877659
 30
0.0
 11
263.949750
 21
-80.991536
 31
0.0
  0
LINE
  5
3ac
100
AcDbEntity
  8
Layer_1
 62
7
100
AcDbLine
 10
263.949750
 20
-80.991536
 30
0.0
 11
278.038820
 21
-80.991536
 31
0.0
  0
LINE
  5
3ad
100
AcDbEntity
  8
Layer_1
 62
7
100
AcDbLine
 10
278.038820
 20
-80.991536
 30
0.0
 11
278.038820
 21
-66.877659
 31
0.0
  0
LINE
  5
3ae
100
AcDbEntity
  8
Layer_1
 62
7
100
AcDbLine
 10
278.038820
 20
-66.877659
 30
0.0
 11
287.588627
 21
-66.877659
 31
0.0
  0
LINE
  5
3af
100
AcDbEntity
  8
Layer_1
 62
7
100
AcDbLine
 10
287.588627
 20
-66.877659
 30
0.0
 11
287.588627
 21
-103.911085
 31
0.0
  0
LINE
  5
3b0
100
AcDbEntity
  8
Layer_1
 62
7
100
AcDbLine
 10
287.588627
 20
-103.911085
 30
0.0
 11
278.038820
 21
-103.911085
 31
0.0
  0
LINE
  5
3b1
100
AcDbEntity
  8
Layer_1
 62
7
100
AcDbLine
 10
278.038820
 20
-103.911085
 30
0.0
 11
278.038820
 21
-88.209708
 31
0.0
  0
LINE
  5
3b2
100
AcDbEntity
  8
Layer_1
 62
7
100
AcDbLine
 10
278.038820
 20
-88.209708
 30
0.0
 11
263.949750
 21
-88.209708
 31
0.0
  0
LINE
  5
3b3
100
AcDbEntity
  8
Layer_1
 62
7
100
AcDbLine
 10
263.949750
 20
-88.209708
 30
0.0
 11
263.949750
 21
-103.911085
 31
0.0
  0
LINE
  5
3b4
100
AcDbEntity
  8
Layer_1
 62
7
100
AcDbLine
 10
263.949750
 20
-103.911085
 30
0.0
 11
254.399943
 21
-103.911085
 31
0.0
  0
LINE
  5
3b5
100
AcDbEntity
  8
Layer_1
 62
7
100
AcDbLine
 10
254.399943
 20
-103.911085
 30
0.0
 11
254.399943
 21
-66.877659
 31
0.0
  0
LINE
  5
3b6
100
AcDbEntity
  8
Layer_1
 62
7
100
AcDbLine
 10
254.399943
 20
-66.877659
 30
0.0
 11
254.399943
 21
-66.877659
 31
0.0
  0
LINE
  5
3b7
100
AcDbEntity
  8
Layer_1
 62
7
100
AcDbLine
 10
296.270262
 20
-93.096216
 30
0.0
 11
296.270262
 21
-76.129835
 31
0.0
  0
LINE
  5
3b8
100
AcDbEntity
  8
Layer_1
 62
7
100
AcDbLine
 10
296.270262
 20
-76.129835
 30
0.0
 11
305.199943
 21
-76.129835
 31
0.0
  0
LINE
  5
3b9
100
AcDbEntity
  8
Layer_1
 62
7
100
AcDbLine
 10
305.199943
 20
-76.129835
 30
0.0
 11
305.199943
 21
-78.907945
 31
0.0
  0
SPLINE
  5
3ba
100
AcDbEntity
  8
Layer_1
 62
7
100
AcDbSpline
 70
8
 71
3
 72
8
 73
4
 74
0
 40
0
 40
0
 40
0
 40
0
 40
1
 40
1
 40
1
 40
1
 10
305.199943
 20
-78.907945
 30
0.0
 10
305.199943
 20
-80.412754
 30
0.0
 10
305.191664
 20
-82.306183
 30
0.0
 10
305.175107
 20
-84.588232
 30
0.0
  0
SPLINE
  5
3bb
100
AcDbEntity
  8
Layer_1
 62
7
100
AcDbSpline
 70
8
 71
3
 72
8
 73
4
 74
0
 40
0
 40
0
 40
0
 40
0
 40
1
 40
1
 40
1
 40
1
 10
305.175107
 20
-84.588232
 30
0.0
 10
305.158550
 20
-86.853724
 30
0.0
 10
305.150272
 20
-88.366802
 30
0.0
 10
305.150272
 20
-89.127466
 30
0.0
  0
SPLINE
  5
3bc
100
AcDbEntity
  8
Layer_1
 62
7
100
AcDbSpline
 70
8
 71
3
 72
8
 73
4
 74
0
 40
0
 40
0
 40
0
 40
0
 40
1
 40
1
 40
1
 40
1
 10
305.150272
 20
-89.127466
 30
0.0
 10
305.150272
 20
-91.359900
 30
0.0
 10
305.208155
 20
-92.972208
 30
0.0
 10
305.323923
 20
-93.964388
 30
0.0
  0
SPLINE
  5
3bd
100
AcDbEntity
  8
Layer_1
 62
7
100
AcDbSpline
 70
8
 71
3
 72
8
 73
4
 74
0
 40
0
 40
0
 40
0
 40
0
 40
1
 40
1
 40
1
 40
1
 10
305.323923
 20
-93.964388
 30
0.0
 10
305.439672
 20
-94.940049
 30
0.0
 10
305.638112
 20
-95.651117
 30
0.0
 10
305.919243
 20
-96.097593
 30
0.0
  0
SPLINE
  5
3be
100
AcDbEntity
  8
Layer_1
 62
7
100
AcDbSpline
 70
8
 71
3
 72
8
 73
4
 74
0
 40
0
 40
0
 40
0
 40
0
 40
1
 40
1
 40
1
 40
1
 10
305.919243
 20
-96.097593
 30
0.0
 10
306.283046
 20
-96.676374
 30
0.0
 10
306.754329
 20
-97.122859
 30
0.0
 10
307.333091
 20
-97.437048
 30
0.0
  0
SPLINE
  5
3bf
100
AcDbEntity
  8
Layer_1
 62
7
100
AcDbSpline
 70
8
 71
3
 72
8
 73
4
 74
0
 40
0
 40
0
 40
0
 40
0
 40
1
 40
1
 40
1
 40
1
 10
307.333091
 20
-97.437048
 30
0.0
 10
307.928411
 20
-97.751237
 30
0.0
 10
308.606412
 20
-97.908331
 30
0.0
 10
309.367095
 20
-97.908331
 30
0.0
  0
SPLINE
  5
3c0
100
AcDbEntity
  8
Layer_1
 62
7
100
AcDbSpline
 70
8
 71
3
 72
8
 73
4
 74
0
 40
0
 40
0
 40
0
 40
0
 40
1
 40
1
 40
1
 40
1
 10
309.367095
 20
-97.908331
 30
0.0
 10
311.219169
 20
-97.908331
 30
0.0
 10
312.674373
 20
-97.197263
 30
0.0
 10
313.732706
 20
-95.775126
 30
0.0
  0
SPLINE
  5
3c1
100
AcDbEntity
  8
Layer_1
 62
7
100
AcDbSpline
 70
8
 71
3
 72
8
 73
4
 74
0
 40
0
 40
0
 40
0
 40
0
 40
1
 40
1
 40
1
 40
1
 10
313.732706
 20
-95.775126
 30
0.0
 10
314.791039
 20
-94.352989
 30
0.0
 10
315.320206
 20
-92.376888
 30
0.0
 10
315.320206
 20
-89.846822
 30
0.0
  0
LINE
  5
3c2
100
AcDbEntity
  8
Layer_1
 62
7
100
AcDbLine
 10
315.320206
 20
-89.846822
 30
0.0
 11
315.320206
 21
-76.129835
 31
0.0
  0
LINE
  5
3c3
100
AcDbEntity
  8
Layer_1
 62
7
100
AcDbLine
 10
315.320206
 20
-76.129835
 30
0.0
 11
324.200272
 21
-76.129835
 31
0.0
  0
LINE
  5
3c4
100
AcDbEntity
  8
Layer_1
 62
7
100
AcDbLine
 10
324.200272
 20
-76.129835
 30
0.0
 11
324.200272
 21
-103.911085
 31
0.0
  0
LINE
  5
3c5
100
AcDbEntity
  8
Layer_1
 62
7
100
AcDbLine
 10
324.200272
 20
-103.911085
 30
0.0
 11
315.320206
 21
-103.911085
 31
0.0
  0
LINE
  5
3c6
100
AcDbEntity
  8
Layer_1
 62
7
100
AcDbLine
 10
315.320206
 20
-103.911085
 30
0.0
 11
315.320206
 21
-99.892720
 31
0.0
  0
SPLINE
  5
3c7
100
AcDbEntity
  8
Layer_1
 62
7
100
AcDbSpline
 70
8
 71
3
 72
8
 73
4
 74
0
 40
0
 40
0
 40
0
 40
0
 40
1
 40
1
 40
1
 40
1
 10
315.320206
 20
-99.892720
 30
0.0
 10
313.980760
 20
-101.513296
 30
0.0
 10
312.558624
 20
-102.712186
 30
0.0
 10
311.053796
 20
-103.489388
 30
0.0
  0
SPLINE
  5
3c8
100
AcDbEntity
  8
Layer_1
 62
7
100
AcDbSpline
 70
8
 71
3
 72
8
 73
4
 74
0
 40
0
 40
0
 40
0
 40
0
 40
1
 40
1
 40
1
 40
1
 10
311.053796
 20
-103.489388
 30
0.0
 10
309.565525
 20
-104.250071
 30
0.0
 10
307.920151
 20
-104.630413
 30
0.0
 10
306.117673
 20
-104.630413
 30
0.0
  0
SPLINE
  5
3c9
100
AcDbEntity
  8
Layer_1
 62
7
100
AcDbSpline
 70
8
 71
3
 72
8
 73
4
 74
0
 40
0
 40
0
 40
0
 40
0
 40
1
 40
1
 40
1
 40
1
 10
306.117673
 20
-104.630413
 30
0.0
 10
302.909597
 20
-104.630413
 30
0.0
 10
300.462203
 20
-103.646492
 30
0.0
 10
298.775493
 20
-101.678650
 30
0.0
  0
SPLINE
  5
3ca
100
AcDbEntity
  8
Layer_1
 62
7
100
AcDbSpline
 70
8
 71
3
 72
8
 73
4
 74
0
 40
0
 40
0
 40
0
 40
0
 40
1
 40
1
 40
1
 40
1
 10
298.775493
 20
-101.678650
 30
0.0
 10
297.105301
 20
-99.710809
 30
0.0
 10
296.270206
 20
-96.849997
 30
0.0
 10
296.270206
 20
-93.096216
 30
0.0
  0
LINE
  5
3cb
100
AcDbEntity
  8
Layer_1
 62
7
100
AcDbLine
 10
296.270206
 20
-93.096216
 30
0.0
 11
296.270262
 21
-93.096216
 31
0.0
  0
SPLINE
  5
3cc
100
AcDbEntity
  8
Layer_1
 62
7
100
AcDbSpline
 70
8
 71
3
 72
8
 73
4
 74
0
 40
0
 40
0
 40
0
 40
0
 40
1
 40
1
 40
1
 40
1
 10
358.530037
 20
-80.743491
 30
0.0
 10
359.654504
 20
-79.023704
 30
0.0
 10
360.985690
 20
-77.717325
 30
0.0
 10
362.523594
 20
-76.824355
 30
0.0
  0
SPLINE
  5
3cd
100
AcDbEntity
  8
Layer_1
 62
7
100
AcDbSpline
 70
8
 71
3
 72
8
 73
4
 74
0
 40
0
 40
0
 40
0
 40
0
 40
1
 40
1
 40
1
 40
1
 10
362.523594
 20
-76.824355
 30
0.0
 10
364.078018
 20
-75.914847
 30
0.0
 10
365.781266
 20
-75.460093
 30
0.0
 10
367.633340
 20
-75.460093
 30
0.0
  0
SPLINE
  5
3ce
100
AcDbEntity
  8
Layer_1
 62
7
100
AcDbSpline
 70
8
 71
3
 72
8
 73
4
 74
0
 40
0
 40
0
 40
0
 40
0
 40
1
 40
1
 40
1
 40
1
 10
367.633340
 20
-75.460093
 30
0.0
 10
370.824879
 20
-75.460093
 30
0.0
 10
373.255743
 20
-76.444014
 30
0.0
 10
374.925934
 20
-78.411855
 30
0.0
  0
SPLINE
  5
3cf
100
AcDbEntity
  8
Layer_1
 62
7
100
AcDbSpline
 70
8
 71
3
 72
8
 73
4
 74
0
 40
0
 40
0
 40
0
 40
0
 40
1
 40
1
 40
1
 40
1
 10
374.925934
 20
-78.411855
 30
0.0
 10
376.596107
 20
-80.379697
 30
0.0
 10
377.431193
 20
-83.240499
 30
0.0
 10
377.431193
 20
-86.994261
 30
0.0
  0
LINE
  5
3d0
100
AcDbEntity
  8
Layer_1
 62
7
100
AcDbLine
 10
377.431193
 20
-86.994261
 30
0.0
 11
377.431193
 21
-103.911085
 31
0.0
  0
LINE
  5
3d1
100
AcDbEntity
  8
Layer_1
 62
7
100
AcDbLine
 10
377.431193
 20
-103.911085
 30
0.0
 11
368.501512
 21
-103.911085
 31
0.0
  0
LINE
  5
3d2
100
AcDbEntity
  8
Layer_1
 62
7
100
AcDbLine
 10
368.501512
 20
-103.911085
 30
0.0
 11
368.501512
 21
-89.425126
 31
0.0
  0
SPLINE
  5
3d3
100
AcDbEntity
  8
Layer_1
 62
7
100
AcDbSpline
 70
8
 71
3
 72
8
 73
4
 74
0
 40
0
 40
0
 40
0
 40
0
 40
1
 40
1
 40
1
 40
1
 10
368.501512
 20
-89.425126
 30
0.0
 10
368.518069
 20
-89.210148
 30
0.0
 10
368.526348
 20
-88.986910
 30
0.0
 10
368.526348
 20
-88.755413
 30
0.0
  0
SPLINE
  5
3d4
100
AcDbEntity
  8
Layer_1
 62
7
100
AcDbSpline
 70
8
 71
3
 72
8
 73
4
 74
0
 40
0
 40
0
 40
0
 40
0
 40
1
 40
1
 40
1
 40
1
 10
368.526348
 20
-88.755413
 30
0.0
 10
368.542905
 20
-88.523896
 30
0.0
 10
368.551183
 20
-88.193169
 30
0.0
 10
368.551183
 20
-87.763232
 30
0.0
  0
SPLINE
  5
3d5
100
AcDbEntity
  8
Layer_1
 62
7
100
AcDbSpline
 70
8
 71
3
 72
8
 73
4
 74
0
 40
0
 40
0
 40
0
 40
0
 40
1
 40
1
 40
1
 40
1
 10
368.551183
 20
-87.763232
 30
0.0
 10
368.551183
 20
-85.795391
 30
0.0
 10
368.261793
 20
-84.373254
 30
0.0
 10
367.683011
 20
-83.496822
 30
0.0
  0
SPLINE
  5
3d6
100
AcDbEntity
  8
Layer_1
 62
7
100
AcDbSpline
 70
8
 71
3
 72
8
 73
4
 74
0
 40
0
 40
0
 40
0
 40
0
 40
1
 40
1
 40
1
 40
1
 10
367.683011
 20
-83.496822
 30
0.0
 10
367.104230
 20
-82.603852
 30
0.0
 10
366.169924
 20
-82.157367
 30
0.0
 10
364.880093
 20
-82.157367
 30
0.0
  0
SPLINE
  5
3d7
100
AcDbEntity
  8
Layer_1
 62
7
100
AcDbSpline
 70
8
 71
3
 72
8
 73
4
 74
0
 40
0
 40
0
 40
0
 40
0
 40
1
 40
1
 40
1
 40
1
 10
364.880093
 20
-82.157367
 30
0.0
 10
363.193364
 20
-82.157367
 30
0.0
 10
361.886985
 20
-82.851898
 30
0.0
 10
360.960958
 20
-84.240958
 30
0.0
  0
SPLINE
  5
3d8
100
AcDbEntity
  8
Layer_1
 62
7
100
AcDbSpline
 70
8
 71
3
 72
8
 73
4
 74
0
 40
0
 40
0
 40
0
 40
0
 40
1
 40
1
 40
1
 40
1
 10
360.960958
 20
-84.240958
 30
0.0
 10
360.051450
 20
-85.630018
 30
0.0
 10
359.580157
 20
-87.639195
 30
0.0
 10
359.547081
 20
-90.268491
 30
0.0
  0
LINE
  5
3d9
100
AcDbEntity
  8
Layer_1
 62
7
100
AcDbLine
 10
359.547081
 20
-90.268491
 30
0.0
 11
359.547081
 21
-103.911085
 31
0.0
  0
LINE
  5
3da
100
AcDbEntity
  8
Layer_1
 62
7
100
AcDbLine
 10
359.547081
 20
-103.911085
 30
0.0
 11
350.617401
 21
-103.911085
 31
0.0
  0
LINE
  5
3db
100
AcDbEntity
  8
Layer_1
 62
7
100
AcDbLine
 10
350.617401
 20
-103.911085
 30
0.0
 11
350.617401
 21
-89.425126
 31
0.0
  0
SPLINE
  5
3dc
100
AcDbEntity
  8
Layer_1
 62
7
100
AcDbSpline
 70
8
 71
3
 72
8
 73
4
 74
0
 40
0
 40
0
 40
0
 40
0
 40
1
 40
1
 40
1
 40
1
 10
350.617401
 20
-89.425126
 30
0.0
 10
350.617401
 20
-86.349355
 30
0.0
 10
350.352817
 20
-84.373254
 30
0.0
 10
349.823651
 20
-83.496822
 30
0.0
  0
SPLINE
  5
3dd
100
AcDbEntity
  8
Layer_1
 62
7
100
AcDbSpline
 70
8
 71
3
 72
8
 73
4
 74
0
 40
0
 40
0
 40
0
 40
0
 40
1
 40
1
 40
1
 40
1
 10
349.823651
 20
-83.496822
 30
0.0
 10
349.294484
 20
-82.603852
 30
0.0
 10
348.351899
 20
-82.157367
 30
0.0
 10
346.995897
 20
-82.157367
 30
0.0
  0
SPLINE
  5
3de
100
AcDbEntity
  8
Layer_1
 62
7
100
AcDbSpline
 70
8
 71
3
 72
8
 73
4
 74
0
 40
0
 40
0
 40
0
 40
0
 40
1
 40
1
 40
1
 40
1
 10
346.995897
 20
-82.157367
 30
0.0
 10
345.292648
 20
-82.157367
 30
0.0
 10
343.978000
 20
-82.860167
 30
0.0
 10
343.051954
 20
-84.265765
 30
0.0
  0
SPLINE
  5
3df
100
AcDbEntity
  8
Layer_1
 62
7
100
AcDbSpline
 70
8
 71
3
 72
8
 73
4
 74
0
 40
0
 40
0
 40
0
 40
0
 40
1
 40
1
 40
1
 40
1
 10
343.051954
 20
-84.265765
 30
0.0
 10
342.125908
 20
-85.654825
 30
0.0
 10
341.662885
 20
-87.647465
 30
0.0
 10
341.662885
 20
-90.243683
 30
0.0
  0
LINE
  5
3e0
100
AcDbEntity
  8
Layer_1
 62
7
100
AcDbLine
 10
341.662885
 20
-90.243683
 30
0.0
 11
341.662885
 21
-103.911085
 31
0.0
  0
LINE
  5
3e1
100
AcDbEntity
  8
Layer_1
 62
7
100
AcDbLine
 10
341.662885
 20
-103.911085
 30
0.0
 11
332.733204
 21
-103.911085
 31
0.0
  0
LINE
  5
3e2
100
AcDbEntity
  8
Layer_1
 62
7
100
AcDbLine
 10
332.733204
 20
-103.911085
 30
0.0
 11
332.733204
 21
-76.129835
 31
0.0
  0
LINE
  5
3e3
100
AcDbEntity
  8
Layer_1
 62
7
100
AcDbLine
 10
332.733204
 20
-76.129835
 30
0.0
 11
341.662885
 21
-76.129835
 31
0.0
  0
LINE
  5
3e4
100
AcDbEntity
  8
Layer_1
 62
7
100
AcDbLine
 10
341.662885
 20
-76.129835
 30
0.0
 11
341.662885
 21
-80.197786
 31
0.0
  0
SPLINE
  5
3e5
100
AcDbEntity
  8
Layer_1
 62
7
100
AcDbSpline
 70
8
 71
3
 72
8
 73
4
 74
0
 40
0
 40
0
 40
0
 40
0
 40
1
 40
1
 40
1
 40
1
 10
341.662885
 20
-80.197786
 30
0.0
 10
342.754294
 20
-78.626824
 30
0.0
 10
344.002798
 20
-77.444473
 30
0.0
 10
345.408397
 20
-76.650732
 30
0.0
  0
SPLINE
  5
3e6
100
AcDbEntity
  8
Layer_1
 62
7
100
AcDbSpline
 70
8
 71
3
 72
8
 73
4
 74
0
 40
0
 40
0
 40
0
 40
0
 40
1
 40
1
 40
1
 40
1
 10
345.408397
 20
-76.650732
 30
0.0
 10
346.830533
 20
-75.856973
 30
0.0
 10
348.393235
 20
-75.460093
 30
0.0
 10
350.096503
 20
-75.460093
 30
0.0
  0
SPLINE
  5
3e7
100
AcDbEntity
  8
Layer_1
 62
7
100
AcDbSpline
 70
8
 71
3
 72
8
 73
4
 74
0
 40
0
 40
0
 40
0
 40
0
 40
1
 40
1
 40
1
 40
1
 10
350.096503
 20
-75.460093
 30
0.0
 10
352.014730
 20
-75.460093
 30
0.0
 10
353.709709
 20
-75.923116
 30
0.0
 10
355.181442
 20
-76.849163
 30
0.0
  0
SPLINE
  5
3e8
100
AcDbEntity
  8
Layer_1
 62
7
100
AcDbSpline
 70
8
 71
3
 72
8
 73
4
 74
0
 40
0
 40
0
 40
0
 40
0
 40
1
 40
1
 40
1
 40
1
 10
355.181442
 20
-76.849163
 30
0.0
 10
356.653193
 20
-77.775209
 30
0.0
 10
357.769410
 20
-79.073318
 30
0.0
 10
358.530093
 20
-80.743491
 30
0.0
  0
LINE
  5
3e9
100
AcDbEntity
  8
Layer_1
 62
7
100
AcDbLine
 10
358.530093
 20
-80.743491
 30
0.0
 11
358.530037
 21
-80.743491
 31
0.0
  0
SPLINE
  5
3ea
100
AcDbEntity
  8
Layer_1
 62
7
100
AcDbSpline
 70
8
 71
3
 72
8
 73
4
 74
0
 40
0
 40
0
 40
0
 40
0
 40
1
 40
1
 40
1
 40
1
 10
398.217537
 20
-91.409515
 30
0.0
 10
396.365444
 20
-91.409515
 30
0.0
 10
394.968115
 20
-91.723704
 30
0.0
 10
394.025549
 20
-92.352081
 30
0.0
  0
SPLINE
  5
3eb
100
AcDbEntity
  8
Layer_1
 62
7
100
AcDbSpline
 70
8
 71
3
 72
8
 73
4
 74
0
 40
0
 40
0
 40
0
 40
0
 40
1
 40
1
 40
1
 40
1
 10
394.025549
 20
-92.352081
 30
0.0
 10
393.099503
 20
-92.980477
 30
0.0
 10
392.636479
 20
-93.906523
 30
0.0
 10
392.636479
 20
-95.130220
 30
0.0
  0
SPLINE
  5
3ec
100
AcDbEntity
  8
Layer_1
 62
7
100
AcDbSpline
 70
8
 71
3
 72
8
 73
4
 74
0
 40
0
 40
0
 40
0
 40
0
 40
1
 40
1
 40
1
 40
1
 10
392.636479
 20
-95.130220
 30
0.0
 10
392.636479
 20
-96.254687
 30
0.0
 10
393.008552
 20
-97.139388
 30
0.0
 10
393.752697
 20
-97.784322
 30
0.0
  0
SPLINE
  5
3ed
100
AcDbEntity
  8
Layer_1
 62
7
100
AcDbSpline
 70
8
 71
3
 72
8
 73
4
 74
0
 40
0
 40
0
 40
0
 40
0
 40
1
 40
1
 40
1
 40
1
 10
393.752697
 20
-97.784322
 30
0.0
 10
394.513361
 20
-98.412700
 30
0.0
 10
395.563425
 20
-98.726888
 30
0.0
 10
396.902889
 20
-98.726888
 30
0.0
  0
SPLINE
  5
3ee
100
AcDbEntity
  8
Layer_1
 62
7
100
AcDbSpline
 70
8
 71
3
 72
8
 73
4
 74
0
 40
0
 40
0
 40
0
 40
0
 40
1
 40
1
 40
1
 40
1
 10
396.902889
 20
-98.726888
 30
0.0
 10
398.573061
 20
-98.726888
 30
0.0
 10
399.978660
 20
-98.131578
 30
0.0
 10
401.119684
 20
-96.940958
 30
0.0
  0
SPLINE
  5
3ef
100
AcDbEntity
  8
Layer_1
 62
7
100
AcDbSpline
 70
8
 71
3
 72
8
 73
4
 74
0
 40
0
 40
0
 40
0
 40
0
 40
1
 40
1
 40
1
 40
1
 10
401.119684
 20
-96.940958
 30
0.0
 10
402.260690
 20
-95.733799
 30
0.0
 10
402.831193
 20
-94.228981
 30
0.0
 10
402.831193
 20
-92.426503
 30
0.0
  0
LINE
  5
3f0
100
AcDbEntity
  8
Layer_1
 62
7
100
AcDbLine
 10
402.831193
 20
-92.426503
 30
0.0
 11
402.831193
 21
-91.409515
 31
0.0
  0
LINE
  5
3f1
100
AcDbEntity
  8
Layer_1
 62
7
100
AcDbLine
 10
402.831193
 20
-91.409515
 30
0.0
 11
398.217537
 21
-91.409515
 31
0.0
  0
LINE
  5
3f2
100
AcDbEntity
  8
Layer_1
 62
7
100
AcDbLine
 10
398.217537
 20
-91.409515
 30
0.0
 11
398.217537
 21
-91.409515
 31
0.0
  0
LINE
  5
3f3
100
AcDbEntity
  8
Layer_1
 62
7
100
AcDbLine
 10
411.785681
 20
-88.060864
 30
0.0
 11
411.785681
 21
-103.911085
 31
0.0
  0
LINE
  5
3f4
100
AcDbEntity
  8
Layer_1
 62
7
100
AcDbLine
 10
411.785681
 20
-103.911085
 30
0.0
 11
402.831193
 21
-103.911085
 31
0.0
  0
LINE
  5
3f5
100
AcDbEntity
  8
Layer_1
 62
7
100
AcDbLine
 10
402.831193
 20
-103.911085
 30
0.0
 11
402.831193
 21
-99.793491
 31
0.0
  0
SPLINE
  5
3f6
100
AcDbEntity
  8
Layer_1
 62
7
100
AcDbSpline
 70
8
 71
3
 72
8
 73
4
 74
0
 40
0
 40
0
 40
0
 40
0
 40
1
 40
1
 40
1
 40
1
 10
402.831193
 20
-99.793491
 30
0.0
 10
401.640572
 20
-101.480220
 30
0.0
 10
400.301118
 20
-102.712186
 30
0.0
 10
398.812828
 20
-103.489388
 30
0.0
  0
SPLINE
  5
3f7
100
AcDbEntity
  8
Layer_1
 62
7
100
AcDbSpline
 70
8
 71
3
 72
8
 73
4
 74
0
 40
0
 40
0
 40
0
 40
0
 40
1
 40
1
 40
1
 40
1
 10
398.812828
 20
-103.489388
 30
0.0
 10
397.324557
 20
-104.250071
 30
0.0
 10
395.513820
 20
-104.630413
 30
0.0
 10
393.380615
 20
-104.630413
 30
0.0
  0
SPLINE
  5
3f8
100
AcDbEntity
  8
Layer_1
 62
7
100
AcDbSpline
 70
8
 71
3
 72
8
 73
4
 74
0
 40
0
 40
0
 40
0
 40
0
 40
1
 40
1
 40
1
 40
1
 10
393.380615
 20
-104.630413
 30
0.0
 10
390.503265
 20
-104.630413
 30
0.0
 10
388.163361
 20
-103.795317
 30
0.0
 10
386.360901
 20
-102.125126
 30
0.0
  0
SPLINE
  5
3f9
100
AcDbEntity
  8
Layer_1
 62
7
100
AcDbSpline
 70
8
 71
3
 72
8
 73
4
 74
0
 40
0
 40
0
 40
0
 40
0
 40
1
 40
1
 40
1
 40
1
 10
386.360901
 20
-102.125126
 30
0.0
 10
384.574962
 20
-100.438415
 30
0.0
 10
383.681992
 20
-98.255605
 30
0.0
 10
383.681992
 20
-95.576695
 30
0.0
  0
SPLINE
  5
3fa
100
AcDbEntity
  8
Layer_1
 62
7
100
AcDbSpline
 70
8
 71
3
 72
8
 73
4
 74
0
 40
0
 40
0
 40
0
 40
0
 40
1
 40
1
 40
1
 40
1
 10
383.681992
 20
-95.576695
 30
0.0
 10
383.681992
 20
-92.319004
 30
0.0
 10
384.798199
 20
-89.929485
 30
0.0
 10
387.030615
 20
-88.408138
 30
0.0
  0
SPLINE
  5
3fb
100
AcDbEntity
  8
Layer_1
 62
7
100
AcDbSpline
 70
8
 71
3
 72
8
 73
4
 74
0
 40
0
 40
0
 40
0
 40
0
 40
1
 40
1
 40
1
 40
1
 10
387.030615
 20
-88.408138
 30
0.0
 10
389.279568
 20
-86.886791
 30
0.0
 10
392.801833
 20
-86.126117
 30
0.0
 10
397.597410
 20
-86.126117
 30
0.0
  0
LINE
  5
3fc
100
AcDbEntity
  8
Layer_1
 62
7
100
AcDbLine
 10
397.597410
 20
-86.126117
 30
0.0
 11
402.831193
 21
-86.126117
 31
0.0
  0
LINE
  5
3fd
100
AcDbEntity
  8
Layer_1
 62
7
100
AcDbLine
 10
402.831193
 20
-86.126117
 30
0.0
 11
402.831193
 21
-85.431569
 31
0.0
  0
SPLINE
  5
3fe
100
AcDbEntity
  8
Layer_1
 62
7
100
AcDbSpline
 70
8
 71
3
 72
8
 73
4
 74
0
 40
0
 40
0
 40
0
 40
0
 40
1
 40
1
 40
1
 40
1
 10
402.831193
 20
-85.431569
 30
0.0
 10
402.831193
 20
-84.025970
 30
0.0
 10
402.277228
 20
-83.000713
 30
0.0
 10
401.169299
 20
-82.355798
 30
0.0
  0
SPLINE
  5
3ff
100
AcDbEntity
  8
Layer_1
 62
7
100
AcDbSpline
 70
8
 71
3
 72
8
 73
4
 74
0
 40
0
 40
0
 40
0
 40
0
 40
1
 40
1
 40
1
 40
1
 10
401.169299
 20
-82.355798
 30
0.0
 10
400.061351
 20
-81.694344
 30
0.0
 10
398.333285
 20
-81.363617
 30
0.0
 10
395.985103
 20
-81.363617
 30
0.0
  0
SPLINE
  5
400
100
AcDbEntity
  8
Layer_1
 62
7
100
AcDbSpline
 70
8
 71
3
 72
8
 73
4
 74
0
 40
0
 40
0
 40
0
 40
0
 40
1
 40
1
 40
1
 40
1
 10
395.985103
 20
-81.363617
 30
0.0
 10
394.083414
 20
-81.363617
 30
0.0
 10
392.314012
 20
-81.553788
 30
0.0
 10
390.676898
 20
-81.934130
 30
0.0
  0
SPLINE
  5
401
100
AcDbEntity
  8
Layer_1
 62
7
100
AcDbSpline
 70
8
 71
3
 72
8
 73
4
 74
0
 40
0
 40
0
 40
0
 40
0
 40
1
 40
1
 40
1
 40
1
 10
390.676898
 20
-81.934130
 30
0.0
 10
389.039802
 20
-82.314452
 30
0.0
 10
387.518445
 20
-82.884955
 30
0.0
 10
386.112828
 20
-83.645638
 30
0.0
  0
LINE
  5
402
100
AcDbEntity
  8
Layer_1
 62
7
100
AcDbLine
 10
386.112828
 20
-83.645638
 30
0.0
 11
386.112828
 21
-76.873970
 31
0.0
  0
SPLINE
  5
403
100
AcDbEntity
  8
Layer_1
 62
7
100
AcDbSpline
 70
8
 71
3
 72
8
 73
4
 74
0
 40
0
 40
0
 40
0
 40
0
 40
1
 40
1
 40
1
 40
1
 10
386.112828
 20
-76.873970
 30
0.0
 10
388.014535
 20
-76.410937
 30
0.0
 10
389.924503
 20
-76.063672
 30
0.0
 10
391.842729
 20
-75.832175
 30
0.0
  0
SPLINE
  5
404
100
AcDbEntity
  8
Layer_1
 62
7
100
AcDbSpline
 70
8
 71
3
 72
8
 73
4
 74
0
 40
0
 40
0
 40
0
 40
0
 40
1
 40
1
 40
1
 40
1
 10
391.842729
 20
-75.832175
 30
0.0
 10
393.760956
 20
-75.584120
 30
0.0
 10
395.679183
 20
-75.460093
 30
0.0
 10
397.597410
 20
-75.460093
 30
0.0
  0
SPLINE
  5
405
100
AcDbEntity
  8
Layer_1
 62
7
100
AcDbSpline
 70
8
 71
3
 72
8
 73
4
 74
0
 40
0
 40
0
 40
0
 40
0
 40
1
 40
1
 40
1
 40
1
 10
397.597410
 20
-75.460093
 30
0.0
 10
402.607964
 20
-75.460093
 30
0.0
 10
406.221180
 20
-76.452283
 30
0.0
 10
408.437057
 20
-78.436663
 30
0.0
  0
SPLINE
  5
406
100
AcDbEntity
  8
Layer_1
 62
7
100
AcDbSpline
 70
8
 71
3
 72
8
 73
4
 74
0
 40
0
 40
0
 40
0
 40
0
 40
1
 40
1
 40
1
 40
1
 10
408.437057
 20
-78.436663
 30
0.0
 10
410.669473
 20
-80.404504
 30
0.0
 10
411.785681
 20
-83.612571
 30
0.0
 10
411.785681
 20
-88.060864
 30
0.0
  0
LINE
  5
407
100
AcDbEntity
  8
Layer_1
 62
7
100
AcDbLine
 10
411.785681
 20
-88.060864
 30
0.0
 11
411.785681
 21
-88.060864
 31
0.0
  0
LINE
  5
408
100
AcDbEntity
  8
Layer_1
 62
7
100
AcDbLine
 10
448.025328
 20
-86.994261
 30
0.0
 11
448.025328
 21
-103.911085
 31
0.0
  0
LINE
  5
409
100
AcDbEntity
  8
Layer_1
 62
7
100
AcDbLine
 10
448.025328
 20
-103.911085
 30
0.0
 11
439.095648
 21
-103.911085
 31
0.0
  0
LINE
  5
40a
100
AcDbEntity
  8
Layer_1
 62
7
100
AcDbLine
 10
439.095648
 20
-103.911085
 30
0.0
 11
439.095648
 21
-101.157753
 31
0.0
  0
LINE
  5
40b
100
AcDbEntity
  8
Layer_1
 62
7
100
AcDbLine
 10
439.095648
 20
-101.157753
 30
0.0
 11
439.095648
 21
-90.963011
 31
0.0
  0
SPLINE
  5
40c
100
AcDbEntity
  8
Layer_1
 62
7
100
AcDbSpline
 70
8
 71
3
 72
8
 73
4
 74
0
 40
0
 40
0
 40
0
 40
0
 40
1
 40
1
 40
1
 40
1
 10
439.095648
 20
-90.963011
 30
0.0
 10
439.095648
 20
-88.565232
 30
0.0
 10
439.037773
 20
-86.911589
 30
0.0
 10
438.922025
 20
-86.002081
 30
0.0
  0
SPLINE
  5
40d
100
AcDbEntity
  8
Layer_1
 62
7
100
AcDbSpline
 70
8
 71
3
 72
8
 73
4
 74
0
 40
0
 40
0
 40
0
 40
0
 40
1
 40
1
 40
1
 40
1
 10
438.922025
 20
-86.002081
 30
0.0
 10
438.822795
 20
-85.092573
 30
0.0
 10
438.640894
 20
-84.422850
 30
0.0
 10
438.376320
 20
-83.992913
 30
0.0
  0
SPLINE
  5
40e
100
AcDbEntity
  8
Layer_1
 62
7
100
AcDbSpline
 70
8
 71
3
 72
8
 73
4
 74
0
 40
0
 40
0
 40
0
 40
0
 40
1
 40
1
 40
1
 40
1
 10
438.376320
 20
-83.992913
 30
0.0
 10
438.029055
 20
-83.414131
 30
0.0
 10
437.557762
 20
-82.967646
 30
0.0
 10
436.962443
 20
-82.653458
 30
0.0
  0
SPLINE
  5
40f
100
AcDbEntity
  8
Layer_1
 62
7
100
AcDbSpline
 70
8
 71
3
 72
8
 73
4
 74
0
 40
0
 40
0
 40
0
 40
0
 40
1
 40
1
 40
1
 40
1
 10
436.962443
 20
-82.653458
 30
0.0
 10
436.367142
 20
-82.322731
 30
0.0
 10
435.689150
 20
-82.157367
 30
0.0
 10
434.928467
 20
-82.157367
 30
0.0
  0
SPLINE
  5
410
100
AcDbEntity
  8
Layer_1
 62
7
100
AcDbSpline
 70
8
 71
3
 72
8
 73
4
 74
0
 40
0
 40
0
 40
0
 40
0
 40
1
 40
1
 40
1
 40
1
 10
434.928467
 20
-82.157367
 30
0.0
 10
433.076374
 20
-82.157367
 30
0.0
 10
431.621161
 20
-82.876705
 30
0.0
 10
430.562828
 20
-84.315380
 30
0.0
  0
SPLINE
  5
411
100
AcDbEntity
  8
Layer_1
 62
7
100
AcDbSpline
 70
8
 71
3
 72
8
 73
4
 74
0
 40
0
 40
0
 40
0
 40
0
 40
1
 40
1
 40
1
 40
1
 10
430.562828
 20
-84.315380
 30
0.0
 10
429.504495
 20
-85.737516
 30
0.0
 10
428.975328
 20
-87.713617
 30
0.0
 10
428.975328
 20
-90.243683
 30
0.0
  0
LINE
  5
412
100
AcDbEntity
  8
Layer_1
 62
7
100
AcDbLine
 10
428.975328
 20
-90.243683
 30
0.0
 11
428.975328
 21
-103.911085
 31
0.0
  0
LINE
  5
413
100
AcDbEntity
  8
Layer_1
 62
7
100
AcDbLine
 10
428.975328
 20
-103.911085
 30
0.0
 11
420.095262
 21
-103.911085
 31
0.0
  0
LINE
  5
414
100
AcDbEntity
  8
Layer_1
 62
7
100
AcDbLine
 10
420.095262
 20
-103.911085
 30
0.0
 11
420.095262
 21
-76.129835
 31
0.0
  0
LINE
  5
415
100
AcDbEntity
  8
Layer_1
 62
7
100
AcDbLine
 10
420.095262
 20
-76.129835
 30
0.0
 11
428.975328
 21
-76.129835
 31
0.0
  0
LINE
  5
416
100
AcDbEntity
  8
Layer_1
 62
7
100
AcDbLine
 10
428.975328
 20
-76.129835
 30
0.0
 11
428.975328
 21
-80.197786
 31
0.0
  0
SPLINE
  5
417
100
AcDbEntity
  8
Layer_1
 62
7
100
AcDbSpline
 70
8
 71
3
 72
8
 73
4
 74
0
 40
0
 40
0
 40
0
 40
0
 40
1
 40
1
 40
1
 40
1
 10
428.975328
 20
-80.197786
 30
0.0
 10
430.314792
 20
-78.577209
 30
0.0
 10
431.736929
 20
-77.386589
 30
0.0
 10
433.241738
 20
-76.625925
 30
0.0
  0
SPLINE
  5
418
100
AcDbEntity
  8
Layer_1
 62
7
100
AcDbSpline
 70
8
 71
3
 72
8
 73
4
 74
0
 40
0
 40
0
 40
0
 40
0
 40
1
 40
1
 40
1
 40
1
 10
433.241738
 20
-76.625925
 30
0.0
 10
434.746566
 20
-75.848704
 30
0.0
 10
436.408488
 20
-75.460093
 30
0.0
 10
438.227504
 20
-75.460093
 30
0.0
  0
SPLINE
  5
419
100
AcDbEntity
  8
Layer_1
 62
7
100
AcDbSpline
 70
8
 71
3
 72
8
 73
4
 74
0
 40
0
 40
0
 40
0
 40
0
 40
1
 40
1
 40
1
 40
1
 10
438.227504
 20
-75.460093
 30
0.0
 10
441.435561
 20
-75.460093
 30
0.0
 10
443.866417
 20
-76.444014
 30
0.0
 10
445.520070
 20
-78.411855
 30
0.0
  0
SPLINE
  5
41a
100
AcDbEntity
  8
Layer_1
 62
7
100
AcDbSpline
 70
8
 71
3
 72
8
 73
4
 74
0
 40
0
 40
0
 40
0
 40
0
 40
1
 40
1
 40
1
 40
1
 10
445.520070
 20
-78.411855
 30
0.0
 10
447.190242
 20
-80.379697
 30
0.0
 10
448.025328
 20
-83.240499
 30
0.0
 10
448.025328
 20
-86.994261
 30
0.0
  0
LINE
  5
41b
100
AcDbEntity
  8
Layer_1
 62
7
100
AcDbLine
 10
448.025328
 20
-86.994261
 30
0.0
 11
448.025328
 21
-86.994261
 31
0.0
  0
LINE
  5
41c
100
AcDbEntity
  8
Layer_1
 62
7
100
AcDbLine
 10
456.310103
 20
-76.129835
 30
0.0
 11
465.190197
 21
-76.129835
 31
0.0
  0
LINE
  5
41d
100
AcDbEntity
  8
Layer_1
 62
7
100
AcDbLine
 10
465.190197
 20
-76.129835
 30
0.0
 11
465.190197
 21
-103.911085
 31
0.0
  0
LINE
  5
41e
100
AcDbEntity
  8
Layer_1
 62
7
100
AcDbLine
 10
465.190197
 20
-103.911085
 30
0.0
 11
456.310103
 21
-103.911085
 31
0.0
  0
LINE
  5
41f
100
AcDbEntity
  8
Layer_1
 62
7
100
AcDbLine
 10
456.310103
 20
-103.911085
 30
0.0
 11
456.310103
 21
-76.129835
 31
0.0
  0
LINE
  5
420
100
AcDbEntity
  8
Layer_1
 62
7
100
AcDbLine
 10
456.310103
 20
-76.129835
 30
0.0
 11
456.310103
 21
-76.129835
 31
0.0
  0
LINE
  5
421
100
AcDbEntity
  8
Layer_1
 62
7
100
AcDbLine
 10
456.310103
 20
-65.314966
 30
0.0
 11
465.190197
 21
-65.314966
 31
0.0
  0
LINE
  5
422
100
AcDbEntity
  8
Layer_1
 62
7
100
AcDbLine
 10
465.190197
 20
-65.314966
 30
0.0
 11
465.190197
 21
-72.557945
 31
0.0
  0
LINE
  5
423
100
AcDbEntity
  8
Layer_1
 62
7
100
AcDbLine
 10
465.190197
 20
-72.557945
 30
0.0
 11
456.310103
 21
-72.557945
 31
0.0
  0
LINE
  5
424
100
AcDbEntity
  8
Layer_1
 62
7
100
AcDbLine
 10
456.310103
 20
-72.557945
 30
0.0
 11
456.310103
 21
-65.314966
 31
0.0
  0
LINE
  5
425
100
AcDbEntity
  8
Layer_1
 62
7
100
AcDbLine
 10
456.310103
 20
-65.314966
 30
0.0
 11
456.310103
 21
-65.314966
 31
0.0
  0
LINE
  5
426
100
AcDbEntity
  8
Layer_1
 62
7
100
AcDbLine
 10
483.471254
 20
-68.241921
 30
0.0
 11
483.471254
 21
-76.129835
 31
0.0
  0
LINE
  5
427
100
AcDbEntity
  8
Layer_1
 62
7
100
AcDbLine
 10
483.471254
 20
-76.129835
 30
0.0
 11
492.624172
 21
-76.129835
 31
0.0
  0
LINE
  5
428
100
AcDbEntity
  8
Layer_1
 62
7
100
AcDbLine
 10
492.624172
 20
-76.129835
 30
0.0
 11
492.624172
 21
-82.479835
 31
0.0
  0
LINE
  5
429
100
AcDbEntity
  8
Layer_1
 62
7
100
AcDbLine
 10
492.624172
 20
-82.479835
 30
0.0
 11
483.471254
 21
-82.479835
 31
0.0
  0
LINE
  5
42a
100
AcDbEntity
  8
Layer_1
 62
7
100
AcDbLine
 10
483.471254
 20
-82.479835
 30
0.0
 11
483.471254
 21
-94.262048
 31
0.0
  0
SPLINE
  5
42b
100
AcDbEntity
  8
Layer_1
 62
7
100
AcDbSpline
 70
8
 71
3
 72
8
 73
4
 74
0
 40
0
 40
0
 40
0
 40
0
 40
1
 40
1
 40
1
 40
1
 10
483.471254
 20
-94.262048
 30
0.0
 10
483.471254
 20
-95.551898
 30
0.0
 10
483.727568
 20
-96.428329
 30
0.0
 10
484.240197
 20
-96.891343
 30
0.0
  0
SPLINE
  5
42c
100
AcDbEntity
  8
Layer_1
 62
7
100
AcDbSpline
 70
8
 71
3
 72
8
 73
4
 74
0
 40
0
 40
0
 40
0
 40
0
 40
1
 40
1
 40
1
 40
1
 10
484.240197
 20
-96.891343
 30
0.0
 10
484.752825
 20
-97.337837
 30
0.0
 10
485.769813
 20
-97.561085
 30
0.0
 10
487.291160
 20
-97.561085
 30
0.0
  0
LINE
  5
42d
100
AcDbEntity
  8
Layer_1
 62
7
100
AcDbLine
 10
487.291160
 20
-97.561085
 30
0.0
 11
491.855229
 21
-97.561085
 31
0.0
  0
LINE
  5
42e
100
AcDbEntity
  8
Layer_1
 62
7
100
AcDbLine
 10
491.855229
 20
-97.561085
 30
0.0
 11
491.855229
 21
-103.911085
 31
0.0
  0
LINE
  5
42f
100
AcDbEntity
  8
Layer_1
 62
7
100
AcDbLine
 10
491.855229
 20
-103.911085
 30
0.0
 11
484.240197
 21
-103.911085
 31
0.0
  0
SPLINE
  5
430
100
AcDbEntity
  8
Layer_1
 62
7
100
AcDbSpline
 70
8
 71
3
 72
8
 73
4
 74
0
 40
0
 40
0
 40
0
 40
0
 40
1
 40
1
 40
1
 40
1
 10
484.240197
 20
-103.911085
 30
0.0
 10
480.734451
 20
-103.911085
 30
0.0
 10
478.245712
 20
-103.183478
 30
0.0
 10
476.773979
 20
-101.728265
 30
0.0
  0
SPLINE
  5
431
100
AcDbEntity
  8
Layer_1
 62
7
100
AcDbSpline
 70
8
 71
3
 72
8
 73
4
 74
0
 40
0
 40
0
 40
0
 40
0
 40
1
 40
1
 40
1
 40
1
 10
476.773979
 20
-101.728265
 30
0.0
 10
475.318766
 20
-100.256514
 30
0.0
 10
474.591160
 20
-97.767775
 30
0.0
 10
474.591160
 20
-94.262048
 30
0.0
  0
LINE
  5
432
100
AcDbEntity
  8
Layer_1
 62
7
100
AcDbLine
 10
474.591160
 20
-94.262048
 30
0.0
 11
474.591160
 21
-82.479835
 31
0.0
  0
LINE
  5
433
100
AcDbEntity
  8
Layer_1
 62
7
100
AcDbLine
 10
474.591160
 20
-82.479835
 30
0.0
 11
470.175934
 21
-82.479835
 31
0.0
  0
LINE
  5
434
100
AcDbEntity
  8
Layer_1
 62
7
100
AcDbLine
 10
470.175934
 20
-82.479835
 30
0.0
 11
470.175934
 21
-76.129835
 31
0.0
  0
LINE
  5
435
100
AcDbEntity
  8
Layer_1
 62
7
100
AcDbLine
 10
470.175934
 20
-76.129835
 30
0.0
 11
474.591160
 21
-76.129835
 31
0.0
  0
LINE
  5
436
100
AcDbEntity
  8
Layer_1
 62
7
100
AcDbLine
 10
474.591160
 20
-76.129835
 30
0.0
 11
474.591160
 21
-68.241921
 31
0.0
  0
LINE
  5
437
100
AcDbEntity
  8
Layer_1
 62
7
100
AcDbLine
 10
474.591160
 20
-68.241921
 30
0.0
 11
483.471254
 21
-68.241921
 31
0.0
  0
LINE
  5
438
100
AcDbEntity
  8
Layer_1
 62
7
100
AcDbLine
 10
483.471254
 20
-68.241921
 30
0.0
 11
483.471254
 21
-68.241921
 31
0.0
  0
LINE
  5
439
100
AcDbEntity
  8
Layer_1
 62
7
100
AcDbLine
 10
494.434910
 20
-76.129835
 30
0.0
 11
503.315004
 21
-76.129835
 31
0.0
  0
LINE
  5
43a
100
AcDbEntity
  8
Layer_1
 62
7
100
AcDbLine
 10
503.315004
 20
-76.129835
 30
0.0
 11
510.781193
 21
-94.981376
 31
0.0
  0
LINE
  5
43b
100
AcDbEntity
  8
Layer_1
 62
7
100
AcDbLine
 10
510.781193
 20
-94.981376
 30
0.0
 11
517.131193
 21
-76.129835
 31
0.0
  0
LINE
  5
43c
100
AcDbEntity
  8
Layer_1
 62
7
100
AcDbLine
 10
517.131193
 20
-76.129835
 30
0.0
 11
526.011287
 21
-76.129835
 31
0.0
  0
LINE
  5
43d
100
AcDbEntity
  8
Layer_1
 62
7
100
AcDbLine
 10
526.011287
 20
-76.129835
 30
0.0
 11
514.328275
 21
-106.540380
 31
0.0
  0
SPLINE
  5
43e
100
AcDbEntity
  8
Layer_1
 62
7
100
AcDbSpline
 70
8
 71
3
 72
8
 73
4
 74
0
 40
0
 40
0
 40
0
 40
0
 40
1
 40
1
 40
1
 40
1
 10
514.328275
 20
-106.540380
 30
0.0
 10
513.154192
 20
-109.632689
 30
0.0
 10
511.781661
 20
-111.790691
 30
0.0
 10
510.210681
 20
-113.014388
 30
0.0
  0
SPLINE
  5
43f
100
AcDbEntity
  8
Layer_1
 62
7
100
AcDbSpline
 70
8
 71
3
 72
8
 73
4
 74
0
 40
0
 40
0
 40
0
 40
0
 40
1
 40
1
 40
1
 40
1
 10
510.210681
 20
-113.014388
 30
0.0
 10
508.656257
 20
-114.254623
 30
0.0
 10
506.597474
 20
-114.874741
 30
0.0
 10
504.034332
 20
-114.874741
 30
0.0
  0
LINE
  5
440
100
AcDbEntity
  8
Layer_1
 62
7
100
AcDbLine
 10
504.034332
 20
-114.874741
 30
0.0
 11
498.899750
 21
-114.874741
 31
0.0
  0
LINE
  5
441
100
AcDbEntity
  8
Layer_1
 62
7
100
AcDbLine
 10
498.899750
 20
-114.874741
 30
0.0
 11
498.899750
 21
-109.045638
 31
0.0
  0
LINE
  5
442
100
AcDbEntity
  8
Layer_1
 62
7
100
AcDbLine
 10
498.899750
 20
-109.045638
 30
0.0
 11
501.677889
 21
-109.045638
 31
0.0
  0
SPLINE
  5
443
100
AcDbEntity
  8
Layer_1
 62
7
100
AcDbSpline
 70
8
 71
3
 72
8
 73
4
 74
0
 40
0
 40
0
 40
0
 40
0
 40
1
 40
1
 40
1
 40
1
 10
501.677889
 20
-109.045638
 30
0.0
 10
503.182698
 20
-109.045638
 30
0.0
 10
504.274098
 20
-108.805862
 30
0.0
 10
504.952090
 20
-108.326310
 30
0.0
  0
SPLINE
  5
444
100
AcDbEntity
  8
Layer_1
 62
7
100
AcDbSpline
 70
8
 71
3
 72
8
 73
4
 74
0
 40
0
 40
0
 40
0
 40
0
 40
1
 40
1
 40
1
 40
1
 10
504.952090
 20
-108.326310
 30
0.0
 10
505.646620
 20
-107.846758
 30
0.0
 10
506.184056
 20
-106.986865
 30
0.0
 10
506.564398
 20
-105.746630
 30
0.0
  0
LINE
  5
445
100
AcDbEntity
  8
Layer_1
 62
7
100
AcDbLine
 10
506.564398
 20
-105.746630
 30
0.0
 11
506.812443
 21
-104.977659
 31
0.0
  0
LINE
  5
446
100
AcDbEntity
  8
Layer_1
 62
7
100
AcDbLine
 10
506.812443
 20
-104.977659
 30
0.0
 11
494.434910
 21
-76.129835
 31
0.0
  0
LINE
  5
447
100
AcDbEntity
  8
Layer_1
 62
7
100
AcDbLine
 10
494.434910
 20
-76.129835
 30
0.0
 11
494.434910
 21
-76.129835
 31
0.0
  0
LINE
  5
448
100
AcDbEntity
  8
Layer_1
 62
1
100
AcDbLine
 10
691.516323
 20
400.052660
 30
0.0
 11
621.516325
 21
400.052660
 31
0.0
  0
LINE
  5
449
100
AcDbEntity
  8
Layer_1
 62
7
100
AcDbLine
 10
621.516325
 20
400.052660
 30
0.0
 11
621.516325
 21
199.052661
 31
0.0
  0
LINE
  5
44a
100
AcDbEntity
  8
Layer_1
 62
1
100
AcDbLine
 10
621.516325
 20
199.052661
 30
0.0
 11
691.516323
 21
199.052661
 31
0.0
  0
LINE
  5
44b
100
AcDbEntity
  8
Layer_1
 62
7
100
AcDbLine
 10
691.516323
 20
199.052661
 30
0.0
 11
691.516323
 21
202.052661
 31
0.0
  0
LINE
  5
44c
100
AcDbEntity
  8
Layer_1
 62
7
100
AcDbLine
 10
691.516323
 20
202.052661
 30
0.0
 11
671.516324
 21
202.052661
 31
0.0
  0
LINE
  5
44d
100
AcDbEntity
  8
Layer_1
 62
7
100
AcDbLine
 10
671.516324
 20
202.052661
 30
0.0
 11
671.516324
 21
199.052661
 31
0.0
  0
LINE
  5
44e
100
AcDbEntity
  8
Layer_1
 62
7
100
AcDbLine
 10
656.516325
 20
202.052661
 30
0.0
 11
656.516325
 21
199.052661
 31
0.0
  0
LINE
  5
44f
100
AcDbEntity
  8
Layer_1
 62
7
100
AcDbLine
 10
656.516325
 20
199.052661
 30
0.0
 11
636.516326
 21
199.052661
 31
0.0
  0
LINE
  5
450
100
AcDbEntity
  8
Layer_1
 62
7
100
AcDbLine
 10
636.516326
 20
199.052661
 30
0.0
 11
636.516326
 21
202.052661
 31
0.0
  0
LINE
  5
451
100
AcDbEntity
  8
Layer_1
 62
7
100
AcDbLine
 10
636.516326
 20
202.052661
 30
0.0
 11
656.516325
 21
202.052661
 31
0.0
  0
LINE
  5
452
100
AcDbEntity
  8
Layer_1
 62
7
100
AcDbLine
 10
656.516325
 20
202.052661
 30
0.0
 11
656.516325
 21
202.052661
 31
0.0
  0
LINE
  5
453
100
AcDbEntity
  8
Layer_1
 62
7
100
AcDbLine
 10
671.516324
 20
397.052660
 30
0.0
 11
691.516323
 21
397.052660
 31
0.0
  0
LINE
  5
454
100
AcDbEntity
  8
Layer_1
 62
7
100
AcDbLine
 10
691.516323
 20
397.052660
 30
0.0
 11
691.516323
 21
400.052660
 31
0.0
  0
LINE
  5
455
100
AcDbEntity
  8
Layer_1
 62
7
100
AcDbLine
 10
691.516323
 20
400.052660
 30
0.0
 11
671.516324
 21
400.052660
 31
0.0
  0
LINE
  5
456
100
AcDbEntity
  8
Layer_1
 62
7
100
AcDbLine
 10
671.516324
 20
400.052660
 30
0.0
 11
671.516324
 21
397.052660
 31
0.0
  0
LINE
  5
457
100
AcDbEntity
  8
Layer_1
 62
7
100
AcDbLine
 10
671.516324
 20
397.052660
 30
0.0
 11
671.516324
 21
397.052660
 31
0.0
  0
LINE
  5
458
100
AcDbEntity
  8
Layer_1
 62
7
100
AcDbLine
 10
636.516326
 20
400.052660
 30
0.0
 11
636.516326
 21
397.052660
 31
0.0
  0
LINE
  5
459
100
AcDbEntity
  8
Layer_1
 62
7
100
AcDbLine
 10
636.516326
 20
397.052660
 30
0.0
 11
656.516325
 21
397.052660
 31
0.0
  0
LINE
  5
45a
100
AcDbEntity
  8
Layer_1
 62
7
100
AcDbLine
 10
656.516325
 20
397.052660
 30
0.0
 11
656.516325
 21
400.052660
 31
0.0
  0
LINE
  5
45b
100
AcDbEntity
  8
Layer_1
 62
7
100
AcDbLine
 10
656.516325
 20
400.052660
 30
0.0
 11
636.516326
 21
400.052660
 31
0.0
  0
LINE
  5
45c
100
AcDbEntity
  8
Layer_1
 62
7
100
AcDbLine
 10
636.516326
 20
400.052660
 30
0.0
 11
636.516326
 21
400.052660
 31
0.0
  0
LINE
  5
45d
100
AcDbEntity
  8
Layer_1
 62
7
100
AcDbLine
 10
691.516323
 20
257.052661
 30
0.0
 11
694.516317
 21
257.052661
 31
0.0
  0
LINE
  5
45e
100
AcDbEntity
  8
Layer_1
 62
7
100
AcDbLine
 10
694.516317
 20
257.052661
 30
0.0
 11
694.516317
 21
242.052660
 31
0.0
  0
LINE
  5
45f
100
AcDbEntity
  8
Layer_1
 62
7
100
AcDbLine
 10
694.516317
 20
242.052660
 30
0.0
 11
691.516323
 21
242.052660
 31
0.0
  0
LINE
  5
460
100
AcDbEntity
  8
Layer_1
 62
7
100
AcDbLine
 10
691.516323
 20
357.052661
 30
0.0
 11
694.516317
 21
357.052661
 31
0.0
  0
LINE
  5
461
100
AcDbEntity
  8
Layer_1
 62
7
100
AcDbLine
 10
694.516317
 20
357.052661
 30
0.0
 11
694.516317
 21
342.052660
 31
0.0
  0
LINE
  5
462
100
AcDbEntity
  8
Layer_1
 62
7
100
AcDbLine
 10
694.516317
 20
342.052660
 30
0.0
 11
691.516323
 21
342.052660
 31
0.0
  0
LINE
  5
463
100
AcDbEntity
  8
Layer_1
 62
7
100
AcDbLine
 10
691.516323
 20
199.052661
 30
0.0
 11
691.516323
 21
242.052660
 31
0.0
  0
LINE
  5
464
100
AcDbEntity
  8
Layer_1
 62
7
100
AcDbLine
 10
691.516323
 20
257.052661
 30
0.0
 11
691.516323
 21
342.052660
 31
0.0
  0
LINE
  5
465
100
AcDbEntity
  8
Layer_1
 62
7
100
AcDbLine
 10
691.516323
 20
357.052661
 30
0.0
 11
691.516323
 21
400.052660
 31
0.0
  0
LINE
  5
466
100
AcDbEntity
  8
Layer_1
 62
1
100
AcDbLine
 10
691.516329
 20
196.637324
 30
0.0
 11
621.516330
 21
196.637324
 31
0.0
  0
LINE
  5
467
100
AcDbEntity
  8
Layer_1
 62
7
100
AcDbLine
 10
621.516330
 20
196.637324
 30
0.0
 11
621.516330
 21
-4.362674
 31
0.0
  0
LINE
  5
468
100
AcDbEntity
  8
Layer_1
 62
1
100
AcDbLine
 10
621.516330
 20
-4.362674
 30
0.0
 11
691.516329
 21
-4.362674
 31
0.0
  0
LINE
  5
469
100
AcDbEntity
  8
Layer_1
 62
7
100
AcDbLine
 10
691.516329
 20
-4.362674
 30
0.0
 11
691.516329
 21
-1.362675
 31
0.0
  0
LINE
  5
46a
100
AcDbEntity
  8
Layer_1
 62
7
100
AcDbLine
 10
691.516329
 20
-1.362675
 30
0.0
 11
671.516329
 21
-1.362675
 31
0.0
  0
LINE
  5
46b
100
AcDbEntity
  8
Layer_1
 62
7
100
AcDbLine
 10
671.516329
 20
-1.362675
 30
0.0
 11
671.516329
 21
-4.362674
 31
0.0
  0
LINE
  5
46c
100
AcDbEntity
  8
Layer_1
 62
7
100
AcDbLine
 10
656.516331
 20
-1.362675
 30
0.0
 11
656.516331
 21
-4.362674
 31
0.0
  0
LINE
  5
46d
100
AcDbEntity
  8
Layer_1
 62
7
100
AcDbLine
 10
656.516331
 20
-4.362674
 30
0.0
 11
636.516331
 21
-4.362674
 31
0.0
  0
LINE
  5
46e
100
AcDbEntity
  8
Layer_1
 62
7
100
AcDbLine
 10
636.516331
 20
-4.362674
 30
0.0
 11
636.516331
 21
-1.362675
 31
0.0
  0
LINE
  5
46f
100
AcDbEntity
  8
Layer_1
 62
7
100
AcDbLine
 10
636.516331
 20
-1.362675
 30
0.0
 11
656.516331
 21
-1.362675
 31
0.0
  0
LINE
  5
470
100
AcDbEntity
  8
Layer_1
 62
7
100
AcDbLine
 10
656.516331
 20
-1.362675
 30
0.0
 11
656.516331
 21
-1.362675
 31
0.0
  0
LINE
  5
471
100
AcDbEntity
  8
Layer_1
 62
7
100
AcDbLine
 10
671.516329
 20
193.637325
 30
0.0
 11
691.516329
 21
193.637325
 31
0.0
  0
LINE
  5
472
100
AcDbEntity
  8
Layer_1
 62
7
100
AcDbLine
 10
691.516329
 20
193.637325
 30
0.0
 11
691.516329
 21
196.637324
 31
0.0
  0
LINE
  5
473
100
AcDbEntity
  8
Layer_1
 62
7
100
AcDbLine
 10
691.516329
 20
196.637324
 30
0.0
 11
671.516329
 21
196.637324
 31
0.0
  0
LINE
  5
474
100
AcDbEntity
  8
Layer_1
 62
7
100
AcDbLine
 10
671.516329
 20
196.637324
 30
0.0
 11
671.516329
 21
193.637325
 31
0.0
  0
LINE
  5
475
100
AcDbEntity
  8
Layer_1
 62
7
100
AcDbLine
 10
671.516329
 20
193.637325
 30
0.0
 11
671.516329
 21
193.637325
 31
0.0
  0
LINE
  5
476
100
AcDbEntity
  8
Layer_1
 62
7
100
AcDbLine
 10
636.516331
 20
196.637324
 30
0.0
 11
636.516331
 21
193.637325
 31
0.0
  0
LINE
  5
477
100
AcDbEntity
  8
Layer_1
 62
7
100
AcDbLine
 10
636.516331
 20
193.637325
 30
0.0
 11
656.516331
 21
193.637325
 31
0.0
  0
LINE
  5
478
100
AcDbEntity
  8
Layer_1
 62
7
100
AcDbLine
 10
656.516331
 20
193.637325
 30
0.0
 11
656.516331
 21
196.637324
 31
0.0
  0
LINE
  5
479
100
AcDbEntity
  8
Layer_1
 62
7
100
AcDbLine
 10
656.516331
 20
196.637324
 30
0.0
 11
636.516331
 21
196.637324
 31
0.0
  0
LINE
  5
47a
100
AcDbEntity
  8
Layer_1
 62
7
100
AcDbLine
 10
636.516331
 20
196.637324
 30
0.0
 11
636.516331
 21
196.637324
 31
0.0
  0
LINE
  5
47b
100
AcDbEntity
  8
Layer_1
 62
7
100
AcDbLine
 10
691.516329
 20
53.637325
 30
0.0
 11
694.516323
 21
53.637325
 31
0.0
  0
LINE
  5
47c
100
AcDbEntity
  8
Layer_1
 62
7
100
AcDbLine
 10
694.516323
 20
53.637325
 30
0.0
 11
694.516323
 21
38.637324
 31
0.0
  0
LINE
  5
47d
100
AcDbEntity
  8
Layer_1
 62
7
100
AcDbLine
 10
694.516323
 20
38.637324
 30
0.0
 11
691.516329
 21
38.637324
 31
0.0
  0
LINE
  5
47e
100
AcDbEntity
  8
Layer_1
 62
7
100
AcDbLine
 10
691.516329
 20
153.637326
 30
0.0
 11
694.516323
 21
153.637326
 31
0.0
  0
LINE
  5
47f
100
AcDbEntity
  8
Layer_1
 62
7
100
AcDbLine
 10
694.516323
 20
153.637326
 30
0.0
 11
694.516323
 21
138.637325
 31
0.0
  0
LINE
  5
480
100
AcDbEntity
  8
Layer_1
 62
7
100
AcDbLine
 10
694.516323
 20
138.637325
 30
0.0
 11
691.516329
 21
138.637325
 31
0.0
  0
LINE
  5
481
100
AcDbEntity
  8
Layer_1
 62
7
100
AcDbLine
 10
691.516329
 20
-4.362674
 30
0.0
 11
691.516329
 21
38.637324
 31
0.0
  0
LINE
  5
482
100
AcDbEntity
  8
Layer_1
 62
7
100
AcDbLine
 10
691.516329
 20
53.637325
 30
0.0
 11
691.516329
 21
138.637325
 31
0.0
  0
LINE
  5
483
100
AcDbEntity
  8
Layer_1
 62
7
100
AcDbLine
 10
691.516329
 20
153.637326
 30
0.0
 11
691.516329
 21
196.637324
 31
0.0
  0
ENDSEC
  0
SECTION
  2
OBJECTS
  0
DICTIONARY
  5
C
330
0
100
AcDbDictionary
  3
ACAD_GROUP
350
D
  3
ACAD_MLINESTYLE
350
17
  0
DICTIONARY
  5
D
330
C
100
AcDbDictionary
  0
DICTIONARY
  5
1A
330
C
100
AcDbDictionary
  0
DICTIONARY
  5
17
330
C
100
AcDbDictionary
  3
STANDARD
350
18
  0
DICTIONARY
  5
19
330
C
100
AcDbDictionary
  0
ENDSEC
  0
EOF
