0
SECTION
2
HEADER
9
$INSUNITS
70
4
9
$ACADVER
1
AC1014
9
$HANDSEED
5
FFFF
0
ENDSEC
0
SECTION
2
TABLES
0
TABLE
2
VPORT
5
8
100
AcDbSymbolTable
0
ENDTAB
0
TABLE
2
LTYPE
5
5
100
AcDbSymbolTable
0
LTYPE
5
14
100
AcDbSymbolTableRecord
100
AcDbLinetypeTableRecord
2
BYBLOCK
70
0
0
LTYPE
5
15
100
AcDbSymbolTableRecord
100
AcDbLinetypeTableRecord
2
BYLAYER
70
0
0
ENDTAB
0
TABLE
2
LAYER
5
2
100
AcDbSymbolTable
70
2
0
LAYER
5
50
100
AcDbSymbolTableRecord
100
AcDbLayerTableRecord
2
0
70
0
6
CONTINUOUS
0
ENDTAB
0
TABLE
2
STYLE
5
3
100
AcDbSymbolTable
70
1
0
STYLE
5
11
100
AcDbSymbolTableRecord
100
AcDbTextStyleTableRecord
2
STANDARD
70
0
0
ENDTAB
0
TABLE
2
VIEW
5
6
100
AcDbSymbolTable
70
0
0
ENDTAB
0
TABLE
2
UCS
5
7
100
AcDbSymbolTable
70
0
0
ENDTAB
0
TABLE
2
APPID
5
9
100
AcDbSymbolTable
70
2
0
APPID
5
12
100
AcDbSymbolTableRecord
100
AcDbRegAppTableRecord
2
ACAD
70
0
0
ENDTAB
0
TABLE
2
DIMSTYLE
5
A
100
AcDbSymbolTable
70
1
0
ENDTAB
0
TABLE
2
BLOCK_RECORD
5
1
100
AcDbSymbolTable
70
1
0
BLOCK_RECORD
5
1F
100
AcDbSymbolTableRecord
100
AcDbBlockTableRecord
2
*MODEL_SPACE
0
BLOCK_RECORD
5
1B
100
AcDbSymbolTableRecord
100
AcDbBlockTableRecord
2
*PAPER_SPACE
0
ENDTAB
0
ENDSEC
0
SECTION
2
BLOCKS
0
BLOCK
5
20
100
AcDbEntity
100
AcDbBlockBegin
2
*MODEL_SPACE
0
ENDBLK
5
21
100
AcDbEntity
100
AcDbBlockEnd
0
BLOCK
5
1C
100
AcDbEntity
100
AcDbBlockBegin
2
*PAPER_SPACE
0
ENDBLK
5
1D
100
AcDbEntity
100
AcDbBlockEnd
0
ENDSEC
0
SECTION
2
ENTITIES
0
LINE
5
100
100
AcDbEntity
8
0
100
AcDbLine
10
0
20
0
30
0
11
297
21
0
31
0
0
LINE
5
101
100
AcDbEntity
8
0
100
AcDbLine
10
297
20
0
30
0
11
297
21
70
31
0
0
LINE
5
102
100
AcDbEntity
8
0
100
AcDbLine
10
297
20
70
30
0
11
1.1093356479670479e-30
21
70
31
0
0
LINE
5
103
100
AcDbEntity
8
0
100
AcDbLine
10
1.1093356479670479e-30
20
70
30
0
11
0
21
0
31
0
0
LINE
5
104
100
AcDbEntity
8
0
100
AcDbLine
10
3.1248891492029519e-31
20
20
30
0
11
3.0000000000000004
21
20
31
0
0
LINE
5
105
100
AcDbEntity
8
0
100
AcDbLine
10
3.0000000000000004
20
20
30
0
11
3
21
35
31
0
0
LINE
5
106
100
AcDbEntity
8
0
100
AcDbLine
10
3
20
35
30
0
11
-4.9303806576313238e-31
21
35
31
0
0
LINE
5
107
100
AcDbEntity
8
0
100
AcDbLine
10
-4.9303806576313238e-31
20
35
30
0
11
3.1248891492029519e-31
21
20
31
0
0
LINE
5
108
100
AcDbEntity
8
0
100
AcDbLine
10
297
20
20
30
0
11
294
21
20
31
0
0
LINE
5
109
100
AcDbEntity
8
0
100
AcDbLine
10
294
20
20
30
0
11
294
21
35
31
0
0
LINE
5
110
100
AcDbEntity
8
0
100
AcDbLine
10
294
20
35
30
0
11
297
21
35
31
0
0
LINE
5
111
100
AcDbEntity
8
0
100
AcDbLine
10
297
20
35
30
0
11
297
21
20
31
0
0
LINE
5
112
100
AcDbEntity
8
0
100
AcDbLine
10
3.1248891492029519e-31
20
20
30
0
11
297
21
20
31
0
0
LWPOLYLINE
5
113
100
AcDbEntity
8
0
100
AcDbPolyline
90
4
70
1
43
0.0
10
101.00000000000001
20
20
10
98
20
20
10
98
20
35
10
101.00000000000001
20
35
0
LWPOLYLINE
5
114
100
AcDbEntity
8
0
100
AcDbPolyline
90
4
70
1
43
0.0
10
199.00000000000003
20
20
10
196
20
20
10
196
20
35
10
199.00000000000003
20
35
0
LINE
5
115
100
AcDbEntity
8
0
100
AcDbLine
10
1.1093356479670479e-30
20
70
30
0
11
3.0000000000000004
21
70
31
0
0
LINE
5
116
100
AcDbEntity
8
0
100
AcDbLine
10
3.0000000000000004
20
70
30
0
11
3.0000000000000004
21
55
31
0
0
LINE
5
117
100
AcDbEntity
8
0
100
AcDbLine
10
3.0000000000000004
20
55
30
0
11
1.1093356479670479e-30
21
55
31
0
0
LINE
5
118
100
AcDbEntity
8
0
100
AcDbLine
10
1.1093356479670479e-30
20
55
30
0
11
1.1093356479670479e-30
21
70
31
0
0
LWPOLYLINE
5
119
100
AcDbEntity
8
0
100
AcDbPolyline
90
4
70
1
43
0.0
10
101.00000000000001
20
70
10
98
20
70
10
98
20
55
10
101.00000000000001
20
55
0
LWPOLYLINE
5
120
100
AcDbEntity
8
0
100
AcDbPolyline
90
4
70
1
43
0.0
10
196
20
70
10
199.00000000000003
20
70
10
199.00000000000003
20
55
10
196
20
55
0
LINE
5
121
100
AcDbEntity
8
0
100
AcDbLine
10
297
20
70
30
0
11
294
21
70
31
0
0
LINE
5
122
100
AcDbEntity
8
0
100
AcDbLine
10
294
20
70
30
0
11
294
21
55
31
0
0
LINE
5
123
100
AcDbEntity
8
0
100
AcDbLine
10
294
20
55
30
0
11
297
21
55
31
0
0
LINE
5
124
100
AcDbEntity
8
0
100
AcDbLine
10
297
20
55
30
0
11
297
21
70
31
0
0
LINE
5
125
100
AcDbEntity
8
0
100
AcDbLine
10
43
20
2.0162992968383766e-16
30
0
11
58
21
2.0162992968383744e-16
31
0
0
LINE
5
126
100
AcDbEntity
8
0
100
AcDbLine
10
58
20
2.0162992968383744e-16
30
0
11
58
21
-3.0000000000000004
31
0
0
LINE
5
127
100
AcDbEntity
8
0
100
AcDbLine
10
58
20
-3.0000000000000004
30
0
11
43
21
-3.0000000000000004
31
0
0
LINE
5
128
100
AcDbEntity
8
0
100
AcDbLine
10
43
20
-3.0000000000000004
30
0
11
43
21
2.0162992968383766e-16
31
0
0
LINE
5
129
100
AcDbEntity
8
0
100
AcDbLine
10
141
20
0
30
0
11
156
21
0
31
0
0
LINE
5
130
100
AcDbEntity
8
0
100
AcDbLine
10
156
20
0
30
0
11
156
21
-3.0000000000000018
31
0
0
LINE
5
131
100
AcDbEntity
8
0
100
AcDbLine
10
156
20
-3.0000000000000018
30
0
11
141
21
-3.0000000000000009
31
0
0
LINE
5
132
100
AcDbEntity
8
0
100
AcDbLine
10
141
20
-3.0000000000000009
30
0
11
141
21
0
31
0
0
LINE
5
133
100
AcDbEntity
8
0
100
AcDbLine
10
239.00000000000003
20
0
30
0
11
254.00000000000003
21
0
31
0
0
LINE
5
134
100
AcDbEntity
8
0
100
AcDbLine
10
254.00000000000003
20
0
30
0
11
254.00000000000003
21
-3.0000000000000009
31
0
0
LINE
5
135
100
AcDbEntity
8
0
100
AcDbLine
10
254.00000000000003
20
-3.0000000000000009
30
0
11
239.00000000000003
21
-3.0000000000000004
31
0
0
LINE
5
136
100
AcDbEntity
8
0
100
AcDbLine
10
239.00000000000003
20
-3.0000000000000004
30
0
11
239.00000000000003
21
0
31
0
0
SPLINE
5
137
100
AcDbEntity
8
0
100
AcDbSpline
70
12
71
2
41
1
41
3
41
1
72
6
73
3
74
0
42
0.000000001
43
0.0000000001
44
0.0000000001
40
0
40
0
40
0
40
7.1589105316381776
40
7.1589105316381776
40
7.1589105316381776
10
18
20
70
30
0
10
50.5
20
50
30
0
10
83
20
70
30
0
0
LINE
5
138
100
AcDbEntity
8
0
100
AcDbLine
10
99.500000000000014
20
70
30
0
11
99.500000000000014
21
43.584889339671669
31
0
0
SPLINE
5
139
100
AcDbEntity
8
0
100
AcDbSpline
70
12
71
2
41
1
41
3
41
1
72
6
73
3
74
0
42
0.000000001
43
0.0000000001
44
0.0000000001
40
0
40
0
40
0
40
7.1589105316381767
40
7.1589105316381767
40
7.1589105316381767
10
181
20
70
30
0
10
148.5
20
50
30
0
10
116.00000000000001
20
70
30
0
0
LINE
5
140
100
AcDbEntity
8
0
100
AcDbLine
10
197.5
20
70
30
0
11
197.5
21
45.000000670552254
31
0
0
SPLINE
5
141
100
AcDbEntity
8
0
100
AcDbSpline
70
12
71
2
41
1
41
3
41
1
72
6
73
3
74
0
42
0.000000001
43
0.0000000001
44
0.0000000001
40
0
40
0
40
0
40
7.1589105316381767
40
7.1589105316381767
40
7.1589105316381767
10
214
20
70
30
0
10
246.49999999999994
20
50
30
0
10
279
20
70
30
0
0
LINE
5
142
100
AcDbEntity
8
0
100
AcDbLine
10
0
20
0
30
0
11
43
21
2.0162992968383766e-16
31
0
0
LINE
5
143
100
AcDbEntity
8
0
100
AcDbLine
10
43
20
2.0162992968383766e-16
30
0
11
43
21
-3.0000000000000004
31
0
0
LINE
5
144
100
AcDbEntity
8
0
100
AcDbLine
10
43
20
-3.0000000000000004
30
0
11
58
21
-3.0000000000000004
31
0
0
LINE
5
145
100
AcDbEntity
8
0
100
AcDbLine
10
58
20
-3.0000000000000004
30
0
11
58
21
2.0162992968383744e-16
31
0
0
LINE
5
146
100
AcDbEntity
8
0
100
AcDbLine
10
58
20
2.0162992968383744e-16
30
0
11
141
21
0
31
0
0
LINE
5
147
100
AcDbEntity
8
0
100
AcDbLine
10
141
20
0
30
0
11
141
21
-3.0000000000000009
31
0
0
LINE
5
148
100
AcDbEntity
8
0
100
AcDbLine
10
141
20
-3.0000000000000009
30
0
11
156
21
-3.0000000000000018
31
0
0
LINE
5
149
100
AcDbEntity
8
0
100
AcDbLine
10
156
20
-3.0000000000000018
30
0
11
156
21
0
31
0
0
LINE
5
150
100
AcDbEntity
8
0
100
AcDbLine
10
156
20
0
30
0
11
239.00000000000003
21
0
31
0
0
LINE
5
151
100
AcDbEntity
8
0
100
AcDbLine
10
239.00000000000003
20
0
30
0
11
239.00000000000003
21
-3.0000000000000004
31
0
0
LINE
5
152
100
AcDbEntity
8
0
100
AcDbLine
10
239.00000000000003
20
0
30
0
11
239.00000000000003
21
-3.0000000000000004
31
0
0
LINE
5
153
100
AcDbEntity
8
0
100
AcDbLine
10
239.00000000000003
20
-3.0000000000000004
30
0
11
254.00000000000003
21
-3.0000000000000009
31
0
0
LINE
5
154
100
AcDbEntity
8
0
100
AcDbLine
10
254.00000000000003
20
-3.0000000000000009
30
0
11
254.00000000000003
21
0
31
0
0
LINE
5
155
100
AcDbEntity
8
0
100
AcDbLine
10
254.00000000000003
20
0
30
0
11
297
21
0
31
0
0
ENDSEC
0
SECTION
2
OBJECTS
0
DICTIONARY
5
C
100
AcDbDictionary
3
ACAD_GROUP
350
D
3
ACAD_MLINESTYLE
350
17
0
DICTIONARY
5
D
100
AcDbDictionary
0
DICTIONARY
5
1A
330
C
100
AcDbDictionary
0
DICTIONARY
5
17
100
AcDbDictionary
0
ENDSEC
0
EOF
